G75*
%MOIN*%
%OFA0B0*%
%FSLAX25Y25*%
%IPPOS*%
%LPD*%
%AMOC8*
5,1,8,0,0,1.08239X$1,22.5*
%
%ADD10C,0.00039*%
D10*
X0021772Y0028308D02*
X0021426Y0029734D01*
X0021295Y0031195D01*
X0021382Y0032660D01*
X0021684Y0034096D01*
X0022196Y0035471D01*
X0022905Y0036755D01*
X0023797Y0037920D01*
X0024851Y0038941D01*
X0026045Y0039794D01*
X0027352Y0040461D01*
X0028743Y0040927D01*
X0030188Y0041183D01*
X0031654Y0041221D01*
X0031654Y0037757D01*
X0030605Y0037735D01*
X0029572Y0037543D01*
X0028584Y0037188D01*
X0027667Y0036677D01*
X0026844Y0036025D01*
X0026137Y0035249D01*
X0025565Y0034368D01*
X0021786Y0034368D01*
X0021771Y0034331D02*
X0025548Y0034331D01*
X0025565Y0034368D02*
X0025142Y0033407D01*
X0024880Y0032390D01*
X0024786Y0031345D01*
X0024862Y0030297D01*
X0025107Y0029276D01*
X0025513Y0028308D01*
X0021772Y0028308D01*
X0021763Y0028345D02*
X0025497Y0028345D01*
X0025481Y0028383D02*
X0021754Y0028383D01*
X0021745Y0028421D02*
X0025465Y0028421D01*
X0025449Y0028459D02*
X0021736Y0028459D01*
X0021727Y0028497D02*
X0025433Y0028497D01*
X0025418Y0028535D02*
X0021717Y0028535D01*
X0021708Y0028573D02*
X0025402Y0028573D01*
X0025386Y0028610D02*
X0021699Y0028610D01*
X0021690Y0028648D02*
X0025370Y0028648D01*
X0025354Y0028686D02*
X0021681Y0028686D01*
X0021671Y0028724D02*
X0025338Y0028724D01*
X0025322Y0028762D02*
X0021662Y0028762D01*
X0021653Y0028800D02*
X0025306Y0028800D01*
X0025290Y0028838D02*
X0021644Y0028838D01*
X0021635Y0028876D02*
X0025275Y0028876D01*
X0025259Y0028913D02*
X0021625Y0028913D01*
X0021616Y0028951D02*
X0025243Y0028951D01*
X0025227Y0028989D02*
X0021607Y0028989D01*
X0021598Y0029027D02*
X0025211Y0029027D01*
X0025195Y0029065D02*
X0021589Y0029065D01*
X0021579Y0029103D02*
X0025179Y0029103D01*
X0025163Y0029141D02*
X0021570Y0029141D01*
X0021561Y0029179D02*
X0025148Y0029179D01*
X0025132Y0029217D02*
X0021552Y0029217D01*
X0021543Y0029254D02*
X0025116Y0029254D01*
X0025103Y0029292D02*
X0021534Y0029292D01*
X0021524Y0029330D02*
X0025094Y0029330D01*
X0025085Y0029368D02*
X0021515Y0029368D01*
X0021506Y0029406D02*
X0025076Y0029406D01*
X0025067Y0029444D02*
X0021497Y0029444D01*
X0021488Y0029482D02*
X0025057Y0029482D01*
X0025048Y0029520D02*
X0021478Y0029520D01*
X0021469Y0029557D02*
X0025039Y0029557D01*
X0025030Y0029595D02*
X0021460Y0029595D01*
X0021451Y0029633D02*
X0025021Y0029633D01*
X0025012Y0029671D02*
X0021442Y0029671D01*
X0021432Y0029709D02*
X0025003Y0029709D01*
X0024994Y0029747D02*
X0021425Y0029747D01*
X0021422Y0029785D02*
X0024985Y0029785D01*
X0024976Y0029823D02*
X0021418Y0029823D01*
X0021415Y0029861D02*
X0024967Y0029861D01*
X0024958Y0029898D02*
X0021412Y0029898D01*
X0021408Y0029936D02*
X0024949Y0029936D01*
X0024940Y0029974D02*
X0021405Y0029974D01*
X0021401Y0030012D02*
X0024931Y0030012D01*
X0024922Y0030050D02*
X0021398Y0030050D01*
X0021395Y0030088D02*
X0024912Y0030088D01*
X0024903Y0030126D02*
X0021391Y0030126D01*
X0021388Y0030164D02*
X0024894Y0030164D01*
X0024885Y0030201D02*
X0021384Y0030201D01*
X0021381Y0030239D02*
X0024876Y0030239D01*
X0024867Y0030277D02*
X0021378Y0030277D01*
X0021374Y0030315D02*
X0024861Y0030315D01*
X0024858Y0030353D02*
X0021371Y0030353D01*
X0021367Y0030391D02*
X0024856Y0030391D01*
X0024853Y0030429D02*
X0021364Y0030429D01*
X0021361Y0030467D02*
X0024850Y0030467D01*
X0024847Y0030504D02*
X0021357Y0030504D01*
X0021354Y0030542D02*
X0024845Y0030542D01*
X0024842Y0030580D02*
X0021350Y0030580D01*
X0021347Y0030618D02*
X0024839Y0030618D01*
X0024836Y0030656D02*
X0021344Y0030656D01*
X0021340Y0030694D02*
X0024834Y0030694D01*
X0024831Y0030732D02*
X0021337Y0030732D01*
X0021333Y0030770D02*
X0024828Y0030770D01*
X0024825Y0030808D02*
X0021330Y0030808D01*
X0021327Y0030845D02*
X0024823Y0030845D01*
X0024820Y0030883D02*
X0021323Y0030883D01*
X0021320Y0030921D02*
X0024817Y0030921D01*
X0024814Y0030959D02*
X0021316Y0030959D01*
X0021313Y0030997D02*
X0024812Y0030997D01*
X0024809Y0031035D02*
X0021310Y0031035D01*
X0021306Y0031073D02*
X0024806Y0031073D01*
X0024803Y0031111D02*
X0021303Y0031111D01*
X0021299Y0031148D02*
X0024801Y0031148D01*
X0024798Y0031186D02*
X0021296Y0031186D01*
X0021297Y0031224D02*
X0024795Y0031224D01*
X0024792Y0031262D02*
X0021299Y0031262D01*
X0021301Y0031300D02*
X0024790Y0031300D01*
X0024787Y0031338D02*
X0021304Y0031338D01*
X0021306Y0031376D02*
X0024789Y0031376D01*
X0024792Y0031414D02*
X0021308Y0031414D01*
X0021310Y0031452D02*
X0024796Y0031452D01*
X0024799Y0031489D02*
X0021313Y0031489D01*
X0021315Y0031527D02*
X0024803Y0031527D01*
X0024806Y0031565D02*
X0021317Y0031565D01*
X0021319Y0031603D02*
X0024809Y0031603D01*
X0024813Y0031641D02*
X0021322Y0031641D01*
X0021324Y0031679D02*
X0024816Y0031679D01*
X0024820Y0031717D02*
X0021326Y0031717D01*
X0021328Y0031755D02*
X0024823Y0031755D01*
X0024827Y0031792D02*
X0021330Y0031792D01*
X0021333Y0031830D02*
X0024830Y0031830D01*
X0024833Y0031868D02*
X0021335Y0031868D01*
X0021337Y0031906D02*
X0024837Y0031906D01*
X0024840Y0031944D02*
X0021339Y0031944D01*
X0021342Y0031982D02*
X0024844Y0031982D01*
X0024847Y0032020D02*
X0021344Y0032020D01*
X0021346Y0032058D02*
X0024850Y0032058D01*
X0024854Y0032096D02*
X0021348Y0032096D01*
X0021351Y0032133D02*
X0024857Y0032133D01*
X0024861Y0032171D02*
X0021353Y0032171D01*
X0021355Y0032209D02*
X0024864Y0032209D01*
X0024867Y0032247D02*
X0021357Y0032247D01*
X0021360Y0032285D02*
X0024871Y0032285D01*
X0024874Y0032323D02*
X0021362Y0032323D01*
X0021364Y0032361D02*
X0024878Y0032361D01*
X0024882Y0032399D02*
X0021366Y0032399D01*
X0021368Y0032436D02*
X0024892Y0032436D01*
X0024902Y0032474D02*
X0021371Y0032474D01*
X0021373Y0032512D02*
X0024912Y0032512D01*
X0024921Y0032550D02*
X0021375Y0032550D01*
X0021377Y0032588D02*
X0024931Y0032588D01*
X0024941Y0032626D02*
X0021380Y0032626D01*
X0021383Y0032664D02*
X0024951Y0032664D01*
X0024960Y0032702D02*
X0021390Y0032702D01*
X0021398Y0032739D02*
X0024970Y0032739D01*
X0024980Y0032777D02*
X0021406Y0032777D01*
X0021414Y0032815D02*
X0024990Y0032815D01*
X0024999Y0032853D02*
X0021422Y0032853D01*
X0021430Y0032891D02*
X0025009Y0032891D01*
X0025019Y0032929D02*
X0021438Y0032929D01*
X0021446Y0032967D02*
X0025029Y0032967D01*
X0025038Y0033005D02*
X0021454Y0033005D01*
X0021462Y0033043D02*
X0025048Y0033043D01*
X0025058Y0033080D02*
X0021470Y0033080D01*
X0021478Y0033118D02*
X0025068Y0033118D01*
X0025077Y0033156D02*
X0021486Y0033156D01*
X0021494Y0033194D02*
X0025087Y0033194D01*
X0025097Y0033232D02*
X0021502Y0033232D01*
X0021510Y0033270D02*
X0025107Y0033270D01*
X0025116Y0033308D02*
X0021518Y0033308D01*
X0021526Y0033346D02*
X0025126Y0033346D01*
X0025136Y0033383D02*
X0021534Y0033383D01*
X0021542Y0033421D02*
X0025148Y0033421D01*
X0025165Y0033459D02*
X0021550Y0033459D01*
X0021558Y0033497D02*
X0025182Y0033497D01*
X0025198Y0033535D02*
X0021566Y0033535D01*
X0021574Y0033573D02*
X0025215Y0033573D01*
X0025231Y0033611D02*
X0021582Y0033611D01*
X0021590Y0033649D02*
X0025248Y0033649D01*
X0025265Y0033687D02*
X0021598Y0033687D01*
X0021606Y0033724D02*
X0025281Y0033724D01*
X0025298Y0033762D02*
X0021614Y0033762D01*
X0021622Y0033800D02*
X0025315Y0033800D01*
X0025331Y0033838D02*
X0021630Y0033838D01*
X0021638Y0033876D02*
X0025348Y0033876D01*
X0025365Y0033914D02*
X0021646Y0033914D01*
X0021654Y0033952D02*
X0025381Y0033952D01*
X0025398Y0033990D02*
X0021662Y0033990D01*
X0021670Y0034027D02*
X0025415Y0034027D01*
X0025431Y0034065D02*
X0021678Y0034065D01*
X0021687Y0034103D02*
X0025448Y0034103D01*
X0025465Y0034141D02*
X0021701Y0034141D01*
X0021715Y0034179D02*
X0025481Y0034179D01*
X0025498Y0034217D02*
X0021729Y0034217D01*
X0021743Y0034255D02*
X0025515Y0034255D01*
X0025531Y0034293D02*
X0021757Y0034293D01*
X0021800Y0034406D02*
X0025589Y0034406D01*
X0025614Y0034444D02*
X0021814Y0034444D01*
X0021828Y0034482D02*
X0025638Y0034482D01*
X0025663Y0034520D02*
X0021842Y0034520D01*
X0021856Y0034558D02*
X0025688Y0034558D01*
X0025712Y0034596D02*
X0021870Y0034596D01*
X0021884Y0034634D02*
X0025737Y0034634D01*
X0025761Y0034671D02*
X0021898Y0034671D01*
X0021912Y0034709D02*
X0025786Y0034709D01*
X0025811Y0034747D02*
X0021926Y0034747D01*
X0021940Y0034785D02*
X0025835Y0034785D01*
X0025860Y0034823D02*
X0021955Y0034823D01*
X0021969Y0034861D02*
X0025885Y0034861D01*
X0025909Y0034899D02*
X0021983Y0034899D01*
X0021997Y0034937D02*
X0025934Y0034937D01*
X0025958Y0034974D02*
X0022011Y0034974D01*
X0022025Y0035012D02*
X0025983Y0035012D01*
X0026008Y0035050D02*
X0022039Y0035050D01*
X0022053Y0035088D02*
X0026032Y0035088D01*
X0026057Y0035126D02*
X0022067Y0035126D01*
X0022081Y0035164D02*
X0026082Y0035164D01*
X0026106Y0035202D02*
X0022095Y0035202D01*
X0022110Y0035240D02*
X0026131Y0035240D01*
X0026163Y0035278D02*
X0022124Y0035278D01*
X0022138Y0035315D02*
X0026197Y0035315D01*
X0026232Y0035353D02*
X0022152Y0035353D01*
X0022166Y0035391D02*
X0026266Y0035391D01*
X0026301Y0035429D02*
X0022180Y0035429D01*
X0022194Y0035467D02*
X0026335Y0035467D01*
X0026370Y0035505D02*
X0022214Y0035505D01*
X0022235Y0035543D02*
X0026404Y0035543D01*
X0026439Y0035581D02*
X0022256Y0035581D01*
X0022277Y0035618D02*
X0026473Y0035618D01*
X0026508Y0035656D02*
X0022298Y0035656D01*
X0022319Y0035694D02*
X0026542Y0035694D01*
X0026577Y0035732D02*
X0022340Y0035732D01*
X0022361Y0035770D02*
X0026611Y0035770D01*
X0026646Y0035808D02*
X0022382Y0035808D01*
X0022403Y0035846D02*
X0026680Y0035846D01*
X0026715Y0035884D02*
X0022424Y0035884D01*
X0022445Y0035922D02*
X0026749Y0035922D01*
X0026784Y0035959D02*
X0022465Y0035959D01*
X0022486Y0035997D02*
X0026818Y0035997D01*
X0026856Y0036035D02*
X0022507Y0036035D01*
X0022528Y0036073D02*
X0026904Y0036073D01*
X0026952Y0036111D02*
X0022549Y0036111D01*
X0022570Y0036149D02*
X0027000Y0036149D01*
X0027048Y0036187D02*
X0022591Y0036187D01*
X0022612Y0036225D02*
X0027095Y0036225D01*
X0027143Y0036262D02*
X0022633Y0036262D01*
X0022654Y0036300D02*
X0027191Y0036300D01*
X0027239Y0036338D02*
X0022675Y0036338D01*
X0022696Y0036376D02*
X0027287Y0036376D01*
X0027335Y0036414D02*
X0022716Y0036414D01*
X0022737Y0036452D02*
X0027382Y0036452D01*
X0027430Y0036490D02*
X0022758Y0036490D01*
X0022779Y0036528D02*
X0027478Y0036528D01*
X0027526Y0036566D02*
X0022800Y0036566D01*
X0022821Y0036603D02*
X0027574Y0036603D01*
X0027621Y0036641D02*
X0022842Y0036641D01*
X0022863Y0036679D02*
X0027670Y0036679D01*
X0027738Y0036717D02*
X0022884Y0036717D01*
X0022905Y0036755D02*
X0027806Y0036755D01*
X0027875Y0036793D02*
X0022934Y0036793D01*
X0022963Y0036831D02*
X0027943Y0036831D01*
X0028011Y0036869D02*
X0022992Y0036869D01*
X0023021Y0036906D02*
X0028079Y0036906D01*
X0028147Y0036944D02*
X0023050Y0036944D01*
X0023079Y0036982D02*
X0028215Y0036982D01*
X0028283Y0037020D02*
X0023108Y0037020D01*
X0023137Y0037058D02*
X0028351Y0037058D01*
X0028419Y0037096D02*
X0023166Y0037096D01*
X0023195Y0037134D02*
X0028487Y0037134D01*
X0028555Y0037172D02*
X0023224Y0037172D01*
X0023253Y0037209D02*
X0028645Y0037209D01*
X0028750Y0037247D02*
X0023282Y0037247D01*
X0023311Y0037285D02*
X0028855Y0037285D01*
X0028961Y0037323D02*
X0023340Y0037323D01*
X0023369Y0037361D02*
X0029066Y0037361D01*
X0029171Y0037399D02*
X0023398Y0037399D01*
X0023427Y0037437D02*
X0029276Y0037437D01*
X0029382Y0037475D02*
X0023456Y0037475D01*
X0023485Y0037513D02*
X0029487Y0037513D01*
X0029611Y0037550D02*
X0023514Y0037550D01*
X0023542Y0037588D02*
X0029815Y0037588D01*
X0030020Y0037626D02*
X0023571Y0037626D01*
X0023600Y0037664D02*
X0030224Y0037664D01*
X0030428Y0037702D02*
X0023629Y0037702D01*
X0023658Y0037740D02*
X0030854Y0037740D01*
X0031654Y0037778D02*
X0023687Y0037778D01*
X0023716Y0037816D02*
X0031654Y0037816D01*
X0031654Y0037853D02*
X0023745Y0037853D01*
X0023774Y0037891D02*
X0031654Y0037891D01*
X0031654Y0037929D02*
X0023806Y0037929D01*
X0023845Y0037967D02*
X0031654Y0037967D01*
X0031654Y0038005D02*
X0023884Y0038005D01*
X0023923Y0038043D02*
X0031654Y0038043D01*
X0031654Y0038081D02*
X0023962Y0038081D01*
X0024001Y0038119D02*
X0031654Y0038119D01*
X0031654Y0038157D02*
X0024041Y0038157D01*
X0024080Y0038194D02*
X0031654Y0038194D01*
X0031654Y0038232D02*
X0024119Y0038232D01*
X0024158Y0038270D02*
X0031654Y0038270D01*
X0031654Y0038308D02*
X0024197Y0038308D01*
X0024236Y0038346D02*
X0031654Y0038346D01*
X0031654Y0038384D02*
X0024275Y0038384D01*
X0024315Y0038422D02*
X0031654Y0038422D01*
X0031654Y0038460D02*
X0024354Y0038460D01*
X0024393Y0038497D02*
X0031654Y0038497D01*
X0031654Y0038535D02*
X0024432Y0038535D01*
X0024471Y0038573D02*
X0031654Y0038573D01*
X0031654Y0038611D02*
X0024510Y0038611D01*
X0024549Y0038649D02*
X0031654Y0038649D01*
X0031654Y0038687D02*
X0024589Y0038687D01*
X0024628Y0038725D02*
X0031654Y0038725D01*
X0031654Y0038763D02*
X0024667Y0038763D01*
X0024706Y0038801D02*
X0031654Y0038801D01*
X0031654Y0038838D02*
X0024745Y0038838D01*
X0024784Y0038876D02*
X0031654Y0038876D01*
X0031654Y0038914D02*
X0024823Y0038914D01*
X0024867Y0038952D02*
X0031654Y0038952D01*
X0031654Y0038990D02*
X0024920Y0038990D01*
X0024973Y0039028D02*
X0031654Y0039028D01*
X0031654Y0039066D02*
X0025026Y0039066D01*
X0025079Y0039104D02*
X0031654Y0039104D01*
X0031654Y0039141D02*
X0025132Y0039141D01*
X0025185Y0039179D02*
X0031654Y0039179D01*
X0031654Y0039217D02*
X0025238Y0039217D01*
X0025291Y0039255D02*
X0031654Y0039255D01*
X0031654Y0039293D02*
X0025344Y0039293D01*
X0025397Y0039331D02*
X0031654Y0039331D01*
X0031654Y0039369D02*
X0025450Y0039369D01*
X0025503Y0039407D02*
X0031654Y0039407D01*
X0031654Y0039445D02*
X0025556Y0039445D01*
X0025609Y0039482D02*
X0031654Y0039482D01*
X0031654Y0039520D02*
X0025662Y0039520D01*
X0025715Y0039558D02*
X0031654Y0039558D01*
X0031654Y0039596D02*
X0025768Y0039596D01*
X0025821Y0039634D02*
X0031654Y0039634D01*
X0031654Y0039672D02*
X0025874Y0039672D01*
X0025927Y0039710D02*
X0031654Y0039710D01*
X0031654Y0039748D02*
X0025980Y0039748D01*
X0026033Y0039785D02*
X0031654Y0039785D01*
X0031654Y0039823D02*
X0026102Y0039823D01*
X0026176Y0039861D02*
X0031654Y0039861D01*
X0031654Y0039899D02*
X0026251Y0039899D01*
X0026325Y0039937D02*
X0031654Y0039937D01*
X0031654Y0039975D02*
X0026399Y0039975D01*
X0026473Y0040013D02*
X0031654Y0040013D01*
X0031654Y0040051D02*
X0026547Y0040051D01*
X0026622Y0040088D02*
X0031654Y0040088D01*
X0031654Y0040126D02*
X0026696Y0040126D01*
X0026770Y0040164D02*
X0031654Y0040164D01*
X0031654Y0040202D02*
X0026844Y0040202D01*
X0026919Y0040240D02*
X0031654Y0040240D01*
X0031654Y0040278D02*
X0026993Y0040278D01*
X0027067Y0040316D02*
X0031654Y0040316D01*
X0031654Y0040354D02*
X0027141Y0040354D01*
X0027215Y0040392D02*
X0031654Y0040392D01*
X0031654Y0040429D02*
X0027290Y0040429D01*
X0027370Y0040467D02*
X0031654Y0040467D01*
X0031654Y0040505D02*
X0027483Y0040505D01*
X0027596Y0040543D02*
X0031654Y0040543D01*
X0031654Y0040581D02*
X0027709Y0040581D01*
X0027822Y0040619D02*
X0031654Y0040619D01*
X0031654Y0040657D02*
X0027935Y0040657D01*
X0028048Y0040695D02*
X0031654Y0040695D01*
X0031654Y0040732D02*
X0028161Y0040732D01*
X0028274Y0040770D02*
X0031654Y0040770D01*
X0031654Y0040808D02*
X0028387Y0040808D01*
X0028500Y0040846D02*
X0031654Y0040846D01*
X0031654Y0040884D02*
X0028613Y0040884D01*
X0028726Y0040922D02*
X0031654Y0040922D01*
X0031654Y0040960D02*
X0028926Y0040960D01*
X0029141Y0040998D02*
X0031654Y0040998D01*
X0031654Y0041036D02*
X0029355Y0041036D01*
X0029569Y0041073D02*
X0031654Y0041073D01*
X0031654Y0041111D02*
X0029784Y0041111D01*
X0029998Y0041149D02*
X0031654Y0041149D01*
X0031654Y0041187D02*
X0030355Y0041187D01*
X0037087Y0034292D02*
X0037493Y0033324D01*
X0037738Y0032303D01*
X0037814Y0031255D01*
X0037720Y0030210D01*
X0037458Y0029193D01*
X0037035Y0028232D01*
X0040814Y0028232D01*
X0040829Y0028269D02*
X0037052Y0028269D01*
X0037035Y0028232D02*
X0036463Y0027351D01*
X0035756Y0026575D01*
X0034933Y0025923D01*
X0034016Y0025412D01*
X0033028Y0025057D01*
X0031995Y0024865D01*
X0030946Y0024843D01*
X0030946Y0021379D01*
X0032412Y0021417D01*
X0033857Y0021673D01*
X0035248Y0022139D01*
X0036555Y0022806D01*
X0037749Y0023659D01*
X0038803Y0024680D01*
X0039695Y0025845D01*
X0040404Y0027129D01*
X0040916Y0028504D01*
X0041218Y0029940D01*
X0041305Y0031405D01*
X0041174Y0032866D01*
X0040828Y0034292D01*
X0037087Y0034292D01*
X0037103Y0034255D02*
X0040837Y0034255D01*
X0040846Y0034217D02*
X0037119Y0034217D01*
X0037135Y0034179D02*
X0040855Y0034179D01*
X0040864Y0034141D02*
X0037151Y0034141D01*
X0037167Y0034103D02*
X0040873Y0034103D01*
X0040883Y0034065D02*
X0037182Y0034065D01*
X0037198Y0034027D02*
X0040892Y0034027D01*
X0040901Y0033990D02*
X0037214Y0033990D01*
X0037230Y0033952D02*
X0040910Y0033952D01*
X0040919Y0033914D02*
X0037246Y0033914D01*
X0037262Y0033876D02*
X0040929Y0033876D01*
X0040938Y0033838D02*
X0037278Y0033838D01*
X0037294Y0033800D02*
X0040947Y0033800D01*
X0040956Y0033762D02*
X0037310Y0033762D01*
X0037325Y0033724D02*
X0040965Y0033724D01*
X0040975Y0033687D02*
X0037341Y0033687D01*
X0037357Y0033649D02*
X0040984Y0033649D01*
X0040993Y0033611D02*
X0037373Y0033611D01*
X0037389Y0033573D02*
X0041002Y0033573D01*
X0041011Y0033535D02*
X0037405Y0033535D01*
X0037421Y0033497D02*
X0041021Y0033497D01*
X0041030Y0033459D02*
X0037437Y0033459D01*
X0037452Y0033421D02*
X0041039Y0033421D01*
X0041048Y0033383D02*
X0037468Y0033383D01*
X0037484Y0033346D02*
X0041057Y0033346D01*
X0041066Y0033308D02*
X0037497Y0033308D01*
X0037506Y0033270D02*
X0041076Y0033270D01*
X0041085Y0033232D02*
X0037515Y0033232D01*
X0037524Y0033194D02*
X0041094Y0033194D01*
X0041103Y0033156D02*
X0037533Y0033156D01*
X0037543Y0033118D02*
X0041112Y0033118D01*
X0041122Y0033080D02*
X0037552Y0033080D01*
X0037561Y0033043D02*
X0041131Y0033043D01*
X0041140Y0033005D02*
X0037570Y0033005D01*
X0037579Y0032967D02*
X0041149Y0032967D01*
X0041158Y0032929D02*
X0037588Y0032929D01*
X0037597Y0032891D02*
X0041168Y0032891D01*
X0041175Y0032853D02*
X0037606Y0032853D01*
X0037615Y0032815D02*
X0041178Y0032815D01*
X0041182Y0032777D02*
X0037624Y0032777D01*
X0037633Y0032739D02*
X0041185Y0032739D01*
X0041188Y0032702D02*
X0037642Y0032702D01*
X0037651Y0032664D02*
X0041192Y0032664D01*
X0041195Y0032626D02*
X0037660Y0032626D01*
X0037669Y0032588D02*
X0041199Y0032588D01*
X0041202Y0032550D02*
X0037678Y0032550D01*
X0037688Y0032512D02*
X0041205Y0032512D01*
X0041209Y0032474D02*
X0037697Y0032474D01*
X0037706Y0032436D02*
X0041212Y0032436D01*
X0041216Y0032399D02*
X0037715Y0032399D01*
X0037724Y0032361D02*
X0041219Y0032361D01*
X0041222Y0032323D02*
X0037733Y0032323D01*
X0037739Y0032285D02*
X0041226Y0032285D01*
X0041229Y0032247D02*
X0037742Y0032247D01*
X0037744Y0032209D02*
X0041233Y0032209D01*
X0041236Y0032171D02*
X0037747Y0032171D01*
X0037750Y0032133D02*
X0041239Y0032133D01*
X0041243Y0032096D02*
X0037753Y0032096D01*
X0037755Y0032058D02*
X0041246Y0032058D01*
X0041250Y0032020D02*
X0037758Y0032020D01*
X0037761Y0031982D02*
X0041253Y0031982D01*
X0041256Y0031944D02*
X0037764Y0031944D01*
X0037766Y0031906D02*
X0041260Y0031906D01*
X0041263Y0031868D02*
X0037769Y0031868D01*
X0037772Y0031830D02*
X0041267Y0031830D01*
X0041270Y0031792D02*
X0037775Y0031792D01*
X0037777Y0031755D02*
X0041273Y0031755D01*
X0041277Y0031717D02*
X0037780Y0031717D01*
X0037783Y0031679D02*
X0041280Y0031679D01*
X0041284Y0031641D02*
X0037786Y0031641D01*
X0037788Y0031603D02*
X0041287Y0031603D01*
X0041290Y0031565D02*
X0037791Y0031565D01*
X0037794Y0031527D02*
X0041294Y0031527D01*
X0041297Y0031489D02*
X0037797Y0031489D01*
X0037799Y0031452D02*
X0041301Y0031452D01*
X0041304Y0031414D02*
X0037802Y0031414D01*
X0037805Y0031376D02*
X0041303Y0031376D01*
X0041301Y0031338D02*
X0037808Y0031338D01*
X0037810Y0031300D02*
X0041299Y0031300D01*
X0041296Y0031262D02*
X0037813Y0031262D01*
X0037811Y0031224D02*
X0041294Y0031224D01*
X0041292Y0031186D02*
X0037808Y0031186D01*
X0037804Y0031148D02*
X0041290Y0031148D01*
X0041287Y0031111D02*
X0037801Y0031111D01*
X0037797Y0031073D02*
X0041285Y0031073D01*
X0041283Y0031035D02*
X0037794Y0031035D01*
X0037791Y0030997D02*
X0041281Y0030997D01*
X0041278Y0030959D02*
X0037787Y0030959D01*
X0037784Y0030921D02*
X0041276Y0030921D01*
X0041274Y0030883D02*
X0037780Y0030883D01*
X0037777Y0030845D02*
X0041272Y0030845D01*
X0041270Y0030808D02*
X0037773Y0030808D01*
X0037770Y0030770D02*
X0041267Y0030770D01*
X0041265Y0030732D02*
X0037767Y0030732D01*
X0037763Y0030694D02*
X0041263Y0030694D01*
X0041261Y0030656D02*
X0037760Y0030656D01*
X0037756Y0030618D02*
X0041258Y0030618D01*
X0041256Y0030580D02*
X0037753Y0030580D01*
X0037750Y0030542D02*
X0041254Y0030542D01*
X0041252Y0030504D02*
X0037746Y0030504D01*
X0037743Y0030467D02*
X0041249Y0030467D01*
X0041247Y0030429D02*
X0037739Y0030429D01*
X0037736Y0030391D02*
X0041245Y0030391D01*
X0041243Y0030353D02*
X0037733Y0030353D01*
X0037729Y0030315D02*
X0041240Y0030315D01*
X0041238Y0030277D02*
X0037726Y0030277D01*
X0037722Y0030239D02*
X0041236Y0030239D01*
X0041234Y0030201D02*
X0037718Y0030201D01*
X0037708Y0030164D02*
X0041232Y0030164D01*
X0041229Y0030126D02*
X0037698Y0030126D01*
X0037688Y0030088D02*
X0041227Y0030088D01*
X0041225Y0030050D02*
X0037679Y0030050D01*
X0037669Y0030012D02*
X0041223Y0030012D01*
X0041220Y0029974D02*
X0037659Y0029974D01*
X0037649Y0029936D02*
X0041217Y0029936D01*
X0041210Y0029898D02*
X0037640Y0029898D01*
X0037630Y0029861D02*
X0041202Y0029861D01*
X0041194Y0029823D02*
X0037620Y0029823D01*
X0037610Y0029785D02*
X0041186Y0029785D01*
X0041178Y0029747D02*
X0037601Y0029747D01*
X0037591Y0029709D02*
X0041170Y0029709D01*
X0041162Y0029671D02*
X0037581Y0029671D01*
X0037571Y0029633D02*
X0041154Y0029633D01*
X0041146Y0029595D02*
X0037562Y0029595D01*
X0037552Y0029557D02*
X0041138Y0029557D01*
X0041130Y0029520D02*
X0037542Y0029520D01*
X0037532Y0029482D02*
X0041122Y0029482D01*
X0041114Y0029444D02*
X0037523Y0029444D01*
X0037513Y0029406D02*
X0041106Y0029406D01*
X0041098Y0029368D02*
X0037503Y0029368D01*
X0037493Y0029330D02*
X0041090Y0029330D01*
X0041082Y0029292D02*
X0037484Y0029292D01*
X0037474Y0029254D02*
X0041074Y0029254D01*
X0041066Y0029217D02*
X0037464Y0029217D01*
X0037452Y0029179D02*
X0041058Y0029179D01*
X0041050Y0029141D02*
X0037435Y0029141D01*
X0037418Y0029103D02*
X0041042Y0029103D01*
X0041034Y0029065D02*
X0037402Y0029065D01*
X0037385Y0029027D02*
X0041026Y0029027D01*
X0041018Y0028989D02*
X0037369Y0028989D01*
X0037352Y0028951D02*
X0041010Y0028951D01*
X0041002Y0028913D02*
X0037335Y0028913D01*
X0037319Y0028876D02*
X0040994Y0028876D01*
X0040986Y0028838D02*
X0037302Y0028838D01*
X0037285Y0028800D02*
X0040978Y0028800D01*
X0040970Y0028762D02*
X0037269Y0028762D01*
X0037252Y0028724D02*
X0040962Y0028724D01*
X0040954Y0028686D02*
X0037235Y0028686D01*
X0037219Y0028648D02*
X0040946Y0028648D01*
X0040938Y0028610D02*
X0037202Y0028610D01*
X0037185Y0028573D02*
X0040930Y0028573D01*
X0040922Y0028535D02*
X0037169Y0028535D01*
X0037152Y0028497D02*
X0040913Y0028497D01*
X0040899Y0028459D02*
X0037135Y0028459D01*
X0037119Y0028421D02*
X0040885Y0028421D01*
X0040871Y0028383D02*
X0037102Y0028383D01*
X0037085Y0028345D02*
X0040857Y0028345D01*
X0040843Y0028307D02*
X0037069Y0028307D01*
X0037011Y0028194D02*
X0040800Y0028194D01*
X0040786Y0028156D02*
X0036986Y0028156D01*
X0036962Y0028118D02*
X0040772Y0028118D01*
X0040758Y0028080D02*
X0036937Y0028080D01*
X0036912Y0028042D02*
X0040744Y0028042D01*
X0040730Y0028004D02*
X0036888Y0028004D01*
X0036863Y0027966D02*
X0040716Y0027966D01*
X0040702Y0027929D02*
X0036839Y0027929D01*
X0036814Y0027891D02*
X0040688Y0027891D01*
X0040674Y0027853D02*
X0036789Y0027853D01*
X0036765Y0027815D02*
X0040660Y0027815D01*
X0040645Y0027777D02*
X0036740Y0027777D01*
X0036715Y0027739D02*
X0040631Y0027739D01*
X0040617Y0027701D02*
X0036691Y0027701D01*
X0036666Y0027663D02*
X0040603Y0027663D01*
X0040589Y0027626D02*
X0036642Y0027626D01*
X0036617Y0027588D02*
X0040575Y0027588D01*
X0040561Y0027550D02*
X0036592Y0027550D01*
X0036568Y0027512D02*
X0040547Y0027512D01*
X0040533Y0027474D02*
X0036543Y0027474D01*
X0036518Y0027436D02*
X0040519Y0027436D01*
X0040505Y0027398D02*
X0036494Y0027398D01*
X0036469Y0027360D02*
X0040490Y0027360D01*
X0040476Y0027322D02*
X0036437Y0027322D01*
X0036403Y0027285D02*
X0040462Y0027285D01*
X0040448Y0027247D02*
X0036368Y0027247D01*
X0036334Y0027209D02*
X0040434Y0027209D01*
X0040420Y0027171D02*
X0036299Y0027171D01*
X0036265Y0027133D02*
X0040406Y0027133D01*
X0040386Y0027095D02*
X0036230Y0027095D01*
X0036196Y0027057D02*
X0040365Y0027057D01*
X0040344Y0027019D02*
X0036161Y0027019D01*
X0036127Y0026982D02*
X0040323Y0026982D01*
X0040302Y0026944D02*
X0036092Y0026944D01*
X0036058Y0026906D02*
X0040281Y0026906D01*
X0040260Y0026868D02*
X0036023Y0026868D01*
X0035989Y0026830D02*
X0040239Y0026830D01*
X0040218Y0026792D02*
X0035954Y0026792D01*
X0035920Y0026754D02*
X0040197Y0026754D01*
X0040176Y0026716D02*
X0035885Y0026716D01*
X0035851Y0026678D02*
X0040155Y0026678D01*
X0040135Y0026641D02*
X0035816Y0026641D01*
X0035782Y0026603D02*
X0040114Y0026603D01*
X0040093Y0026565D02*
X0035744Y0026565D01*
X0035696Y0026527D02*
X0040072Y0026527D01*
X0040051Y0026489D02*
X0035648Y0026489D01*
X0035600Y0026451D02*
X0040030Y0026451D01*
X0040009Y0026413D02*
X0035552Y0026413D01*
X0035505Y0026375D02*
X0039988Y0026375D01*
X0039967Y0026338D02*
X0035457Y0026338D01*
X0035409Y0026300D02*
X0039946Y0026300D01*
X0039925Y0026262D02*
X0035361Y0026262D01*
X0035313Y0026224D02*
X0039904Y0026224D01*
X0039884Y0026186D02*
X0035265Y0026186D01*
X0035218Y0026148D02*
X0039863Y0026148D01*
X0039842Y0026110D02*
X0035170Y0026110D01*
X0035122Y0026072D02*
X0039821Y0026072D01*
X0039800Y0026034D02*
X0035074Y0026034D01*
X0035026Y0025997D02*
X0039779Y0025997D01*
X0039758Y0025959D02*
X0034979Y0025959D01*
X0034930Y0025921D02*
X0039737Y0025921D01*
X0039716Y0025883D02*
X0034862Y0025883D01*
X0034794Y0025845D02*
X0039695Y0025845D01*
X0039666Y0025807D02*
X0034725Y0025807D01*
X0034657Y0025769D02*
X0039637Y0025769D01*
X0039608Y0025731D02*
X0034589Y0025731D01*
X0034521Y0025694D02*
X0039579Y0025694D01*
X0039550Y0025656D02*
X0034453Y0025656D01*
X0034385Y0025618D02*
X0039521Y0025618D01*
X0039492Y0025580D02*
X0034317Y0025580D01*
X0034249Y0025542D02*
X0039463Y0025542D01*
X0039434Y0025504D02*
X0034181Y0025504D01*
X0034113Y0025466D02*
X0039405Y0025466D01*
X0039376Y0025428D02*
X0034045Y0025428D01*
X0033955Y0025391D02*
X0039347Y0025391D01*
X0039318Y0025353D02*
X0033850Y0025353D01*
X0033745Y0025315D02*
X0039289Y0025315D01*
X0039260Y0025277D02*
X0033639Y0025277D01*
X0033534Y0025239D02*
X0039231Y0025239D01*
X0039202Y0025201D02*
X0033429Y0025201D01*
X0033324Y0025163D02*
X0039173Y0025163D01*
X0039144Y0025125D02*
X0033218Y0025125D01*
X0033113Y0025087D02*
X0039115Y0025087D01*
X0039086Y0025050D02*
X0032989Y0025050D01*
X0032785Y0025012D02*
X0039058Y0025012D01*
X0039029Y0024974D02*
X0032580Y0024974D01*
X0032376Y0024936D02*
X0039000Y0024936D01*
X0038971Y0024898D02*
X0032172Y0024898D01*
X0031746Y0024860D02*
X0038942Y0024860D01*
X0038913Y0024822D02*
X0030946Y0024822D01*
X0030946Y0024784D02*
X0038884Y0024784D01*
X0038855Y0024747D02*
X0030946Y0024747D01*
X0030946Y0024709D02*
X0038826Y0024709D01*
X0038794Y0024671D02*
X0030946Y0024671D01*
X0030946Y0024633D02*
X0038755Y0024633D01*
X0038716Y0024595D02*
X0030946Y0024595D01*
X0030946Y0024557D02*
X0038677Y0024557D01*
X0038638Y0024519D02*
X0030946Y0024519D01*
X0030946Y0024481D02*
X0038599Y0024481D01*
X0038559Y0024443D02*
X0030946Y0024443D01*
X0030946Y0024406D02*
X0038520Y0024406D01*
X0038481Y0024368D02*
X0030946Y0024368D01*
X0030946Y0024330D02*
X0038442Y0024330D01*
X0038403Y0024292D02*
X0030946Y0024292D01*
X0030946Y0024254D02*
X0038364Y0024254D01*
X0038325Y0024216D02*
X0030946Y0024216D01*
X0030946Y0024178D02*
X0038285Y0024178D01*
X0038246Y0024140D02*
X0030946Y0024140D01*
X0030946Y0024103D02*
X0038207Y0024103D01*
X0038168Y0024065D02*
X0030946Y0024065D01*
X0030946Y0024027D02*
X0038129Y0024027D01*
X0038090Y0023989D02*
X0030946Y0023989D01*
X0030946Y0023951D02*
X0038051Y0023951D01*
X0038011Y0023913D02*
X0030946Y0023913D01*
X0030946Y0023875D02*
X0037972Y0023875D01*
X0037933Y0023837D02*
X0030946Y0023837D01*
X0030946Y0023799D02*
X0037894Y0023799D01*
X0037855Y0023762D02*
X0030946Y0023762D01*
X0030946Y0023724D02*
X0037816Y0023724D01*
X0037777Y0023686D02*
X0030946Y0023686D01*
X0030946Y0023648D02*
X0037733Y0023648D01*
X0037680Y0023610D02*
X0030946Y0023610D01*
X0030946Y0023572D02*
X0037627Y0023572D01*
X0037574Y0023534D02*
X0030946Y0023534D01*
X0030946Y0023496D02*
X0037521Y0023496D01*
X0037468Y0023459D02*
X0030946Y0023459D01*
X0030946Y0023421D02*
X0037415Y0023421D01*
X0037362Y0023383D02*
X0030946Y0023383D01*
X0030946Y0023345D02*
X0037309Y0023345D01*
X0037256Y0023307D02*
X0030946Y0023307D01*
X0030946Y0023269D02*
X0037203Y0023269D01*
X0037150Y0023231D02*
X0030946Y0023231D01*
X0030946Y0023193D02*
X0037097Y0023193D01*
X0037044Y0023155D02*
X0030946Y0023155D01*
X0030946Y0023118D02*
X0036991Y0023118D01*
X0036938Y0023080D02*
X0030946Y0023080D01*
X0030946Y0023042D02*
X0036885Y0023042D01*
X0036832Y0023004D02*
X0030946Y0023004D01*
X0030946Y0022966D02*
X0036779Y0022966D01*
X0036726Y0022928D02*
X0030946Y0022928D01*
X0030946Y0022890D02*
X0036673Y0022890D01*
X0036620Y0022852D02*
X0030946Y0022852D01*
X0030946Y0022815D02*
X0036567Y0022815D01*
X0036498Y0022777D02*
X0030946Y0022777D01*
X0030946Y0022739D02*
X0036424Y0022739D01*
X0036349Y0022701D02*
X0030946Y0022701D01*
X0030946Y0022663D02*
X0036275Y0022663D01*
X0036201Y0022625D02*
X0030946Y0022625D01*
X0030946Y0022587D02*
X0036127Y0022587D01*
X0036053Y0022549D02*
X0030946Y0022549D01*
X0030946Y0022512D02*
X0035978Y0022512D01*
X0035904Y0022474D02*
X0030946Y0022474D01*
X0030946Y0022436D02*
X0035830Y0022436D01*
X0035756Y0022398D02*
X0030946Y0022398D01*
X0030946Y0022360D02*
X0035681Y0022360D01*
X0035607Y0022322D02*
X0030946Y0022322D01*
X0030946Y0022284D02*
X0035533Y0022284D01*
X0035459Y0022246D02*
X0030946Y0022246D01*
X0030946Y0022208D02*
X0035385Y0022208D01*
X0035310Y0022171D02*
X0030946Y0022171D01*
X0030946Y0022133D02*
X0035230Y0022133D01*
X0035117Y0022095D02*
X0030946Y0022095D01*
X0030946Y0022057D02*
X0035004Y0022057D01*
X0034891Y0022019D02*
X0030946Y0022019D01*
X0030946Y0021981D02*
X0034778Y0021981D01*
X0034665Y0021943D02*
X0030946Y0021943D01*
X0030946Y0021905D02*
X0034552Y0021905D01*
X0034439Y0021868D02*
X0030946Y0021868D01*
X0030946Y0021830D02*
X0034326Y0021830D01*
X0034213Y0021792D02*
X0030946Y0021792D01*
X0030946Y0021754D02*
X0034100Y0021754D01*
X0033987Y0021716D02*
X0030946Y0021716D01*
X0030946Y0021678D02*
X0033874Y0021678D01*
X0033674Y0021640D02*
X0030946Y0021640D01*
X0030946Y0021602D02*
X0033459Y0021602D01*
X0033245Y0021564D02*
X0030946Y0021564D01*
X0030946Y0021527D02*
X0033031Y0021527D01*
X0032816Y0021489D02*
X0030946Y0021489D01*
X0030946Y0021451D02*
X0032602Y0021451D01*
X0032245Y0021413D02*
X0030946Y0021413D01*
M02*
