G75*
%MOIN*%
%OFA0B0*%
%FSLAX25Y25*%
%IPPOS*%
%LPD*%
%AMOC8*
5,1,8,0,0,1.08239X$1,22.5*
%
%ADD10C,0.00600*%
%ADD11C,0.00039*%
D10*
X0001300Y0001300D02*
X0001300Y0061300D01*
X0061300Y0061300D01*
X0061300Y0001300D01*
X0001300Y0001300D01*
D11*
X0025493Y0023426D02*
X0037107Y0023426D01*
X0037107Y0039174D01*
X0025493Y0039174D01*
X0025493Y0023426D01*
X0024056Y0027087D02*
X0018387Y0027087D01*
X0017875Y0027757D02*
X0017877Y0027813D01*
X0017883Y0027868D01*
X0017893Y0027922D01*
X0017906Y0027976D01*
X0017924Y0028029D01*
X0017945Y0028080D01*
X0017969Y0028130D01*
X0017997Y0028178D01*
X0018029Y0028224D01*
X0018063Y0028268D01*
X0018101Y0028309D01*
X0018141Y0028347D01*
X0018184Y0028382D01*
X0018229Y0028414D01*
X0018277Y0028443D01*
X0018326Y0028469D01*
X0018377Y0028491D01*
X0018429Y0028509D01*
X0018483Y0028523D01*
X0018538Y0028534D01*
X0018593Y0028541D01*
X0018648Y0028544D01*
X0018704Y0028543D01*
X0018759Y0028538D01*
X0018814Y0028529D01*
X0018868Y0028517D01*
X0018921Y0028500D01*
X0018973Y0028480D01*
X0019023Y0028456D01*
X0019071Y0028429D01*
X0019118Y0028399D01*
X0019162Y0028365D01*
X0019204Y0028328D01*
X0019242Y0028288D01*
X0019279Y0028246D01*
X0019312Y0028201D01*
X0019341Y0028155D01*
X0019368Y0028106D01*
X0019390Y0028055D01*
X0019410Y0028003D01*
X0019425Y0027949D01*
X0019437Y0027895D01*
X0019445Y0027840D01*
X0019449Y0027785D01*
X0019449Y0027729D01*
X0019445Y0027674D01*
X0019437Y0027619D01*
X0019425Y0027565D01*
X0019410Y0027511D01*
X0019390Y0027459D01*
X0019368Y0027408D01*
X0019341Y0027359D01*
X0019312Y0027313D01*
X0019279Y0027268D01*
X0019242Y0027226D01*
X0019204Y0027186D01*
X0019162Y0027149D01*
X0019118Y0027115D01*
X0019071Y0027085D01*
X0019023Y0027058D01*
X0018973Y0027034D01*
X0018921Y0027014D01*
X0018868Y0026997D01*
X0018814Y0026985D01*
X0018759Y0026976D01*
X0018704Y0026971D01*
X0018648Y0026970D01*
X0018593Y0026973D01*
X0018538Y0026980D01*
X0018483Y0026991D01*
X0018429Y0027005D01*
X0018377Y0027023D01*
X0018326Y0027045D01*
X0018277Y0027071D01*
X0018229Y0027100D01*
X0018184Y0027132D01*
X0018141Y0027167D01*
X0018101Y0027205D01*
X0018063Y0027246D01*
X0018029Y0027290D01*
X0017997Y0027336D01*
X0017969Y0027384D01*
X0017945Y0027434D01*
X0017924Y0027485D01*
X0017906Y0027538D01*
X0017893Y0027592D01*
X0017883Y0027646D01*
X0017877Y0027701D01*
X0017875Y0027757D01*
X0022836Y0027639D02*
X0022838Y0027695D01*
X0022844Y0027750D01*
X0022854Y0027804D01*
X0022867Y0027858D01*
X0022885Y0027911D01*
X0022906Y0027962D01*
X0022930Y0028012D01*
X0022958Y0028060D01*
X0022990Y0028106D01*
X0023024Y0028150D01*
X0023062Y0028191D01*
X0023102Y0028229D01*
X0023145Y0028264D01*
X0023190Y0028296D01*
X0023238Y0028325D01*
X0023287Y0028351D01*
X0023338Y0028373D01*
X0023390Y0028391D01*
X0023444Y0028405D01*
X0023499Y0028416D01*
X0023554Y0028423D01*
X0023609Y0028426D01*
X0023665Y0028425D01*
X0023720Y0028420D01*
X0023775Y0028411D01*
X0023829Y0028399D01*
X0023882Y0028382D01*
X0023934Y0028362D01*
X0023984Y0028338D01*
X0024032Y0028311D01*
X0024079Y0028281D01*
X0024123Y0028247D01*
X0024165Y0028210D01*
X0024203Y0028170D01*
X0024240Y0028128D01*
X0024273Y0028083D01*
X0024302Y0028037D01*
X0024329Y0027988D01*
X0024351Y0027937D01*
X0024371Y0027885D01*
X0024386Y0027831D01*
X0024398Y0027777D01*
X0024406Y0027722D01*
X0024410Y0027667D01*
X0024410Y0027611D01*
X0024406Y0027556D01*
X0024398Y0027501D01*
X0024386Y0027447D01*
X0024371Y0027393D01*
X0024351Y0027341D01*
X0024329Y0027290D01*
X0024302Y0027241D01*
X0024273Y0027195D01*
X0024240Y0027150D01*
X0024203Y0027108D01*
X0024165Y0027068D01*
X0024123Y0027031D01*
X0024079Y0026997D01*
X0024032Y0026967D01*
X0023984Y0026940D01*
X0023934Y0026916D01*
X0023882Y0026896D01*
X0023829Y0026879D01*
X0023775Y0026867D01*
X0023720Y0026858D01*
X0023665Y0026853D01*
X0023609Y0026852D01*
X0023554Y0026855D01*
X0023499Y0026862D01*
X0023444Y0026873D01*
X0023390Y0026887D01*
X0023338Y0026905D01*
X0023287Y0026927D01*
X0023238Y0026953D01*
X0023190Y0026982D01*
X0023145Y0027014D01*
X0023102Y0027049D01*
X0023062Y0027087D01*
X0023024Y0027128D01*
X0022990Y0027172D01*
X0022958Y0027218D01*
X0022930Y0027266D01*
X0022906Y0027316D01*
X0022885Y0027367D01*
X0022867Y0027420D01*
X0022854Y0027474D01*
X0022844Y0027528D01*
X0022838Y0027583D01*
X0022836Y0027639D01*
X0023230Y0035631D02*
X0023232Y0035687D01*
X0023238Y0035742D01*
X0023248Y0035796D01*
X0023261Y0035850D01*
X0023279Y0035903D01*
X0023300Y0035954D01*
X0023324Y0036004D01*
X0023352Y0036052D01*
X0023384Y0036098D01*
X0023418Y0036142D01*
X0023456Y0036183D01*
X0023496Y0036221D01*
X0023539Y0036256D01*
X0023584Y0036288D01*
X0023632Y0036317D01*
X0023681Y0036343D01*
X0023732Y0036365D01*
X0023784Y0036383D01*
X0023838Y0036397D01*
X0023893Y0036408D01*
X0023948Y0036415D01*
X0024003Y0036418D01*
X0024059Y0036417D01*
X0024114Y0036412D01*
X0024169Y0036403D01*
X0024223Y0036391D01*
X0024276Y0036374D01*
X0024328Y0036354D01*
X0024378Y0036330D01*
X0024426Y0036303D01*
X0024473Y0036273D01*
X0024517Y0036239D01*
X0024559Y0036202D01*
X0024597Y0036162D01*
X0024634Y0036120D01*
X0024667Y0036075D01*
X0024696Y0036029D01*
X0024723Y0035980D01*
X0024745Y0035929D01*
X0024765Y0035877D01*
X0024780Y0035823D01*
X0024792Y0035769D01*
X0024800Y0035714D01*
X0024804Y0035659D01*
X0024804Y0035603D01*
X0024800Y0035548D01*
X0024792Y0035493D01*
X0024780Y0035439D01*
X0024765Y0035385D01*
X0024745Y0035333D01*
X0024723Y0035282D01*
X0024696Y0035233D01*
X0024667Y0035187D01*
X0024634Y0035142D01*
X0024597Y0035100D01*
X0024559Y0035060D01*
X0024517Y0035023D01*
X0024473Y0034989D01*
X0024426Y0034959D01*
X0024378Y0034932D01*
X0024328Y0034908D01*
X0024276Y0034888D01*
X0024223Y0034871D01*
X0024169Y0034859D01*
X0024114Y0034850D01*
X0024059Y0034845D01*
X0024003Y0034844D01*
X0023948Y0034847D01*
X0023893Y0034854D01*
X0023838Y0034865D01*
X0023784Y0034879D01*
X0023732Y0034897D01*
X0023681Y0034919D01*
X0023632Y0034945D01*
X0023584Y0034974D01*
X0023539Y0035006D01*
X0023496Y0035041D01*
X0023456Y0035079D01*
X0023418Y0035120D01*
X0023384Y0035164D01*
X0023352Y0035210D01*
X0023324Y0035258D01*
X0023300Y0035308D01*
X0023279Y0035359D01*
X0023261Y0035412D01*
X0023248Y0035466D01*
X0023238Y0035520D01*
X0023232Y0035575D01*
X0023230Y0035631D01*
X0024489Y0036143D02*
X0018623Y0036143D01*
X0018269Y0035631D02*
X0018271Y0035687D01*
X0018277Y0035742D01*
X0018287Y0035796D01*
X0018300Y0035850D01*
X0018318Y0035903D01*
X0018339Y0035954D01*
X0018363Y0036004D01*
X0018391Y0036052D01*
X0018423Y0036098D01*
X0018457Y0036142D01*
X0018495Y0036183D01*
X0018535Y0036221D01*
X0018578Y0036256D01*
X0018623Y0036288D01*
X0018671Y0036317D01*
X0018720Y0036343D01*
X0018771Y0036365D01*
X0018823Y0036383D01*
X0018877Y0036397D01*
X0018932Y0036408D01*
X0018987Y0036415D01*
X0019042Y0036418D01*
X0019098Y0036417D01*
X0019153Y0036412D01*
X0019208Y0036403D01*
X0019262Y0036391D01*
X0019315Y0036374D01*
X0019367Y0036354D01*
X0019417Y0036330D01*
X0019465Y0036303D01*
X0019512Y0036273D01*
X0019556Y0036239D01*
X0019598Y0036202D01*
X0019636Y0036162D01*
X0019673Y0036120D01*
X0019706Y0036075D01*
X0019735Y0036029D01*
X0019762Y0035980D01*
X0019784Y0035929D01*
X0019804Y0035877D01*
X0019819Y0035823D01*
X0019831Y0035769D01*
X0019839Y0035714D01*
X0019843Y0035659D01*
X0019843Y0035603D01*
X0019839Y0035548D01*
X0019831Y0035493D01*
X0019819Y0035439D01*
X0019804Y0035385D01*
X0019784Y0035333D01*
X0019762Y0035282D01*
X0019735Y0035233D01*
X0019706Y0035187D01*
X0019673Y0035142D01*
X0019636Y0035100D01*
X0019598Y0035060D01*
X0019556Y0035023D01*
X0019512Y0034989D01*
X0019465Y0034959D01*
X0019417Y0034932D01*
X0019367Y0034908D01*
X0019315Y0034888D01*
X0019262Y0034871D01*
X0019208Y0034859D01*
X0019153Y0034850D01*
X0019098Y0034845D01*
X0019042Y0034844D01*
X0018987Y0034847D01*
X0018932Y0034854D01*
X0018877Y0034865D01*
X0018823Y0034879D01*
X0018771Y0034897D01*
X0018720Y0034919D01*
X0018671Y0034945D01*
X0018623Y0034974D01*
X0018578Y0035006D01*
X0018535Y0035041D01*
X0018495Y0035079D01*
X0018457Y0035120D01*
X0018423Y0035164D01*
X0018391Y0035210D01*
X0018363Y0035258D01*
X0018339Y0035308D01*
X0018318Y0035359D01*
X0018300Y0035412D01*
X0018287Y0035466D01*
X0018277Y0035520D01*
X0018271Y0035575D01*
X0018269Y0035631D01*
X0038544Y0035513D02*
X0038611Y0034816D01*
X0038660Y0034117D01*
X0038694Y0033418D01*
X0038710Y0032718D01*
X0038710Y0032018D01*
X0038693Y0031318D01*
X0038660Y0030619D01*
X0038610Y0029920D01*
X0038543Y0029224D01*
X0038460Y0028528D01*
X0038360Y0027835D01*
X0038244Y0027145D01*
X0038111Y0026458D01*
X0038111Y0026457D02*
X0043977Y0026457D01*
X0042757Y0026969D02*
X0042759Y0027025D01*
X0042765Y0027080D01*
X0042775Y0027134D01*
X0042788Y0027188D01*
X0042806Y0027241D01*
X0042827Y0027292D01*
X0042851Y0027342D01*
X0042879Y0027390D01*
X0042911Y0027436D01*
X0042945Y0027480D01*
X0042983Y0027521D01*
X0043023Y0027559D01*
X0043066Y0027594D01*
X0043111Y0027626D01*
X0043159Y0027655D01*
X0043208Y0027681D01*
X0043259Y0027703D01*
X0043311Y0027721D01*
X0043365Y0027735D01*
X0043420Y0027746D01*
X0043475Y0027753D01*
X0043530Y0027756D01*
X0043586Y0027755D01*
X0043641Y0027750D01*
X0043696Y0027741D01*
X0043750Y0027729D01*
X0043803Y0027712D01*
X0043855Y0027692D01*
X0043905Y0027668D01*
X0043953Y0027641D01*
X0044000Y0027611D01*
X0044044Y0027577D01*
X0044086Y0027540D01*
X0044124Y0027500D01*
X0044161Y0027458D01*
X0044194Y0027413D01*
X0044223Y0027367D01*
X0044250Y0027318D01*
X0044272Y0027267D01*
X0044292Y0027215D01*
X0044307Y0027161D01*
X0044319Y0027107D01*
X0044327Y0027052D01*
X0044331Y0026997D01*
X0044331Y0026941D01*
X0044327Y0026886D01*
X0044319Y0026831D01*
X0044307Y0026777D01*
X0044292Y0026723D01*
X0044272Y0026671D01*
X0044250Y0026620D01*
X0044223Y0026571D01*
X0044194Y0026525D01*
X0044161Y0026480D01*
X0044124Y0026438D01*
X0044086Y0026398D01*
X0044044Y0026361D01*
X0044000Y0026327D01*
X0043953Y0026297D01*
X0043905Y0026270D01*
X0043855Y0026246D01*
X0043803Y0026226D01*
X0043750Y0026209D01*
X0043696Y0026197D01*
X0043641Y0026188D01*
X0043586Y0026183D01*
X0043530Y0026182D01*
X0043475Y0026185D01*
X0043420Y0026192D01*
X0043365Y0026203D01*
X0043311Y0026217D01*
X0043259Y0026235D01*
X0043208Y0026257D01*
X0043159Y0026283D01*
X0043111Y0026312D01*
X0043066Y0026344D01*
X0043023Y0026379D01*
X0042983Y0026417D01*
X0042945Y0026458D01*
X0042911Y0026502D01*
X0042879Y0026548D01*
X0042851Y0026596D01*
X0042827Y0026646D01*
X0042806Y0026697D01*
X0042788Y0026750D01*
X0042775Y0026804D01*
X0042765Y0026858D01*
X0042759Y0026913D01*
X0042757Y0026969D01*
X0037796Y0026969D02*
X0037798Y0027025D01*
X0037804Y0027080D01*
X0037814Y0027134D01*
X0037827Y0027188D01*
X0037845Y0027241D01*
X0037866Y0027292D01*
X0037890Y0027342D01*
X0037918Y0027390D01*
X0037950Y0027436D01*
X0037984Y0027480D01*
X0038022Y0027521D01*
X0038062Y0027559D01*
X0038105Y0027594D01*
X0038150Y0027626D01*
X0038198Y0027655D01*
X0038247Y0027681D01*
X0038298Y0027703D01*
X0038350Y0027721D01*
X0038404Y0027735D01*
X0038459Y0027746D01*
X0038514Y0027753D01*
X0038569Y0027756D01*
X0038625Y0027755D01*
X0038680Y0027750D01*
X0038735Y0027741D01*
X0038789Y0027729D01*
X0038842Y0027712D01*
X0038894Y0027692D01*
X0038944Y0027668D01*
X0038992Y0027641D01*
X0039039Y0027611D01*
X0039083Y0027577D01*
X0039125Y0027540D01*
X0039163Y0027500D01*
X0039200Y0027458D01*
X0039233Y0027413D01*
X0039262Y0027367D01*
X0039289Y0027318D01*
X0039311Y0027267D01*
X0039331Y0027215D01*
X0039346Y0027161D01*
X0039358Y0027107D01*
X0039366Y0027052D01*
X0039370Y0026997D01*
X0039370Y0026941D01*
X0039366Y0026886D01*
X0039358Y0026831D01*
X0039346Y0026777D01*
X0039331Y0026723D01*
X0039311Y0026671D01*
X0039289Y0026620D01*
X0039262Y0026571D01*
X0039233Y0026525D01*
X0039200Y0026480D01*
X0039163Y0026438D01*
X0039125Y0026398D01*
X0039083Y0026361D01*
X0039039Y0026327D01*
X0038992Y0026297D01*
X0038944Y0026270D01*
X0038894Y0026246D01*
X0038842Y0026226D01*
X0038789Y0026209D01*
X0038735Y0026197D01*
X0038680Y0026188D01*
X0038625Y0026183D01*
X0038569Y0026182D01*
X0038514Y0026185D01*
X0038459Y0026192D01*
X0038404Y0026203D01*
X0038350Y0026217D01*
X0038298Y0026235D01*
X0038247Y0026257D01*
X0038198Y0026283D01*
X0038150Y0026312D01*
X0038105Y0026344D01*
X0038062Y0026379D01*
X0038022Y0026417D01*
X0037984Y0026458D01*
X0037950Y0026502D01*
X0037918Y0026548D01*
X0037890Y0026596D01*
X0037866Y0026646D01*
X0037845Y0026697D01*
X0037827Y0026750D01*
X0037814Y0026804D01*
X0037804Y0026858D01*
X0037798Y0026913D01*
X0037796Y0026969D01*
X0018387Y0027088D02*
X0018289Y0027415D01*
X0018199Y0027744D01*
X0018117Y0028076D01*
X0018044Y0028410D01*
X0017978Y0028745D01*
X0017921Y0029082D01*
X0017871Y0029420D01*
X0017831Y0029759D01*
X0017798Y0030099D01*
X0017774Y0030440D01*
X0017757Y0030781D01*
X0017750Y0031122D01*
X0017750Y0031464D01*
X0017759Y0031805D01*
X0017776Y0032147D01*
X0017802Y0032487D01*
X0017836Y0032827D01*
X0017878Y0033166D01*
X0017928Y0033504D01*
X0017987Y0033841D01*
X0018054Y0034176D01*
X0018128Y0034509D01*
X0018211Y0034840D01*
X0018302Y0035170D01*
X0018401Y0035497D01*
X0018508Y0035821D01*
X0018623Y0036143D01*
X0044213Y0035512D02*
X0044311Y0035185D01*
X0044401Y0034856D01*
X0044483Y0034524D01*
X0044556Y0034190D01*
X0044622Y0033855D01*
X0044679Y0033518D01*
X0044729Y0033180D01*
X0044769Y0032841D01*
X0044802Y0032501D01*
X0044826Y0032160D01*
X0044843Y0031819D01*
X0044850Y0031478D01*
X0044850Y0031136D01*
X0044841Y0030795D01*
X0044824Y0030453D01*
X0044798Y0030113D01*
X0044764Y0029773D01*
X0044722Y0029434D01*
X0044672Y0029096D01*
X0044613Y0028759D01*
X0044546Y0028424D01*
X0044472Y0028091D01*
X0044389Y0027760D01*
X0044298Y0027430D01*
X0044199Y0027103D01*
X0044092Y0026779D01*
X0043977Y0026457D01*
X0043151Y0034843D02*
X0043153Y0034899D01*
X0043159Y0034954D01*
X0043169Y0035008D01*
X0043182Y0035062D01*
X0043200Y0035115D01*
X0043221Y0035166D01*
X0043245Y0035216D01*
X0043273Y0035264D01*
X0043305Y0035310D01*
X0043339Y0035354D01*
X0043377Y0035395D01*
X0043417Y0035433D01*
X0043460Y0035468D01*
X0043505Y0035500D01*
X0043553Y0035529D01*
X0043602Y0035555D01*
X0043653Y0035577D01*
X0043705Y0035595D01*
X0043759Y0035609D01*
X0043814Y0035620D01*
X0043869Y0035627D01*
X0043924Y0035630D01*
X0043980Y0035629D01*
X0044035Y0035624D01*
X0044090Y0035615D01*
X0044144Y0035603D01*
X0044197Y0035586D01*
X0044249Y0035566D01*
X0044299Y0035542D01*
X0044347Y0035515D01*
X0044394Y0035485D01*
X0044438Y0035451D01*
X0044480Y0035414D01*
X0044518Y0035374D01*
X0044555Y0035332D01*
X0044588Y0035287D01*
X0044617Y0035241D01*
X0044644Y0035192D01*
X0044666Y0035141D01*
X0044686Y0035089D01*
X0044701Y0035035D01*
X0044713Y0034981D01*
X0044721Y0034926D01*
X0044725Y0034871D01*
X0044725Y0034815D01*
X0044721Y0034760D01*
X0044713Y0034705D01*
X0044701Y0034651D01*
X0044686Y0034597D01*
X0044666Y0034545D01*
X0044644Y0034494D01*
X0044617Y0034445D01*
X0044588Y0034399D01*
X0044555Y0034354D01*
X0044518Y0034312D01*
X0044480Y0034272D01*
X0044438Y0034235D01*
X0044394Y0034201D01*
X0044347Y0034171D01*
X0044299Y0034144D01*
X0044249Y0034120D01*
X0044197Y0034100D01*
X0044144Y0034083D01*
X0044090Y0034071D01*
X0044035Y0034062D01*
X0043980Y0034057D01*
X0043924Y0034056D01*
X0043869Y0034059D01*
X0043814Y0034066D01*
X0043759Y0034077D01*
X0043705Y0034091D01*
X0043653Y0034109D01*
X0043602Y0034131D01*
X0043553Y0034157D01*
X0043505Y0034186D01*
X0043460Y0034218D01*
X0043417Y0034253D01*
X0043377Y0034291D01*
X0043339Y0034332D01*
X0043305Y0034376D01*
X0043273Y0034422D01*
X0043245Y0034470D01*
X0043221Y0034520D01*
X0043200Y0034571D01*
X0043182Y0034624D01*
X0043169Y0034678D01*
X0043159Y0034732D01*
X0043153Y0034787D01*
X0043151Y0034843D01*
X0044213Y0035513D02*
X0038544Y0035513D01*
X0038190Y0034961D02*
X0038192Y0035017D01*
X0038198Y0035072D01*
X0038208Y0035126D01*
X0038221Y0035180D01*
X0038239Y0035233D01*
X0038260Y0035284D01*
X0038284Y0035334D01*
X0038312Y0035382D01*
X0038344Y0035428D01*
X0038378Y0035472D01*
X0038416Y0035513D01*
X0038456Y0035551D01*
X0038499Y0035586D01*
X0038544Y0035618D01*
X0038592Y0035647D01*
X0038641Y0035673D01*
X0038692Y0035695D01*
X0038744Y0035713D01*
X0038798Y0035727D01*
X0038853Y0035738D01*
X0038908Y0035745D01*
X0038963Y0035748D01*
X0039019Y0035747D01*
X0039074Y0035742D01*
X0039129Y0035733D01*
X0039183Y0035721D01*
X0039236Y0035704D01*
X0039288Y0035684D01*
X0039338Y0035660D01*
X0039386Y0035633D01*
X0039433Y0035603D01*
X0039477Y0035569D01*
X0039519Y0035532D01*
X0039557Y0035492D01*
X0039594Y0035450D01*
X0039627Y0035405D01*
X0039656Y0035359D01*
X0039683Y0035310D01*
X0039705Y0035259D01*
X0039725Y0035207D01*
X0039740Y0035153D01*
X0039752Y0035099D01*
X0039760Y0035044D01*
X0039764Y0034989D01*
X0039764Y0034933D01*
X0039760Y0034878D01*
X0039752Y0034823D01*
X0039740Y0034769D01*
X0039725Y0034715D01*
X0039705Y0034663D01*
X0039683Y0034612D01*
X0039656Y0034563D01*
X0039627Y0034517D01*
X0039594Y0034472D01*
X0039557Y0034430D01*
X0039519Y0034390D01*
X0039477Y0034353D01*
X0039433Y0034319D01*
X0039386Y0034289D01*
X0039338Y0034262D01*
X0039288Y0034238D01*
X0039236Y0034218D01*
X0039183Y0034201D01*
X0039129Y0034189D01*
X0039074Y0034180D01*
X0039019Y0034175D01*
X0038963Y0034174D01*
X0038908Y0034177D01*
X0038853Y0034184D01*
X0038798Y0034195D01*
X0038744Y0034209D01*
X0038692Y0034227D01*
X0038641Y0034249D01*
X0038592Y0034275D01*
X0038544Y0034304D01*
X0038499Y0034336D01*
X0038456Y0034371D01*
X0038416Y0034409D01*
X0038378Y0034450D01*
X0038344Y0034494D01*
X0038312Y0034540D01*
X0038284Y0034588D01*
X0038260Y0034638D01*
X0038239Y0034689D01*
X0038221Y0034742D01*
X0038208Y0034796D01*
X0038198Y0034850D01*
X0038192Y0034905D01*
X0038190Y0034961D01*
X0024489Y0036142D02*
X0024356Y0035455D01*
X0024240Y0034765D01*
X0024140Y0034072D01*
X0024057Y0033376D01*
X0023990Y0032680D01*
X0023940Y0031981D01*
X0023907Y0031282D01*
X0023890Y0030582D01*
X0023890Y0029882D01*
X0023906Y0029182D01*
X0023940Y0028483D01*
X0023989Y0027784D01*
X0024056Y0027087D01*
X0005670Y0051300D02*
X0005672Y0051450D01*
X0005678Y0051600D01*
X0005688Y0051749D01*
X0005702Y0051898D01*
X0005720Y0052047D01*
X0005742Y0052196D01*
X0005767Y0052343D01*
X0005797Y0052490D01*
X0005831Y0052636D01*
X0005868Y0052781D01*
X0005910Y0052925D01*
X0005955Y0053068D01*
X0006004Y0053210D01*
X0006057Y0053350D01*
X0006113Y0053489D01*
X0006173Y0053626D01*
X0006237Y0053762D01*
X0006304Y0053896D01*
X0006375Y0054028D01*
X0006449Y0054158D01*
X0006527Y0054286D01*
X0006608Y0054412D01*
X0006693Y0054536D01*
X0006781Y0054658D01*
X0006872Y0054777D01*
X0006966Y0054893D01*
X0007063Y0055007D01*
X0007163Y0055119D01*
X0007266Y0055228D01*
X0007372Y0055334D01*
X0007481Y0055437D01*
X0007593Y0055537D01*
X0007707Y0055634D01*
X0007823Y0055728D01*
X0007942Y0055819D01*
X0008064Y0055907D01*
X0008188Y0055992D01*
X0008314Y0056073D01*
X0008442Y0056151D01*
X0008572Y0056225D01*
X0008704Y0056296D01*
X0008838Y0056363D01*
X0008974Y0056427D01*
X0009111Y0056487D01*
X0009250Y0056543D01*
X0009390Y0056596D01*
X0009532Y0056645D01*
X0009675Y0056690D01*
X0009819Y0056732D01*
X0009964Y0056769D01*
X0010110Y0056803D01*
X0010257Y0056833D01*
X0010404Y0056858D01*
X0010553Y0056880D01*
X0010702Y0056898D01*
X0010851Y0056912D01*
X0011000Y0056922D01*
X0011150Y0056928D01*
X0011300Y0056930D01*
X0011450Y0056928D01*
X0011600Y0056922D01*
X0011749Y0056912D01*
X0011898Y0056898D01*
X0012047Y0056880D01*
X0012196Y0056858D01*
X0012343Y0056833D01*
X0012490Y0056803D01*
X0012636Y0056769D01*
X0012781Y0056732D01*
X0012925Y0056690D01*
X0013068Y0056645D01*
X0013210Y0056596D01*
X0013350Y0056543D01*
X0013489Y0056487D01*
X0013626Y0056427D01*
X0013762Y0056363D01*
X0013896Y0056296D01*
X0014028Y0056225D01*
X0014158Y0056151D01*
X0014286Y0056073D01*
X0014412Y0055992D01*
X0014536Y0055907D01*
X0014658Y0055819D01*
X0014777Y0055728D01*
X0014893Y0055634D01*
X0015007Y0055537D01*
X0015119Y0055437D01*
X0015228Y0055334D01*
X0015334Y0055228D01*
X0015437Y0055119D01*
X0015537Y0055007D01*
X0015634Y0054893D01*
X0015728Y0054777D01*
X0015819Y0054658D01*
X0015907Y0054536D01*
X0015992Y0054412D01*
X0016073Y0054286D01*
X0016151Y0054158D01*
X0016225Y0054028D01*
X0016296Y0053896D01*
X0016363Y0053762D01*
X0016427Y0053626D01*
X0016487Y0053489D01*
X0016543Y0053350D01*
X0016596Y0053210D01*
X0016645Y0053068D01*
X0016690Y0052925D01*
X0016732Y0052781D01*
X0016769Y0052636D01*
X0016803Y0052490D01*
X0016833Y0052343D01*
X0016858Y0052196D01*
X0016880Y0052047D01*
X0016898Y0051898D01*
X0016912Y0051749D01*
X0016922Y0051600D01*
X0016928Y0051450D01*
X0016930Y0051300D01*
X0016928Y0051150D01*
X0016922Y0051000D01*
X0016912Y0050851D01*
X0016898Y0050702D01*
X0016880Y0050553D01*
X0016858Y0050404D01*
X0016833Y0050257D01*
X0016803Y0050110D01*
X0016769Y0049964D01*
X0016732Y0049819D01*
X0016690Y0049675D01*
X0016645Y0049532D01*
X0016596Y0049390D01*
X0016543Y0049250D01*
X0016487Y0049111D01*
X0016427Y0048974D01*
X0016363Y0048838D01*
X0016296Y0048704D01*
X0016225Y0048572D01*
X0016151Y0048442D01*
X0016073Y0048314D01*
X0015992Y0048188D01*
X0015907Y0048064D01*
X0015819Y0047942D01*
X0015728Y0047823D01*
X0015634Y0047707D01*
X0015537Y0047593D01*
X0015437Y0047481D01*
X0015334Y0047372D01*
X0015228Y0047266D01*
X0015119Y0047163D01*
X0015007Y0047063D01*
X0014893Y0046966D01*
X0014777Y0046872D01*
X0014658Y0046781D01*
X0014536Y0046693D01*
X0014412Y0046608D01*
X0014286Y0046527D01*
X0014158Y0046449D01*
X0014028Y0046375D01*
X0013896Y0046304D01*
X0013762Y0046237D01*
X0013626Y0046173D01*
X0013489Y0046113D01*
X0013350Y0046057D01*
X0013210Y0046004D01*
X0013068Y0045955D01*
X0012925Y0045910D01*
X0012781Y0045868D01*
X0012636Y0045831D01*
X0012490Y0045797D01*
X0012343Y0045767D01*
X0012196Y0045742D01*
X0012047Y0045720D01*
X0011898Y0045702D01*
X0011749Y0045688D01*
X0011600Y0045678D01*
X0011450Y0045672D01*
X0011300Y0045670D01*
X0011150Y0045672D01*
X0011000Y0045678D01*
X0010851Y0045688D01*
X0010702Y0045702D01*
X0010553Y0045720D01*
X0010404Y0045742D01*
X0010257Y0045767D01*
X0010110Y0045797D01*
X0009964Y0045831D01*
X0009819Y0045868D01*
X0009675Y0045910D01*
X0009532Y0045955D01*
X0009390Y0046004D01*
X0009250Y0046057D01*
X0009111Y0046113D01*
X0008974Y0046173D01*
X0008838Y0046237D01*
X0008704Y0046304D01*
X0008572Y0046375D01*
X0008442Y0046449D01*
X0008314Y0046527D01*
X0008188Y0046608D01*
X0008064Y0046693D01*
X0007942Y0046781D01*
X0007823Y0046872D01*
X0007707Y0046966D01*
X0007593Y0047063D01*
X0007481Y0047163D01*
X0007372Y0047266D01*
X0007266Y0047372D01*
X0007163Y0047481D01*
X0007063Y0047593D01*
X0006966Y0047707D01*
X0006872Y0047823D01*
X0006781Y0047942D01*
X0006693Y0048064D01*
X0006608Y0048188D01*
X0006527Y0048314D01*
X0006449Y0048442D01*
X0006375Y0048572D01*
X0006304Y0048704D01*
X0006237Y0048838D01*
X0006173Y0048974D01*
X0006113Y0049111D01*
X0006057Y0049250D01*
X0006004Y0049390D01*
X0005955Y0049532D01*
X0005910Y0049675D01*
X0005868Y0049819D01*
X0005831Y0049964D01*
X0005797Y0050110D01*
X0005767Y0050257D01*
X0005742Y0050404D01*
X0005720Y0050553D01*
X0005702Y0050702D01*
X0005688Y0050851D01*
X0005678Y0051000D01*
X0005672Y0051150D01*
X0005670Y0051300D01*
X0045040Y0011930D02*
X0045042Y0012080D01*
X0045048Y0012230D01*
X0045058Y0012379D01*
X0045072Y0012528D01*
X0045090Y0012677D01*
X0045112Y0012826D01*
X0045137Y0012973D01*
X0045167Y0013120D01*
X0045201Y0013266D01*
X0045238Y0013411D01*
X0045280Y0013555D01*
X0045325Y0013698D01*
X0045374Y0013840D01*
X0045427Y0013980D01*
X0045483Y0014119D01*
X0045543Y0014256D01*
X0045607Y0014392D01*
X0045674Y0014526D01*
X0045745Y0014658D01*
X0045819Y0014788D01*
X0045897Y0014916D01*
X0045978Y0015042D01*
X0046063Y0015166D01*
X0046151Y0015288D01*
X0046242Y0015407D01*
X0046336Y0015523D01*
X0046433Y0015637D01*
X0046533Y0015749D01*
X0046636Y0015858D01*
X0046742Y0015964D01*
X0046851Y0016067D01*
X0046963Y0016167D01*
X0047077Y0016264D01*
X0047193Y0016358D01*
X0047312Y0016449D01*
X0047434Y0016537D01*
X0047558Y0016622D01*
X0047684Y0016703D01*
X0047812Y0016781D01*
X0047942Y0016855D01*
X0048074Y0016926D01*
X0048208Y0016993D01*
X0048344Y0017057D01*
X0048481Y0017117D01*
X0048620Y0017173D01*
X0048760Y0017226D01*
X0048902Y0017275D01*
X0049045Y0017320D01*
X0049189Y0017362D01*
X0049334Y0017399D01*
X0049480Y0017433D01*
X0049627Y0017463D01*
X0049774Y0017488D01*
X0049923Y0017510D01*
X0050072Y0017528D01*
X0050221Y0017542D01*
X0050370Y0017552D01*
X0050520Y0017558D01*
X0050670Y0017560D01*
X0050820Y0017558D01*
X0050970Y0017552D01*
X0051119Y0017542D01*
X0051268Y0017528D01*
X0051417Y0017510D01*
X0051566Y0017488D01*
X0051713Y0017463D01*
X0051860Y0017433D01*
X0052006Y0017399D01*
X0052151Y0017362D01*
X0052295Y0017320D01*
X0052438Y0017275D01*
X0052580Y0017226D01*
X0052720Y0017173D01*
X0052859Y0017117D01*
X0052996Y0017057D01*
X0053132Y0016993D01*
X0053266Y0016926D01*
X0053398Y0016855D01*
X0053528Y0016781D01*
X0053656Y0016703D01*
X0053782Y0016622D01*
X0053906Y0016537D01*
X0054028Y0016449D01*
X0054147Y0016358D01*
X0054263Y0016264D01*
X0054377Y0016167D01*
X0054489Y0016067D01*
X0054598Y0015964D01*
X0054704Y0015858D01*
X0054807Y0015749D01*
X0054907Y0015637D01*
X0055004Y0015523D01*
X0055098Y0015407D01*
X0055189Y0015288D01*
X0055277Y0015166D01*
X0055362Y0015042D01*
X0055443Y0014916D01*
X0055521Y0014788D01*
X0055595Y0014658D01*
X0055666Y0014526D01*
X0055733Y0014392D01*
X0055797Y0014256D01*
X0055857Y0014119D01*
X0055913Y0013980D01*
X0055966Y0013840D01*
X0056015Y0013698D01*
X0056060Y0013555D01*
X0056102Y0013411D01*
X0056139Y0013266D01*
X0056173Y0013120D01*
X0056203Y0012973D01*
X0056228Y0012826D01*
X0056250Y0012677D01*
X0056268Y0012528D01*
X0056282Y0012379D01*
X0056292Y0012230D01*
X0056298Y0012080D01*
X0056300Y0011930D01*
X0056298Y0011780D01*
X0056292Y0011630D01*
X0056282Y0011481D01*
X0056268Y0011332D01*
X0056250Y0011183D01*
X0056228Y0011034D01*
X0056203Y0010887D01*
X0056173Y0010740D01*
X0056139Y0010594D01*
X0056102Y0010449D01*
X0056060Y0010305D01*
X0056015Y0010162D01*
X0055966Y0010020D01*
X0055913Y0009880D01*
X0055857Y0009741D01*
X0055797Y0009604D01*
X0055733Y0009468D01*
X0055666Y0009334D01*
X0055595Y0009202D01*
X0055521Y0009072D01*
X0055443Y0008944D01*
X0055362Y0008818D01*
X0055277Y0008694D01*
X0055189Y0008572D01*
X0055098Y0008453D01*
X0055004Y0008337D01*
X0054907Y0008223D01*
X0054807Y0008111D01*
X0054704Y0008002D01*
X0054598Y0007896D01*
X0054489Y0007793D01*
X0054377Y0007693D01*
X0054263Y0007596D01*
X0054147Y0007502D01*
X0054028Y0007411D01*
X0053906Y0007323D01*
X0053782Y0007238D01*
X0053656Y0007157D01*
X0053528Y0007079D01*
X0053398Y0007005D01*
X0053266Y0006934D01*
X0053132Y0006867D01*
X0052996Y0006803D01*
X0052859Y0006743D01*
X0052720Y0006687D01*
X0052580Y0006634D01*
X0052438Y0006585D01*
X0052295Y0006540D01*
X0052151Y0006498D01*
X0052006Y0006461D01*
X0051860Y0006427D01*
X0051713Y0006397D01*
X0051566Y0006372D01*
X0051417Y0006350D01*
X0051268Y0006332D01*
X0051119Y0006318D01*
X0050970Y0006308D01*
X0050820Y0006302D01*
X0050670Y0006300D01*
X0050520Y0006302D01*
X0050370Y0006308D01*
X0050221Y0006318D01*
X0050072Y0006332D01*
X0049923Y0006350D01*
X0049774Y0006372D01*
X0049627Y0006397D01*
X0049480Y0006427D01*
X0049334Y0006461D01*
X0049189Y0006498D01*
X0049045Y0006540D01*
X0048902Y0006585D01*
X0048760Y0006634D01*
X0048620Y0006687D01*
X0048481Y0006743D01*
X0048344Y0006803D01*
X0048208Y0006867D01*
X0048074Y0006934D01*
X0047942Y0007005D01*
X0047812Y0007079D01*
X0047684Y0007157D01*
X0047558Y0007238D01*
X0047434Y0007323D01*
X0047312Y0007411D01*
X0047193Y0007502D01*
X0047077Y0007596D01*
X0046963Y0007693D01*
X0046851Y0007793D01*
X0046742Y0007896D01*
X0046636Y0008002D01*
X0046533Y0008111D01*
X0046433Y0008223D01*
X0046336Y0008337D01*
X0046242Y0008453D01*
X0046151Y0008572D01*
X0046063Y0008694D01*
X0045978Y0008818D01*
X0045897Y0008944D01*
X0045819Y0009072D01*
X0045745Y0009202D01*
X0045674Y0009334D01*
X0045607Y0009468D01*
X0045543Y0009604D01*
X0045483Y0009741D01*
X0045427Y0009880D01*
X0045374Y0010020D01*
X0045325Y0010162D01*
X0045280Y0010305D01*
X0045238Y0010449D01*
X0045201Y0010594D01*
X0045167Y0010740D01*
X0045137Y0010887D01*
X0045112Y0011034D01*
X0045090Y0011183D01*
X0045072Y0011332D01*
X0045058Y0011481D01*
X0045048Y0011630D01*
X0045042Y0011780D01*
X0045040Y0011930D01*
M02*
