G75*
%MOIN*%
%OFA0B0*%
%FSLAX25Y25*%
%IPPOS*%
%LPD*%
%AMOC8*
5,1,8,0,0,1.08239X$1,22.5*
%
%ADD10C,0.00039*%
D10*
X0011615Y0017520D02*
X0017520Y0011615D01*
X0031300Y0025394D01*
X0025394Y0031300D01*
X0011615Y0017520D01*
X0018387Y0027087D02*
X0024056Y0027087D01*
X0022836Y0027639D02*
X0022838Y0027695D01*
X0022844Y0027750D01*
X0022854Y0027804D01*
X0022867Y0027858D01*
X0022885Y0027911D01*
X0022906Y0027962D01*
X0022930Y0028012D01*
X0022958Y0028060D01*
X0022990Y0028106D01*
X0023024Y0028150D01*
X0023062Y0028191D01*
X0023102Y0028229D01*
X0023145Y0028264D01*
X0023190Y0028296D01*
X0023238Y0028325D01*
X0023287Y0028351D01*
X0023338Y0028373D01*
X0023390Y0028391D01*
X0023444Y0028405D01*
X0023499Y0028416D01*
X0023554Y0028423D01*
X0023609Y0028426D01*
X0023665Y0028425D01*
X0023720Y0028420D01*
X0023775Y0028411D01*
X0023829Y0028399D01*
X0023882Y0028382D01*
X0023934Y0028362D01*
X0023984Y0028338D01*
X0024032Y0028311D01*
X0024079Y0028281D01*
X0024123Y0028247D01*
X0024165Y0028210D01*
X0024203Y0028170D01*
X0024240Y0028128D01*
X0024273Y0028083D01*
X0024302Y0028037D01*
X0024329Y0027988D01*
X0024351Y0027937D01*
X0024371Y0027885D01*
X0024386Y0027831D01*
X0024398Y0027777D01*
X0024406Y0027722D01*
X0024410Y0027667D01*
X0024410Y0027611D01*
X0024406Y0027556D01*
X0024398Y0027501D01*
X0024386Y0027447D01*
X0024371Y0027393D01*
X0024351Y0027341D01*
X0024329Y0027290D01*
X0024302Y0027241D01*
X0024273Y0027195D01*
X0024240Y0027150D01*
X0024203Y0027108D01*
X0024165Y0027068D01*
X0024123Y0027031D01*
X0024079Y0026997D01*
X0024032Y0026967D01*
X0023984Y0026940D01*
X0023934Y0026916D01*
X0023882Y0026896D01*
X0023829Y0026879D01*
X0023775Y0026867D01*
X0023720Y0026858D01*
X0023665Y0026853D01*
X0023609Y0026852D01*
X0023554Y0026855D01*
X0023499Y0026862D01*
X0023444Y0026873D01*
X0023390Y0026887D01*
X0023338Y0026905D01*
X0023287Y0026927D01*
X0023238Y0026953D01*
X0023190Y0026982D01*
X0023145Y0027014D01*
X0023102Y0027049D01*
X0023062Y0027087D01*
X0023024Y0027128D01*
X0022990Y0027172D01*
X0022958Y0027218D01*
X0022930Y0027266D01*
X0022906Y0027316D01*
X0022885Y0027367D01*
X0022867Y0027420D01*
X0022854Y0027474D01*
X0022844Y0027528D01*
X0022838Y0027583D01*
X0022836Y0027639D01*
X0021556Y0031300D02*
X0037206Y0031300D01*
X0031300Y0037206D01*
X0045080Y0050985D01*
X0050985Y0045080D01*
X0037206Y0031300D01*
X0041044Y0031300D01*
X0025394Y0031300D01*
X0021556Y0031300D01*
X0017875Y0027757D02*
X0017877Y0027813D01*
X0017883Y0027868D01*
X0017893Y0027922D01*
X0017906Y0027976D01*
X0017924Y0028029D01*
X0017945Y0028080D01*
X0017969Y0028130D01*
X0017997Y0028178D01*
X0018029Y0028224D01*
X0018063Y0028268D01*
X0018101Y0028309D01*
X0018141Y0028347D01*
X0018184Y0028382D01*
X0018229Y0028414D01*
X0018277Y0028443D01*
X0018326Y0028469D01*
X0018377Y0028491D01*
X0018429Y0028509D01*
X0018483Y0028523D01*
X0018538Y0028534D01*
X0018593Y0028541D01*
X0018648Y0028544D01*
X0018704Y0028543D01*
X0018759Y0028538D01*
X0018814Y0028529D01*
X0018868Y0028517D01*
X0018921Y0028500D01*
X0018973Y0028480D01*
X0019023Y0028456D01*
X0019071Y0028429D01*
X0019118Y0028399D01*
X0019162Y0028365D01*
X0019204Y0028328D01*
X0019242Y0028288D01*
X0019279Y0028246D01*
X0019312Y0028201D01*
X0019341Y0028155D01*
X0019368Y0028106D01*
X0019390Y0028055D01*
X0019410Y0028003D01*
X0019425Y0027949D01*
X0019437Y0027895D01*
X0019445Y0027840D01*
X0019449Y0027785D01*
X0019449Y0027729D01*
X0019445Y0027674D01*
X0019437Y0027619D01*
X0019425Y0027565D01*
X0019410Y0027511D01*
X0019390Y0027459D01*
X0019368Y0027408D01*
X0019341Y0027359D01*
X0019312Y0027313D01*
X0019279Y0027268D01*
X0019242Y0027226D01*
X0019204Y0027186D01*
X0019162Y0027149D01*
X0019118Y0027115D01*
X0019071Y0027085D01*
X0019023Y0027058D01*
X0018973Y0027034D01*
X0018921Y0027014D01*
X0018868Y0026997D01*
X0018814Y0026985D01*
X0018759Y0026976D01*
X0018704Y0026971D01*
X0018648Y0026970D01*
X0018593Y0026973D01*
X0018538Y0026980D01*
X0018483Y0026991D01*
X0018429Y0027005D01*
X0018377Y0027023D01*
X0018326Y0027045D01*
X0018277Y0027071D01*
X0018229Y0027100D01*
X0018184Y0027132D01*
X0018141Y0027167D01*
X0018101Y0027205D01*
X0018063Y0027246D01*
X0018029Y0027290D01*
X0017997Y0027336D01*
X0017969Y0027384D01*
X0017945Y0027434D01*
X0017924Y0027485D01*
X0017906Y0027538D01*
X0017893Y0027592D01*
X0017883Y0027646D01*
X0017877Y0027701D01*
X0017875Y0027757D01*
X0018269Y0035631D02*
X0018271Y0035687D01*
X0018277Y0035742D01*
X0018287Y0035796D01*
X0018300Y0035850D01*
X0018318Y0035903D01*
X0018339Y0035954D01*
X0018363Y0036004D01*
X0018391Y0036052D01*
X0018423Y0036098D01*
X0018457Y0036142D01*
X0018495Y0036183D01*
X0018535Y0036221D01*
X0018578Y0036256D01*
X0018623Y0036288D01*
X0018671Y0036317D01*
X0018720Y0036343D01*
X0018771Y0036365D01*
X0018823Y0036383D01*
X0018877Y0036397D01*
X0018932Y0036408D01*
X0018987Y0036415D01*
X0019042Y0036418D01*
X0019098Y0036417D01*
X0019153Y0036412D01*
X0019208Y0036403D01*
X0019262Y0036391D01*
X0019315Y0036374D01*
X0019367Y0036354D01*
X0019417Y0036330D01*
X0019465Y0036303D01*
X0019512Y0036273D01*
X0019556Y0036239D01*
X0019598Y0036202D01*
X0019636Y0036162D01*
X0019673Y0036120D01*
X0019706Y0036075D01*
X0019735Y0036029D01*
X0019762Y0035980D01*
X0019784Y0035929D01*
X0019804Y0035877D01*
X0019819Y0035823D01*
X0019831Y0035769D01*
X0019839Y0035714D01*
X0019843Y0035659D01*
X0019843Y0035603D01*
X0019839Y0035548D01*
X0019831Y0035493D01*
X0019819Y0035439D01*
X0019804Y0035385D01*
X0019784Y0035333D01*
X0019762Y0035282D01*
X0019735Y0035233D01*
X0019706Y0035187D01*
X0019673Y0035142D01*
X0019636Y0035100D01*
X0019598Y0035060D01*
X0019556Y0035023D01*
X0019512Y0034989D01*
X0019465Y0034959D01*
X0019417Y0034932D01*
X0019367Y0034908D01*
X0019315Y0034888D01*
X0019262Y0034871D01*
X0019208Y0034859D01*
X0019153Y0034850D01*
X0019098Y0034845D01*
X0019042Y0034844D01*
X0018987Y0034847D01*
X0018932Y0034854D01*
X0018877Y0034865D01*
X0018823Y0034879D01*
X0018771Y0034897D01*
X0018720Y0034919D01*
X0018671Y0034945D01*
X0018623Y0034974D01*
X0018578Y0035006D01*
X0018535Y0035041D01*
X0018495Y0035079D01*
X0018457Y0035120D01*
X0018423Y0035164D01*
X0018391Y0035210D01*
X0018363Y0035258D01*
X0018339Y0035308D01*
X0018318Y0035359D01*
X0018300Y0035412D01*
X0018287Y0035466D01*
X0018277Y0035520D01*
X0018271Y0035575D01*
X0018269Y0035631D01*
X0018623Y0036143D02*
X0024489Y0036143D01*
X0023230Y0035631D02*
X0023232Y0035687D01*
X0023238Y0035742D01*
X0023248Y0035796D01*
X0023261Y0035850D01*
X0023279Y0035903D01*
X0023300Y0035954D01*
X0023324Y0036004D01*
X0023352Y0036052D01*
X0023384Y0036098D01*
X0023418Y0036142D01*
X0023456Y0036183D01*
X0023496Y0036221D01*
X0023539Y0036256D01*
X0023584Y0036288D01*
X0023632Y0036317D01*
X0023681Y0036343D01*
X0023732Y0036365D01*
X0023784Y0036383D01*
X0023838Y0036397D01*
X0023893Y0036408D01*
X0023948Y0036415D01*
X0024003Y0036418D01*
X0024059Y0036417D01*
X0024114Y0036412D01*
X0024169Y0036403D01*
X0024223Y0036391D01*
X0024276Y0036374D01*
X0024328Y0036354D01*
X0024378Y0036330D01*
X0024426Y0036303D01*
X0024473Y0036273D01*
X0024517Y0036239D01*
X0024559Y0036202D01*
X0024597Y0036162D01*
X0024634Y0036120D01*
X0024667Y0036075D01*
X0024696Y0036029D01*
X0024723Y0035980D01*
X0024745Y0035929D01*
X0024765Y0035877D01*
X0024780Y0035823D01*
X0024792Y0035769D01*
X0024800Y0035714D01*
X0024804Y0035659D01*
X0024804Y0035603D01*
X0024800Y0035548D01*
X0024792Y0035493D01*
X0024780Y0035439D01*
X0024765Y0035385D01*
X0024745Y0035333D01*
X0024723Y0035282D01*
X0024696Y0035233D01*
X0024667Y0035187D01*
X0024634Y0035142D01*
X0024597Y0035100D01*
X0024559Y0035060D01*
X0024517Y0035023D01*
X0024473Y0034989D01*
X0024426Y0034959D01*
X0024378Y0034932D01*
X0024328Y0034908D01*
X0024276Y0034888D01*
X0024223Y0034871D01*
X0024169Y0034859D01*
X0024114Y0034850D01*
X0024059Y0034845D01*
X0024003Y0034844D01*
X0023948Y0034847D01*
X0023893Y0034854D01*
X0023838Y0034865D01*
X0023784Y0034879D01*
X0023732Y0034897D01*
X0023681Y0034919D01*
X0023632Y0034945D01*
X0023584Y0034974D01*
X0023539Y0035006D01*
X0023496Y0035041D01*
X0023456Y0035079D01*
X0023418Y0035120D01*
X0023384Y0035164D01*
X0023352Y0035210D01*
X0023324Y0035258D01*
X0023300Y0035308D01*
X0023279Y0035359D01*
X0023261Y0035412D01*
X0023248Y0035466D01*
X0023238Y0035520D01*
X0023232Y0035575D01*
X0023230Y0035631D01*
X0044213Y0035512D02*
X0044311Y0035185D01*
X0044401Y0034856D01*
X0044483Y0034524D01*
X0044556Y0034190D01*
X0044622Y0033855D01*
X0044679Y0033518D01*
X0044729Y0033180D01*
X0044769Y0032841D01*
X0044802Y0032501D01*
X0044826Y0032160D01*
X0044843Y0031819D01*
X0044850Y0031478D01*
X0044850Y0031136D01*
X0044841Y0030795D01*
X0044824Y0030453D01*
X0044798Y0030113D01*
X0044764Y0029773D01*
X0044722Y0029434D01*
X0044672Y0029096D01*
X0044613Y0028759D01*
X0044546Y0028424D01*
X0044472Y0028091D01*
X0044389Y0027760D01*
X0044298Y0027430D01*
X0044199Y0027103D01*
X0044092Y0026779D01*
X0043977Y0026457D01*
X0038111Y0026457D01*
X0037796Y0026969D02*
X0037798Y0027025D01*
X0037804Y0027080D01*
X0037814Y0027134D01*
X0037827Y0027188D01*
X0037845Y0027241D01*
X0037866Y0027292D01*
X0037890Y0027342D01*
X0037918Y0027390D01*
X0037950Y0027436D01*
X0037984Y0027480D01*
X0038022Y0027521D01*
X0038062Y0027559D01*
X0038105Y0027594D01*
X0038150Y0027626D01*
X0038198Y0027655D01*
X0038247Y0027681D01*
X0038298Y0027703D01*
X0038350Y0027721D01*
X0038404Y0027735D01*
X0038459Y0027746D01*
X0038514Y0027753D01*
X0038569Y0027756D01*
X0038625Y0027755D01*
X0038680Y0027750D01*
X0038735Y0027741D01*
X0038789Y0027729D01*
X0038842Y0027712D01*
X0038894Y0027692D01*
X0038944Y0027668D01*
X0038992Y0027641D01*
X0039039Y0027611D01*
X0039083Y0027577D01*
X0039125Y0027540D01*
X0039163Y0027500D01*
X0039200Y0027458D01*
X0039233Y0027413D01*
X0039262Y0027367D01*
X0039289Y0027318D01*
X0039311Y0027267D01*
X0039331Y0027215D01*
X0039346Y0027161D01*
X0039358Y0027107D01*
X0039366Y0027052D01*
X0039370Y0026997D01*
X0039370Y0026941D01*
X0039366Y0026886D01*
X0039358Y0026831D01*
X0039346Y0026777D01*
X0039331Y0026723D01*
X0039311Y0026671D01*
X0039289Y0026620D01*
X0039262Y0026571D01*
X0039233Y0026525D01*
X0039200Y0026480D01*
X0039163Y0026438D01*
X0039125Y0026398D01*
X0039083Y0026361D01*
X0039039Y0026327D01*
X0038992Y0026297D01*
X0038944Y0026270D01*
X0038894Y0026246D01*
X0038842Y0026226D01*
X0038789Y0026209D01*
X0038735Y0026197D01*
X0038680Y0026188D01*
X0038625Y0026183D01*
X0038569Y0026182D01*
X0038514Y0026185D01*
X0038459Y0026192D01*
X0038404Y0026203D01*
X0038350Y0026217D01*
X0038298Y0026235D01*
X0038247Y0026257D01*
X0038198Y0026283D01*
X0038150Y0026312D01*
X0038105Y0026344D01*
X0038062Y0026379D01*
X0038022Y0026417D01*
X0037984Y0026458D01*
X0037950Y0026502D01*
X0037918Y0026548D01*
X0037890Y0026596D01*
X0037866Y0026646D01*
X0037845Y0026697D01*
X0037827Y0026750D01*
X0037814Y0026804D01*
X0037804Y0026858D01*
X0037798Y0026913D01*
X0037796Y0026969D01*
X0042757Y0026969D02*
X0042759Y0027025D01*
X0042765Y0027080D01*
X0042775Y0027134D01*
X0042788Y0027188D01*
X0042806Y0027241D01*
X0042827Y0027292D01*
X0042851Y0027342D01*
X0042879Y0027390D01*
X0042911Y0027436D01*
X0042945Y0027480D01*
X0042983Y0027521D01*
X0043023Y0027559D01*
X0043066Y0027594D01*
X0043111Y0027626D01*
X0043159Y0027655D01*
X0043208Y0027681D01*
X0043259Y0027703D01*
X0043311Y0027721D01*
X0043365Y0027735D01*
X0043420Y0027746D01*
X0043475Y0027753D01*
X0043530Y0027756D01*
X0043586Y0027755D01*
X0043641Y0027750D01*
X0043696Y0027741D01*
X0043750Y0027729D01*
X0043803Y0027712D01*
X0043855Y0027692D01*
X0043905Y0027668D01*
X0043953Y0027641D01*
X0044000Y0027611D01*
X0044044Y0027577D01*
X0044086Y0027540D01*
X0044124Y0027500D01*
X0044161Y0027458D01*
X0044194Y0027413D01*
X0044223Y0027367D01*
X0044250Y0027318D01*
X0044272Y0027267D01*
X0044292Y0027215D01*
X0044307Y0027161D01*
X0044319Y0027107D01*
X0044327Y0027052D01*
X0044331Y0026997D01*
X0044331Y0026941D01*
X0044327Y0026886D01*
X0044319Y0026831D01*
X0044307Y0026777D01*
X0044292Y0026723D01*
X0044272Y0026671D01*
X0044250Y0026620D01*
X0044223Y0026571D01*
X0044194Y0026525D01*
X0044161Y0026480D01*
X0044124Y0026438D01*
X0044086Y0026398D01*
X0044044Y0026361D01*
X0044000Y0026327D01*
X0043953Y0026297D01*
X0043905Y0026270D01*
X0043855Y0026246D01*
X0043803Y0026226D01*
X0043750Y0026209D01*
X0043696Y0026197D01*
X0043641Y0026188D01*
X0043586Y0026183D01*
X0043530Y0026182D01*
X0043475Y0026185D01*
X0043420Y0026192D01*
X0043365Y0026203D01*
X0043311Y0026217D01*
X0043259Y0026235D01*
X0043208Y0026257D01*
X0043159Y0026283D01*
X0043111Y0026312D01*
X0043066Y0026344D01*
X0043023Y0026379D01*
X0042983Y0026417D01*
X0042945Y0026458D01*
X0042911Y0026502D01*
X0042879Y0026548D01*
X0042851Y0026596D01*
X0042827Y0026646D01*
X0042806Y0026697D01*
X0042788Y0026750D01*
X0042775Y0026804D01*
X0042765Y0026858D01*
X0042759Y0026913D01*
X0042757Y0026969D01*
X0043151Y0034843D02*
X0043153Y0034899D01*
X0043159Y0034954D01*
X0043169Y0035008D01*
X0043182Y0035062D01*
X0043200Y0035115D01*
X0043221Y0035166D01*
X0043245Y0035216D01*
X0043273Y0035264D01*
X0043305Y0035310D01*
X0043339Y0035354D01*
X0043377Y0035395D01*
X0043417Y0035433D01*
X0043460Y0035468D01*
X0043505Y0035500D01*
X0043553Y0035529D01*
X0043602Y0035555D01*
X0043653Y0035577D01*
X0043705Y0035595D01*
X0043759Y0035609D01*
X0043814Y0035620D01*
X0043869Y0035627D01*
X0043924Y0035630D01*
X0043980Y0035629D01*
X0044035Y0035624D01*
X0044090Y0035615D01*
X0044144Y0035603D01*
X0044197Y0035586D01*
X0044249Y0035566D01*
X0044299Y0035542D01*
X0044347Y0035515D01*
X0044394Y0035485D01*
X0044438Y0035451D01*
X0044480Y0035414D01*
X0044518Y0035374D01*
X0044555Y0035332D01*
X0044588Y0035287D01*
X0044617Y0035241D01*
X0044644Y0035192D01*
X0044666Y0035141D01*
X0044686Y0035089D01*
X0044701Y0035035D01*
X0044713Y0034981D01*
X0044721Y0034926D01*
X0044725Y0034871D01*
X0044725Y0034815D01*
X0044721Y0034760D01*
X0044713Y0034705D01*
X0044701Y0034651D01*
X0044686Y0034597D01*
X0044666Y0034545D01*
X0044644Y0034494D01*
X0044617Y0034445D01*
X0044588Y0034399D01*
X0044555Y0034354D01*
X0044518Y0034312D01*
X0044480Y0034272D01*
X0044438Y0034235D01*
X0044394Y0034201D01*
X0044347Y0034171D01*
X0044299Y0034144D01*
X0044249Y0034120D01*
X0044197Y0034100D01*
X0044144Y0034083D01*
X0044090Y0034071D01*
X0044035Y0034062D01*
X0043980Y0034057D01*
X0043924Y0034056D01*
X0043869Y0034059D01*
X0043814Y0034066D01*
X0043759Y0034077D01*
X0043705Y0034091D01*
X0043653Y0034109D01*
X0043602Y0034131D01*
X0043553Y0034157D01*
X0043505Y0034186D01*
X0043460Y0034218D01*
X0043417Y0034253D01*
X0043377Y0034291D01*
X0043339Y0034332D01*
X0043305Y0034376D01*
X0043273Y0034422D01*
X0043245Y0034470D01*
X0043221Y0034520D01*
X0043200Y0034571D01*
X0043182Y0034624D01*
X0043169Y0034678D01*
X0043159Y0034732D01*
X0043153Y0034787D01*
X0043151Y0034843D01*
X0044213Y0035513D02*
X0038544Y0035513D01*
X0038190Y0034961D02*
X0038192Y0035017D01*
X0038198Y0035072D01*
X0038208Y0035126D01*
X0038221Y0035180D01*
X0038239Y0035233D01*
X0038260Y0035284D01*
X0038284Y0035334D01*
X0038312Y0035382D01*
X0038344Y0035428D01*
X0038378Y0035472D01*
X0038416Y0035513D01*
X0038456Y0035551D01*
X0038499Y0035586D01*
X0038544Y0035618D01*
X0038592Y0035647D01*
X0038641Y0035673D01*
X0038692Y0035695D01*
X0038744Y0035713D01*
X0038798Y0035727D01*
X0038853Y0035738D01*
X0038908Y0035745D01*
X0038963Y0035748D01*
X0039019Y0035747D01*
X0039074Y0035742D01*
X0039129Y0035733D01*
X0039183Y0035721D01*
X0039236Y0035704D01*
X0039288Y0035684D01*
X0039338Y0035660D01*
X0039386Y0035633D01*
X0039433Y0035603D01*
X0039477Y0035569D01*
X0039519Y0035532D01*
X0039557Y0035492D01*
X0039594Y0035450D01*
X0039627Y0035405D01*
X0039656Y0035359D01*
X0039683Y0035310D01*
X0039705Y0035259D01*
X0039725Y0035207D01*
X0039740Y0035153D01*
X0039752Y0035099D01*
X0039760Y0035044D01*
X0039764Y0034989D01*
X0039764Y0034933D01*
X0039760Y0034878D01*
X0039752Y0034823D01*
X0039740Y0034769D01*
X0039725Y0034715D01*
X0039705Y0034663D01*
X0039683Y0034612D01*
X0039656Y0034563D01*
X0039627Y0034517D01*
X0039594Y0034472D01*
X0039557Y0034430D01*
X0039519Y0034390D01*
X0039477Y0034353D01*
X0039433Y0034319D01*
X0039386Y0034289D01*
X0039338Y0034262D01*
X0039288Y0034238D01*
X0039236Y0034218D01*
X0039183Y0034201D01*
X0039129Y0034189D01*
X0039074Y0034180D01*
X0039019Y0034175D01*
X0038963Y0034174D01*
X0038908Y0034177D01*
X0038853Y0034184D01*
X0038798Y0034195D01*
X0038744Y0034209D01*
X0038692Y0034227D01*
X0038641Y0034249D01*
X0038592Y0034275D01*
X0038544Y0034304D01*
X0038499Y0034336D01*
X0038456Y0034371D01*
X0038416Y0034409D01*
X0038378Y0034450D01*
X0038344Y0034494D01*
X0038312Y0034540D01*
X0038284Y0034588D01*
X0038260Y0034638D01*
X0038239Y0034689D01*
X0038221Y0034742D01*
X0038208Y0034796D01*
X0038198Y0034850D01*
X0038192Y0034905D01*
X0038190Y0034961D01*
X0018623Y0036143D02*
X0018508Y0035821D01*
X0018401Y0035497D01*
X0018302Y0035170D01*
X0018211Y0034840D01*
X0018128Y0034509D01*
X0018054Y0034176D01*
X0017987Y0033841D01*
X0017928Y0033504D01*
X0017878Y0033166D01*
X0017836Y0032827D01*
X0017802Y0032487D01*
X0017776Y0032147D01*
X0017759Y0031805D01*
X0017750Y0031464D01*
X0017750Y0031122D01*
X0017757Y0030781D01*
X0017774Y0030440D01*
X0017798Y0030099D01*
X0017831Y0029759D01*
X0017871Y0029420D01*
X0017921Y0029082D01*
X0017978Y0028745D01*
X0018044Y0028410D01*
X0018117Y0028076D01*
X0018199Y0027744D01*
X0018289Y0027415D01*
X0018387Y0027088D01*
X0038111Y0026458D02*
X0038244Y0027145D01*
X0038360Y0027835D01*
X0038460Y0028528D01*
X0038543Y0029224D01*
X0038610Y0029920D01*
X0038660Y0030619D01*
X0038693Y0031318D01*
X0038710Y0032018D01*
X0038710Y0032718D01*
X0038694Y0033418D01*
X0038660Y0034117D01*
X0038611Y0034816D01*
X0038544Y0035513D01*
X0041044Y0031300D02*
X0041042Y0031064D01*
X0041034Y0030829D01*
X0041021Y0030593D01*
X0041002Y0030359D01*
X0040977Y0030124D01*
X0040946Y0029890D01*
X0040910Y0029658D01*
X0040868Y0029426D01*
X0040821Y0029195D01*
X0040767Y0028965D01*
X0040709Y0028737D01*
X0040645Y0028510D01*
X0040575Y0028285D01*
X0040500Y0028061D01*
X0040419Y0027840D01*
X0040334Y0027620D01*
X0040243Y0027403D01*
X0040146Y0027188D01*
X0040045Y0026975D01*
X0039938Y0026765D01*
X0039826Y0026558D01*
X0039709Y0026353D01*
X0039588Y0026151D01*
X0039461Y0025952D01*
X0039330Y0025757D01*
X0039194Y0025564D01*
X0039053Y0025375D01*
X0038908Y0025189D01*
X0038758Y0025007D01*
X0038604Y0024829D01*
X0038445Y0024654D01*
X0038283Y0024484D01*
X0038116Y0024317D01*
X0037946Y0024155D01*
X0037771Y0023996D01*
X0037593Y0023842D01*
X0037411Y0023692D01*
X0037225Y0023547D01*
X0037036Y0023406D01*
X0036843Y0023270D01*
X0036648Y0023139D01*
X0036449Y0023012D01*
X0036247Y0022891D01*
X0036042Y0022774D01*
X0035835Y0022662D01*
X0035625Y0022555D01*
X0035412Y0022454D01*
X0035197Y0022357D01*
X0034980Y0022266D01*
X0034760Y0022181D01*
X0034539Y0022100D01*
X0034315Y0022025D01*
X0034090Y0021955D01*
X0033863Y0021891D01*
X0033635Y0021833D01*
X0033405Y0021779D01*
X0033174Y0021732D01*
X0032942Y0021690D01*
X0032710Y0021654D01*
X0032476Y0021623D01*
X0032241Y0021598D01*
X0032007Y0021579D01*
X0031771Y0021566D01*
X0031536Y0021558D01*
X0031300Y0021556D01*
X0031064Y0021559D01*
X0030829Y0021567D01*
X0030594Y0021581D01*
X0030359Y0021601D01*
X0030125Y0021626D01*
X0029892Y0021657D01*
X0029659Y0021694D01*
X0029427Y0021736D01*
X0029197Y0021784D01*
X0028967Y0021838D01*
X0028739Y0021897D01*
X0028513Y0021961D01*
X0028288Y0022031D01*
X0028065Y0022107D01*
X0027844Y0022187D01*
X0027625Y0022274D01*
X0027407Y0022365D01*
X0027193Y0022461D01*
X0026980Y0022563D01*
X0026770Y0022670D01*
X0026563Y0022782D01*
X0026359Y0022899D01*
X0026157Y0023021D01*
X0025959Y0023147D01*
X0025763Y0023279D01*
X0025571Y0023415D01*
X0025382Y0023555D01*
X0025197Y0023701D01*
X0025015Y0023850D01*
X0024837Y0024004D01*
X0024662Y0024163D01*
X0024492Y0024325D01*
X0024325Y0024492D01*
X0024163Y0024662D01*
X0024004Y0024837D01*
X0023850Y0025015D01*
X0023701Y0025197D01*
X0023555Y0025382D01*
X0023415Y0025571D01*
X0023279Y0025763D01*
X0023147Y0025959D01*
X0023021Y0026157D01*
X0022899Y0026359D01*
X0022782Y0026563D01*
X0022670Y0026770D01*
X0022563Y0026980D01*
X0022461Y0027193D01*
X0022365Y0027407D01*
X0022274Y0027625D01*
X0022187Y0027844D01*
X0022107Y0028065D01*
X0022031Y0028288D01*
X0021961Y0028513D01*
X0021897Y0028739D01*
X0021838Y0028967D01*
X0021784Y0029197D01*
X0021736Y0029427D01*
X0021694Y0029659D01*
X0021657Y0029892D01*
X0021626Y0030125D01*
X0021601Y0030359D01*
X0021581Y0030594D01*
X0021567Y0030829D01*
X0021559Y0031064D01*
X0021556Y0031300D01*
X0021558Y0031536D01*
X0021566Y0031771D01*
X0021579Y0032007D01*
X0021598Y0032241D01*
X0021623Y0032476D01*
X0021654Y0032710D01*
X0021690Y0032942D01*
X0021732Y0033174D01*
X0021779Y0033405D01*
X0021833Y0033635D01*
X0021891Y0033863D01*
X0021955Y0034090D01*
X0022025Y0034315D01*
X0022100Y0034539D01*
X0022181Y0034760D01*
X0022266Y0034980D01*
X0022357Y0035197D01*
X0022454Y0035412D01*
X0022555Y0035625D01*
X0022662Y0035835D01*
X0022774Y0036042D01*
X0022891Y0036247D01*
X0023012Y0036449D01*
X0023139Y0036648D01*
X0023270Y0036843D01*
X0023406Y0037036D01*
X0023547Y0037225D01*
X0023692Y0037411D01*
X0023842Y0037593D01*
X0023996Y0037771D01*
X0024155Y0037946D01*
X0024317Y0038116D01*
X0024484Y0038283D01*
X0024654Y0038445D01*
X0024829Y0038604D01*
X0025007Y0038758D01*
X0025189Y0038908D01*
X0025375Y0039053D01*
X0025564Y0039194D01*
X0025757Y0039330D01*
X0025952Y0039461D01*
X0026151Y0039588D01*
X0026353Y0039709D01*
X0026558Y0039826D01*
X0026765Y0039938D01*
X0026975Y0040045D01*
X0027188Y0040146D01*
X0027403Y0040243D01*
X0027620Y0040334D01*
X0027840Y0040419D01*
X0028061Y0040500D01*
X0028285Y0040575D01*
X0028510Y0040645D01*
X0028737Y0040709D01*
X0028965Y0040767D01*
X0029195Y0040821D01*
X0029426Y0040868D01*
X0029658Y0040910D01*
X0029890Y0040946D01*
X0030124Y0040977D01*
X0030359Y0041002D01*
X0030593Y0041021D01*
X0030829Y0041034D01*
X0031064Y0041042D01*
X0031300Y0041044D01*
X0031536Y0041041D01*
X0031771Y0041033D01*
X0032006Y0041019D01*
X0032241Y0040999D01*
X0032475Y0040974D01*
X0032708Y0040943D01*
X0032941Y0040906D01*
X0033173Y0040864D01*
X0033403Y0040816D01*
X0033633Y0040762D01*
X0033861Y0040703D01*
X0034087Y0040639D01*
X0034312Y0040569D01*
X0034535Y0040493D01*
X0034756Y0040413D01*
X0034975Y0040326D01*
X0035193Y0040235D01*
X0035407Y0040139D01*
X0035620Y0040037D01*
X0035830Y0039930D01*
X0036037Y0039818D01*
X0036241Y0039701D01*
X0036443Y0039579D01*
X0036641Y0039453D01*
X0036837Y0039321D01*
X0037029Y0039185D01*
X0037218Y0039045D01*
X0037403Y0038899D01*
X0037585Y0038750D01*
X0037763Y0038596D01*
X0037938Y0038437D01*
X0038108Y0038275D01*
X0038275Y0038108D01*
X0038437Y0037938D01*
X0038596Y0037763D01*
X0038750Y0037585D01*
X0038899Y0037403D01*
X0039045Y0037218D01*
X0039185Y0037029D01*
X0039321Y0036837D01*
X0039453Y0036641D01*
X0039579Y0036443D01*
X0039701Y0036241D01*
X0039818Y0036037D01*
X0039930Y0035830D01*
X0040037Y0035620D01*
X0040139Y0035407D01*
X0040235Y0035193D01*
X0040326Y0034975D01*
X0040413Y0034756D01*
X0040493Y0034535D01*
X0040569Y0034312D01*
X0040639Y0034087D01*
X0040703Y0033861D01*
X0040762Y0033633D01*
X0040816Y0033403D01*
X0040864Y0033173D01*
X0040906Y0032941D01*
X0040943Y0032708D01*
X0040974Y0032475D01*
X0040999Y0032241D01*
X0041019Y0032006D01*
X0041033Y0031771D01*
X0041041Y0031536D01*
X0041044Y0031300D01*
X0024489Y0036142D02*
X0024356Y0035455D01*
X0024240Y0034765D01*
X0024140Y0034072D01*
X0024057Y0033376D01*
X0023990Y0032680D01*
X0023940Y0031981D01*
X0023907Y0031282D01*
X0023890Y0030582D01*
X0023890Y0029882D01*
X0023906Y0029182D01*
X0023940Y0028483D01*
X0023989Y0027784D01*
X0024056Y0027087D01*
M02*
