G75*
%MOIN*%
%OFA0B0*%
%FSLAX25Y25*%
%IPPOS*%
%LPD*%
%AMOC8*
5,1,8,0,0,1.08239X$1,22.5*
%
%ADD10C,0.00500*%
D10*
X0118963Y0034668D02*
X0129199Y0034668D01*
X0129199Y0049628D01*
X0118963Y0049628D01*
X0118963Y0034668D01*
X0158963Y0034668D02*
X0169199Y0034668D01*
X0169199Y0049628D01*
X0158963Y0049628D01*
X0158963Y0034668D01*
X0198963Y0034668D02*
X0209199Y0034668D01*
X0209199Y0049628D01*
X0198963Y0049628D01*
X0198963Y0034668D01*
X0238963Y0034668D02*
X0249199Y0034668D01*
X0249199Y0049628D01*
X0238963Y0049628D01*
X0238963Y0034668D01*
X0278963Y0034668D02*
X0289199Y0034668D01*
X0289199Y0049628D01*
X0278963Y0049628D01*
X0278963Y0034668D01*
X0318963Y0034668D02*
X0329199Y0034668D01*
X0329199Y0049628D01*
X0318963Y0049628D01*
X0318963Y0034668D01*
X0358963Y0034668D02*
X0369199Y0034668D01*
X0369199Y0049628D01*
X0358963Y0049628D01*
X0358963Y0034668D01*
X0358963Y0074668D02*
X0369199Y0074668D01*
X0369199Y0089628D01*
X0358963Y0089628D01*
X0358963Y0074668D01*
X0329199Y0074668D02*
X0329199Y0089628D01*
X0318963Y0089628D01*
X0318963Y0074668D01*
X0329199Y0074668D01*
X0289199Y0074668D02*
X0289199Y0089628D01*
X0278963Y0089628D01*
X0278963Y0074668D01*
X0289199Y0074668D01*
X0249199Y0074668D02*
X0249199Y0089628D01*
X0238963Y0089628D01*
X0238963Y0074668D01*
X0249199Y0074668D01*
X0209199Y0074668D02*
X0209199Y0089628D01*
X0198963Y0089628D01*
X0198963Y0074668D01*
X0209199Y0074668D01*
X0169199Y0074668D02*
X0169199Y0089628D01*
X0158963Y0089628D01*
X0158963Y0074668D01*
X0169199Y0074668D01*
X0129199Y0074668D02*
X0129199Y0089628D01*
X0118963Y0089628D01*
X0118963Y0074668D01*
X0129199Y0074668D01*
X0129199Y0114668D02*
X0118963Y0114668D01*
X0118963Y0129628D01*
X0129199Y0129628D01*
X0129199Y0114668D01*
X0158963Y0114668D02*
X0169199Y0114668D01*
X0169199Y0129628D01*
X0158963Y0129628D01*
X0158963Y0114668D01*
X0198963Y0114668D02*
X0209199Y0114668D01*
X0209199Y0129628D01*
X0198963Y0129628D01*
X0198963Y0114668D01*
X0238963Y0114668D02*
X0249199Y0114668D01*
X0249199Y0129628D01*
X0238963Y0129628D01*
X0238963Y0114668D01*
X0278963Y0114668D02*
X0289199Y0114668D01*
X0289199Y0129628D01*
X0278963Y0129628D01*
X0278963Y0114668D01*
X0318963Y0114668D02*
X0329199Y0114668D01*
X0329199Y0129628D01*
X0318963Y0129628D01*
X0318963Y0114668D01*
X0358963Y0114668D02*
X0369199Y0114668D01*
X0369199Y0129628D01*
X0358963Y0129628D01*
X0358963Y0114668D01*
X0358963Y0154668D02*
X0369199Y0154668D01*
X0369199Y0169628D01*
X0358963Y0169628D01*
X0358963Y0154668D01*
X0329199Y0154668D02*
X0329199Y0169628D01*
X0318963Y0169628D01*
X0318963Y0154668D01*
X0329199Y0154668D01*
X0289199Y0154668D02*
X0289199Y0169628D01*
X0278963Y0169628D01*
X0278963Y0154668D01*
X0289199Y0154668D01*
X0249199Y0154668D02*
X0249199Y0169628D01*
X0238963Y0169628D01*
X0238963Y0154668D01*
X0249199Y0154668D01*
X0209199Y0154668D02*
X0209199Y0169628D01*
X0198963Y0169628D01*
X0198963Y0154668D01*
X0209199Y0154668D01*
X0169199Y0154668D02*
X0169199Y0169628D01*
X0158963Y0169628D01*
X0158963Y0154668D01*
X0169199Y0154668D01*
X0129199Y0154668D02*
X0129199Y0169628D01*
X0118963Y0169628D01*
X0118963Y0154668D01*
X0129199Y0154668D01*
X0129199Y0194668D02*
X0118963Y0194668D01*
X0118963Y0209628D01*
X0129199Y0209628D01*
X0129199Y0194668D01*
X0158963Y0194668D02*
X0169199Y0194668D01*
X0169199Y0209628D01*
X0158963Y0209628D01*
X0158963Y0194668D01*
X0198963Y0194668D02*
X0209199Y0194668D01*
X0209199Y0209628D01*
X0198963Y0209628D01*
X0198963Y0194668D01*
X0238963Y0194668D02*
X0249199Y0194668D01*
X0249199Y0209628D01*
X0238963Y0209628D01*
X0238963Y0194668D01*
X0278963Y0194668D02*
X0289199Y0194668D01*
X0289199Y0209628D01*
X0278963Y0209628D01*
X0278963Y0194668D01*
X0318963Y0194668D02*
X0329199Y0194668D01*
X0329199Y0209628D01*
X0318963Y0209628D01*
X0318963Y0194668D01*
X0358963Y0194668D02*
X0369199Y0194668D01*
X0369199Y0209628D01*
X0358963Y0209628D01*
X0358963Y0194668D01*
X0358963Y0234668D02*
X0369199Y0234668D01*
X0369199Y0249628D01*
X0358963Y0249628D01*
X0358963Y0234668D01*
X0329199Y0234668D02*
X0329199Y0249628D01*
X0318963Y0249628D01*
X0318963Y0234668D01*
X0329199Y0234668D01*
X0289199Y0234668D02*
X0289199Y0249628D01*
X0278963Y0249628D01*
X0278963Y0234668D01*
X0289199Y0234668D01*
X0249199Y0234668D02*
X0249199Y0249628D01*
X0238963Y0249628D01*
X0238963Y0234668D01*
X0249199Y0234668D01*
X0209199Y0234668D02*
X0209199Y0249628D01*
X0198963Y0249628D01*
X0198963Y0234668D01*
X0209199Y0234668D01*
X0169199Y0234668D02*
X0169199Y0249628D01*
X0158963Y0249628D01*
X0158963Y0234668D01*
X0169199Y0234668D01*
X0129199Y0234668D02*
X0129199Y0249628D01*
X0118963Y0249628D01*
X0118963Y0234668D01*
X0129199Y0234668D01*
X0129199Y0274668D02*
X0118963Y0274668D01*
X0118963Y0289628D01*
X0129199Y0289628D01*
X0129199Y0274668D01*
X0158963Y0274668D02*
X0169199Y0274668D01*
X0169199Y0289628D01*
X0158963Y0289628D01*
X0158963Y0274668D01*
X0198963Y0274668D02*
X0209199Y0274668D01*
X0209199Y0289628D01*
X0198963Y0289628D01*
X0198963Y0274668D01*
X0238963Y0274668D02*
X0249199Y0274668D01*
X0249199Y0289628D01*
X0238963Y0289628D01*
X0238963Y0274668D01*
X0278963Y0274668D02*
X0289199Y0274668D01*
X0289199Y0289628D01*
X0278963Y0289628D01*
X0278963Y0274668D01*
X0318963Y0274668D02*
X0329199Y0274668D01*
X0329199Y0289628D01*
X0318963Y0289628D01*
X0318963Y0274668D01*
X0358963Y0274668D02*
X0369199Y0274668D01*
X0369199Y0289628D01*
X0358963Y0289628D01*
X0358963Y0274668D01*
M02*
