%
M48
M72
T01C0.0120
%
T01
X12208Y3515
X12608Y4565
X16208Y3515
X16608Y4565
X16208Y7515
X16608Y8565
X16208Y11515
X16608Y12565
X20208Y11515
X20608Y12565
X24208Y11515
X24608Y12565
X28208Y11515
X28608Y12565
X32208Y11515
X32608Y12565
X36208Y11515
X36608Y12565
X36208Y15515
X36608Y16565
X36208Y19515
X36608Y20565
X36208Y23515
X36608Y24565
X36208Y27515
X36608Y28565
X32608Y28565
X32208Y27515
X28608Y28565
X28208Y27515
X24608Y28565
X24208Y27515
X24608Y24565
X24208Y23515
X24608Y20565
X24208Y19515
X24608Y16565
X24208Y15515
X20608Y16565
X20208Y15515
X16608Y16565
X16208Y15515
X12608Y16565
X12208Y15515
X12608Y12565
X12208Y11515
X12608Y8565
X12208Y7515
X20208Y7515
X20608Y8565
X24208Y7515
X24608Y8565
X28208Y7515
X28608Y8565
X32208Y7515
X32608Y8565
X36208Y7515
X36608Y8565
X36608Y4565
X36208Y3515
X32608Y4565
X32208Y3515
X28608Y4565
X28208Y3515
X24608Y4565
X24208Y3515
X20608Y4565
X20208Y3515
X28208Y15515
X28608Y16565
X32208Y15515
X32608Y16565
X32208Y19515
X32608Y20565
X32208Y23515
X32608Y24565
X28608Y24565
X28208Y23515
X28608Y20565
X28208Y19515
X20608Y20565
X20208Y19515
X16608Y20565
X16208Y19515
X12608Y20565
X12208Y19515
X12208Y23515
X12608Y24565
X16208Y23515
X16608Y24565
X16208Y27515
X16608Y28565
X20208Y27515
X20608Y28565
X20608Y24565
X20208Y23515
X12608Y28565
X12208Y27515
M30
