G75*
%MOIN*%
%OFA0B0*%
%FSLAX25Y25*%
%IPPOS*%
%LPD*%
%AMOC8*
5,1,8,0,0,1.08239X$1,22.5*
%
%ADD10C,0.00600*%
%ADD11C,0.01100*%
%ADD12C,0.00500*%
%ADD13C,0.00800*%
D10*
X0109081Y0027148D02*
X0109081Y0057648D01*
X0117181Y0057648D01*
X0117181Y0055148D01*
X0117192Y0054943D02*
X0130971Y0054943D01*
X0130971Y0029353D01*
X0117192Y0029353D01*
X0117192Y0054943D01*
X0117181Y0067148D02*
X0109081Y0067148D01*
X0109081Y0097648D01*
X0117181Y0097648D01*
X0117181Y0095148D01*
X0117192Y0094943D02*
X0130971Y0094943D01*
X0130971Y0069353D01*
X0117192Y0069353D01*
X0117192Y0094943D01*
X0130981Y0095148D02*
X0130981Y0097648D01*
X0139081Y0097648D01*
X0139081Y0067148D01*
X0130981Y0067148D01*
X0130981Y0069148D01*
X0117181Y0069148D02*
X0117181Y0067148D01*
X0130981Y0057648D02*
X0139081Y0057648D01*
X0139081Y0027148D01*
X0130981Y0027148D01*
X0130981Y0029148D01*
X0117181Y0029148D02*
X0117181Y0027148D01*
X0109081Y0027148D01*
X0130981Y0055148D02*
X0130981Y0057648D01*
X0149081Y0057648D02*
X0157181Y0057648D01*
X0157181Y0055148D01*
X0157192Y0054943D02*
X0170971Y0054943D01*
X0170971Y0029353D01*
X0157192Y0029353D01*
X0157192Y0054943D01*
X0149081Y0057648D02*
X0149081Y0027148D01*
X0157181Y0027148D01*
X0157181Y0029148D01*
X0170981Y0029148D02*
X0170981Y0027148D01*
X0179081Y0027148D01*
X0179081Y0057648D01*
X0170981Y0057648D01*
X0170981Y0055148D01*
X0170981Y0067148D02*
X0179081Y0067148D01*
X0179081Y0097648D01*
X0170981Y0097648D01*
X0170981Y0095148D01*
X0170971Y0094943D02*
X0170971Y0069353D01*
X0157192Y0069353D01*
X0157192Y0094943D01*
X0170971Y0094943D01*
X0157181Y0095148D02*
X0157181Y0097648D01*
X0149081Y0097648D01*
X0149081Y0067148D01*
X0157181Y0067148D01*
X0157181Y0069148D01*
X0170981Y0069148D02*
X0170981Y0067148D01*
X0189081Y0067148D02*
X0189081Y0097648D01*
X0197181Y0097648D01*
X0197181Y0095148D01*
X0197192Y0094943D02*
X0210971Y0094943D01*
X0210971Y0069353D01*
X0197192Y0069353D01*
X0197192Y0094943D01*
X0197181Y0107148D02*
X0189081Y0107148D01*
X0189081Y0137648D01*
X0197181Y0137648D01*
X0197181Y0135148D01*
X0197192Y0134943D02*
X0210971Y0134943D01*
X0210971Y0109353D01*
X0197192Y0109353D01*
X0197192Y0134943D01*
X0197181Y0147148D02*
X0189081Y0147148D01*
X0189081Y0177648D01*
X0197181Y0177648D01*
X0197181Y0175148D01*
X0197192Y0174943D02*
X0210971Y0174943D01*
X0210971Y0149353D01*
X0197192Y0149353D01*
X0197192Y0174943D01*
X0197181Y0187148D02*
X0189081Y0187148D01*
X0189081Y0217648D01*
X0197181Y0217648D01*
X0197181Y0215148D01*
X0197192Y0214943D02*
X0210971Y0214943D01*
X0210971Y0189353D01*
X0197192Y0189353D01*
X0197192Y0214943D01*
X0197181Y0227148D02*
X0189081Y0227148D01*
X0189081Y0257648D01*
X0197181Y0257648D01*
X0197181Y0255148D01*
X0197192Y0254943D02*
X0210971Y0254943D01*
X0210971Y0229353D01*
X0197192Y0229353D01*
X0197192Y0254943D01*
X0197181Y0267148D02*
X0189081Y0267148D01*
X0189081Y0297648D01*
X0197181Y0297648D01*
X0197181Y0295148D01*
X0197192Y0294943D02*
X0210971Y0294943D01*
X0210971Y0269353D01*
X0197192Y0269353D01*
X0197192Y0294943D01*
X0210981Y0295148D02*
X0210981Y0297648D01*
X0219081Y0297648D01*
X0219081Y0267148D01*
X0210981Y0267148D01*
X0210981Y0269148D01*
X0210981Y0257648D02*
X0219081Y0257648D01*
X0219081Y0227148D01*
X0210981Y0227148D01*
X0210981Y0229148D01*
X0210981Y0217648D02*
X0219081Y0217648D01*
X0219081Y0187148D01*
X0210981Y0187148D01*
X0210981Y0189148D01*
X0210981Y0177648D02*
X0219081Y0177648D01*
X0219081Y0147148D01*
X0210981Y0147148D01*
X0210981Y0149148D01*
X0210981Y0137648D02*
X0219081Y0137648D01*
X0219081Y0107148D01*
X0210981Y0107148D01*
X0210981Y0109148D01*
X0210981Y0097648D02*
X0219081Y0097648D01*
X0219081Y0067148D01*
X0210981Y0067148D01*
X0210981Y0069148D01*
X0210981Y0057648D02*
X0219081Y0057648D01*
X0219081Y0027148D01*
X0210981Y0027148D01*
X0210981Y0029148D01*
X0210971Y0029353D02*
X0210971Y0054943D01*
X0197192Y0054943D01*
X0197192Y0029353D01*
X0210971Y0029353D01*
X0197181Y0029148D02*
X0197181Y0027148D01*
X0189081Y0027148D01*
X0189081Y0057648D01*
X0197181Y0057648D01*
X0197181Y0055148D01*
X0197181Y0067148D02*
X0189081Y0067148D01*
X0197181Y0067148D02*
X0197181Y0069148D01*
X0210981Y0057648D02*
X0210981Y0055148D01*
X0229081Y0057648D02*
X0237181Y0057648D01*
X0237181Y0055148D01*
X0237192Y0054943D02*
X0250971Y0054943D01*
X0250971Y0029353D01*
X0237192Y0029353D01*
X0237192Y0054943D01*
X0229081Y0057648D02*
X0229081Y0027148D01*
X0237181Y0027148D01*
X0237181Y0029148D01*
X0250981Y0029148D02*
X0250981Y0027148D01*
X0259081Y0027148D01*
X0259081Y0057648D01*
X0250981Y0057648D01*
X0250981Y0055148D01*
X0250981Y0067148D02*
X0259081Y0067148D01*
X0259081Y0097648D01*
X0250981Y0097648D01*
X0250981Y0095148D01*
X0250971Y0094943D02*
X0250971Y0069353D01*
X0237192Y0069353D01*
X0237192Y0094943D01*
X0250971Y0094943D01*
X0237181Y0095148D02*
X0237181Y0097648D01*
X0229081Y0097648D01*
X0229081Y0067148D01*
X0237181Y0067148D01*
X0237181Y0069148D01*
X0250981Y0069148D02*
X0250981Y0067148D01*
X0269081Y0067148D02*
X0269081Y0097648D01*
X0277181Y0097648D01*
X0277181Y0095148D01*
X0277192Y0094943D02*
X0290971Y0094943D01*
X0290971Y0069353D01*
X0277192Y0069353D01*
X0277192Y0094943D01*
X0290981Y0095148D02*
X0290981Y0097648D01*
X0299081Y0097648D01*
X0299081Y0067148D01*
X0290981Y0067148D01*
X0290981Y0069148D01*
X0277181Y0069148D02*
X0277181Y0067148D01*
X0269081Y0067148D01*
X0269081Y0057648D02*
X0277181Y0057648D01*
X0277181Y0055148D01*
X0277192Y0054943D02*
X0290971Y0054943D01*
X0290971Y0029353D01*
X0277192Y0029353D01*
X0277192Y0054943D01*
X0269081Y0057648D02*
X0269081Y0027148D01*
X0277181Y0027148D01*
X0277181Y0029148D01*
X0290981Y0029148D02*
X0290981Y0027148D01*
X0299081Y0027148D01*
X0299081Y0057648D01*
X0290981Y0057648D01*
X0290981Y0055148D01*
X0309081Y0057648D02*
X0317181Y0057648D01*
X0317181Y0055148D01*
X0317192Y0054943D02*
X0330971Y0054943D01*
X0330971Y0029353D01*
X0317192Y0029353D01*
X0317192Y0054943D01*
X0309081Y0057648D02*
X0309081Y0027148D01*
X0317181Y0027148D01*
X0317181Y0029148D01*
X0330981Y0029148D02*
X0330981Y0027148D01*
X0339081Y0027148D01*
X0339081Y0057648D01*
X0330981Y0057648D01*
X0330981Y0055148D01*
X0330981Y0067148D02*
X0339081Y0067148D01*
X0339081Y0097648D01*
X0330981Y0097648D01*
X0330981Y0095148D01*
X0330971Y0094943D02*
X0330971Y0069353D01*
X0317192Y0069353D01*
X0317192Y0094943D01*
X0330971Y0094943D01*
X0330981Y0107148D02*
X0339081Y0107148D01*
X0339081Y0137648D01*
X0330981Y0137648D01*
X0330981Y0135148D01*
X0330971Y0134943D02*
X0330971Y0109353D01*
X0317192Y0109353D01*
X0317192Y0134943D01*
X0330971Y0134943D01*
X0330981Y0147148D02*
X0339081Y0147148D01*
X0339081Y0177648D01*
X0330981Y0177648D01*
X0330981Y0175148D01*
X0330971Y0174943D02*
X0330971Y0149353D01*
X0317192Y0149353D01*
X0317192Y0174943D01*
X0330971Y0174943D01*
X0330981Y0187148D02*
X0339081Y0187148D01*
X0339081Y0217648D01*
X0330981Y0217648D01*
X0330981Y0215148D01*
X0330971Y0214943D02*
X0330971Y0189353D01*
X0317192Y0189353D01*
X0317192Y0214943D01*
X0330971Y0214943D01*
X0330981Y0227148D02*
X0339081Y0227148D01*
X0339081Y0257648D01*
X0330981Y0257648D01*
X0330981Y0255148D01*
X0330971Y0254943D02*
X0330971Y0229353D01*
X0317192Y0229353D01*
X0317192Y0254943D01*
X0330971Y0254943D01*
X0330981Y0267148D02*
X0339081Y0267148D01*
X0339081Y0297648D01*
X0330981Y0297648D01*
X0330981Y0295148D01*
X0330971Y0294943D02*
X0330971Y0269353D01*
X0317192Y0269353D01*
X0317192Y0294943D01*
X0330971Y0294943D01*
X0317181Y0295148D02*
X0317181Y0297648D01*
X0309081Y0297648D01*
X0309081Y0267148D01*
X0317181Y0267148D01*
X0317181Y0269148D01*
X0317181Y0257648D02*
X0309081Y0257648D01*
X0309081Y0227148D01*
X0317181Y0227148D01*
X0317181Y0229148D01*
X0317181Y0217648D02*
X0309081Y0217648D01*
X0309081Y0187148D01*
X0317181Y0187148D01*
X0317181Y0189148D01*
X0317181Y0177648D02*
X0309081Y0177648D01*
X0309081Y0147148D01*
X0317181Y0147148D01*
X0317181Y0149148D01*
X0317181Y0137648D02*
X0309081Y0137648D01*
X0309081Y0107148D01*
X0317181Y0107148D01*
X0317181Y0109148D01*
X0317181Y0097648D02*
X0309081Y0097648D01*
X0309081Y0067148D01*
X0317181Y0067148D01*
X0317181Y0069148D01*
X0330981Y0069148D02*
X0330981Y0067148D01*
X0349081Y0067148D02*
X0349081Y0097648D01*
X0357181Y0097648D01*
X0357181Y0095148D01*
X0357192Y0094943D02*
X0370971Y0094943D01*
X0370971Y0069353D01*
X0357192Y0069353D01*
X0357192Y0094943D01*
X0370981Y0095148D02*
X0370981Y0097648D01*
X0379081Y0097648D01*
X0379081Y0067148D01*
X0370981Y0067148D01*
X0370981Y0069148D01*
X0357181Y0069148D02*
X0357181Y0067148D01*
X0349081Y0067148D01*
X0349081Y0057648D02*
X0357181Y0057648D01*
X0357181Y0055148D01*
X0357192Y0054943D02*
X0370971Y0054943D01*
X0370971Y0029353D01*
X0357192Y0029353D01*
X0357192Y0054943D01*
X0349081Y0057648D02*
X0349081Y0027148D01*
X0357181Y0027148D01*
X0357181Y0029148D01*
X0370981Y0029148D02*
X0370981Y0027148D01*
X0379081Y0027148D01*
X0379081Y0057648D01*
X0370981Y0057648D01*
X0370981Y0055148D01*
X0317181Y0095148D02*
X0317181Y0097648D01*
X0330981Y0107148D02*
X0330981Y0109148D01*
X0349081Y0107148D02*
X0349081Y0137648D01*
X0357181Y0137648D01*
X0357181Y0135148D01*
X0357192Y0134943D02*
X0370971Y0134943D01*
X0370971Y0109353D01*
X0357192Y0109353D01*
X0357192Y0134943D01*
X0370981Y0135148D02*
X0370981Y0137648D01*
X0379081Y0137648D01*
X0379081Y0107148D01*
X0370981Y0107148D01*
X0370981Y0109148D01*
X0357181Y0109148D02*
X0357181Y0107148D01*
X0349081Y0107148D01*
X0317181Y0135148D02*
X0317181Y0137648D01*
X0330981Y0147148D02*
X0330981Y0149148D01*
X0349081Y0147148D02*
X0349081Y0177648D01*
X0357181Y0177648D01*
X0357181Y0175148D01*
X0357192Y0174943D02*
X0370971Y0174943D01*
X0370971Y0149353D01*
X0357192Y0149353D01*
X0357192Y0174943D01*
X0357181Y0187148D02*
X0349081Y0187148D01*
X0349081Y0217648D01*
X0357181Y0217648D01*
X0357181Y0215148D01*
X0357192Y0214943D02*
X0370971Y0214943D01*
X0370971Y0189353D01*
X0357192Y0189353D01*
X0357192Y0214943D01*
X0370981Y0215148D02*
X0370981Y0217648D01*
X0379081Y0217648D01*
X0379081Y0187148D01*
X0370981Y0187148D01*
X0370981Y0189148D01*
X0370981Y0177648D02*
X0379081Y0177648D01*
X0379081Y0147148D01*
X0370981Y0147148D01*
X0370981Y0149148D01*
X0357181Y0149148D02*
X0357181Y0147148D01*
X0349081Y0147148D01*
X0370981Y0175148D02*
X0370981Y0177648D01*
X0357181Y0187148D02*
X0357181Y0189148D01*
X0330981Y0189148D02*
X0330981Y0187148D01*
X0317181Y0177648D02*
X0317181Y0175148D01*
X0299081Y0177648D02*
X0290981Y0177648D01*
X0290981Y0175148D01*
X0290971Y0174943D02*
X0290971Y0149353D01*
X0277192Y0149353D01*
X0277192Y0174943D01*
X0290971Y0174943D01*
X0299081Y0177648D02*
X0299081Y0147148D01*
X0290981Y0147148D01*
X0290981Y0149148D01*
X0277181Y0149148D02*
X0277181Y0147148D01*
X0269081Y0147148D01*
X0269081Y0177648D01*
X0277181Y0177648D01*
X0277181Y0175148D01*
X0277181Y0187148D02*
X0269081Y0187148D01*
X0269081Y0217648D01*
X0277181Y0217648D01*
X0277181Y0215148D01*
X0277192Y0214943D02*
X0290971Y0214943D01*
X0290971Y0189353D01*
X0277192Y0189353D01*
X0277192Y0214943D01*
X0290981Y0215148D02*
X0290981Y0217648D01*
X0299081Y0217648D01*
X0299081Y0187148D01*
X0290981Y0187148D01*
X0290981Y0189148D01*
X0277181Y0189148D02*
X0277181Y0187148D01*
X0259081Y0187148D02*
X0250981Y0187148D01*
X0250981Y0189148D01*
X0250971Y0189353D02*
X0250971Y0214943D01*
X0237192Y0214943D01*
X0237192Y0189353D01*
X0250971Y0189353D01*
X0259081Y0187148D02*
X0259081Y0217648D01*
X0250981Y0217648D01*
X0250981Y0215148D01*
X0237181Y0215148D02*
X0237181Y0217648D01*
X0229081Y0217648D01*
X0229081Y0187148D01*
X0237181Y0187148D01*
X0237181Y0189148D01*
X0237181Y0177648D02*
X0229081Y0177648D01*
X0229081Y0147148D01*
X0237181Y0147148D01*
X0237181Y0149148D01*
X0237192Y0149353D02*
X0237192Y0174943D01*
X0250971Y0174943D01*
X0250971Y0149353D01*
X0237192Y0149353D01*
X0250981Y0149148D02*
X0250981Y0147148D01*
X0259081Y0147148D01*
X0259081Y0177648D01*
X0250981Y0177648D01*
X0250981Y0175148D01*
X0237181Y0175148D02*
X0237181Y0177648D01*
X0210981Y0177648D02*
X0210981Y0175148D01*
X0197181Y0187148D02*
X0197181Y0189148D01*
X0179081Y0187148D02*
X0170981Y0187148D01*
X0170981Y0189148D01*
X0170971Y0189353D02*
X0170971Y0214943D01*
X0157192Y0214943D01*
X0157192Y0189353D01*
X0170971Y0189353D01*
X0179081Y0187148D02*
X0179081Y0217648D01*
X0170981Y0217648D01*
X0170981Y0215148D01*
X0157181Y0215148D02*
X0157181Y0217648D01*
X0149081Y0217648D01*
X0149081Y0187148D01*
X0157181Y0187148D01*
X0157181Y0189148D01*
X0157181Y0177648D02*
X0149081Y0177648D01*
X0149081Y0147148D01*
X0157181Y0147148D01*
X0157181Y0149148D01*
X0157192Y0149353D02*
X0157192Y0174943D01*
X0170971Y0174943D01*
X0170971Y0149353D01*
X0157192Y0149353D01*
X0170981Y0149148D02*
X0170981Y0147148D01*
X0179081Y0147148D01*
X0179081Y0177648D01*
X0170981Y0177648D01*
X0170981Y0175148D01*
X0157181Y0175148D02*
X0157181Y0177648D01*
X0139081Y0177648D02*
X0130981Y0177648D01*
X0130981Y0175148D01*
X0130971Y0174943D02*
X0130971Y0149353D01*
X0117192Y0149353D01*
X0117192Y0174943D01*
X0130971Y0174943D01*
X0139081Y0177648D02*
X0139081Y0147148D01*
X0130981Y0147148D01*
X0130981Y0149148D01*
X0117181Y0149148D02*
X0117181Y0147148D01*
X0109081Y0147148D01*
X0109081Y0177648D01*
X0117181Y0177648D01*
X0117181Y0175148D01*
X0117181Y0187148D02*
X0109081Y0187148D01*
X0109081Y0217648D01*
X0117181Y0217648D01*
X0117181Y0215148D01*
X0117192Y0214943D02*
X0130971Y0214943D01*
X0130971Y0189353D01*
X0117192Y0189353D01*
X0117192Y0214943D01*
X0130981Y0215148D02*
X0130981Y0217648D01*
X0139081Y0217648D01*
X0139081Y0187148D01*
X0130981Y0187148D01*
X0130981Y0189148D01*
X0117181Y0189148D02*
X0117181Y0187148D01*
X0117181Y0227148D02*
X0109081Y0227148D01*
X0109081Y0257648D01*
X0117181Y0257648D01*
X0117181Y0255148D01*
X0117192Y0254943D02*
X0130971Y0254943D01*
X0130971Y0229353D01*
X0117192Y0229353D01*
X0117192Y0254943D01*
X0130981Y0255148D02*
X0130981Y0257648D01*
X0139081Y0257648D01*
X0139081Y0227148D01*
X0130981Y0227148D01*
X0130981Y0229148D01*
X0117181Y0229148D02*
X0117181Y0227148D01*
X0149081Y0227148D02*
X0149081Y0257648D01*
X0157181Y0257648D01*
X0157181Y0255148D01*
X0157192Y0254943D02*
X0170971Y0254943D01*
X0170971Y0229353D01*
X0157192Y0229353D01*
X0157192Y0254943D01*
X0170981Y0255148D02*
X0170981Y0257648D01*
X0179081Y0257648D01*
X0179081Y0227148D01*
X0170981Y0227148D01*
X0170981Y0229148D01*
X0157181Y0229148D02*
X0157181Y0227148D01*
X0149081Y0227148D01*
X0197181Y0227148D02*
X0197181Y0229148D01*
X0210981Y0217648D02*
X0210981Y0215148D01*
X0229081Y0227148D02*
X0229081Y0257648D01*
X0237181Y0257648D01*
X0237181Y0255148D01*
X0237192Y0254943D02*
X0250971Y0254943D01*
X0250971Y0229353D01*
X0237192Y0229353D01*
X0237192Y0254943D01*
X0250981Y0255148D02*
X0250981Y0257648D01*
X0259081Y0257648D01*
X0259081Y0227148D01*
X0250981Y0227148D01*
X0250981Y0229148D01*
X0237181Y0229148D02*
X0237181Y0227148D01*
X0229081Y0227148D01*
X0210981Y0255148D02*
X0210981Y0257648D01*
X0197181Y0267148D02*
X0197181Y0269148D01*
X0179081Y0267148D02*
X0170981Y0267148D01*
X0170981Y0269148D01*
X0170971Y0269353D02*
X0170971Y0294943D01*
X0157192Y0294943D01*
X0157192Y0269353D01*
X0170971Y0269353D01*
X0179081Y0267148D02*
X0179081Y0297648D01*
X0170981Y0297648D01*
X0170981Y0295148D01*
X0157181Y0295148D02*
X0157181Y0297648D01*
X0149081Y0297648D01*
X0149081Y0267148D01*
X0157181Y0267148D01*
X0157181Y0269148D01*
X0139081Y0267148D02*
X0130981Y0267148D01*
X0130981Y0269148D01*
X0130971Y0269353D02*
X0130971Y0294943D01*
X0117192Y0294943D01*
X0117192Y0269353D01*
X0130971Y0269353D01*
X0139081Y0267148D02*
X0139081Y0297648D01*
X0130981Y0297648D01*
X0130981Y0295148D01*
X0117181Y0295148D02*
X0117181Y0297648D01*
X0109081Y0297648D01*
X0109081Y0267148D01*
X0117181Y0267148D01*
X0117181Y0269148D01*
X0229081Y0267148D02*
X0229081Y0297648D01*
X0237181Y0297648D01*
X0237181Y0295148D01*
X0237192Y0294943D02*
X0250971Y0294943D01*
X0250971Y0269353D01*
X0237192Y0269353D01*
X0237192Y0294943D01*
X0250981Y0295148D02*
X0250981Y0297648D01*
X0259081Y0297648D01*
X0259081Y0267148D01*
X0250981Y0267148D01*
X0250981Y0269148D01*
X0237181Y0269148D02*
X0237181Y0267148D01*
X0229081Y0267148D01*
X0269081Y0267148D02*
X0269081Y0297648D01*
X0277181Y0297648D01*
X0277181Y0295148D01*
X0277192Y0294943D02*
X0290971Y0294943D01*
X0290971Y0269353D01*
X0277192Y0269353D01*
X0277192Y0294943D01*
X0290981Y0295148D02*
X0290981Y0297648D01*
X0299081Y0297648D01*
X0299081Y0267148D01*
X0290981Y0267148D01*
X0290981Y0269148D01*
X0277181Y0269148D02*
X0277181Y0267148D01*
X0269081Y0267148D01*
X0269081Y0257648D02*
X0277181Y0257648D01*
X0277181Y0255148D01*
X0277192Y0254943D02*
X0290971Y0254943D01*
X0290971Y0229353D01*
X0277192Y0229353D01*
X0277192Y0254943D01*
X0269081Y0257648D02*
X0269081Y0227148D01*
X0277181Y0227148D01*
X0277181Y0229148D01*
X0290981Y0229148D02*
X0290981Y0227148D01*
X0299081Y0227148D01*
X0299081Y0257648D01*
X0290981Y0257648D01*
X0290981Y0255148D01*
X0317181Y0255148D02*
X0317181Y0257648D01*
X0330981Y0267148D02*
X0330981Y0269148D01*
X0349081Y0267148D02*
X0349081Y0297648D01*
X0357181Y0297648D01*
X0357181Y0295148D01*
X0357192Y0294943D02*
X0370971Y0294943D01*
X0370971Y0269353D01*
X0357192Y0269353D01*
X0357192Y0294943D01*
X0370981Y0295148D02*
X0370981Y0297648D01*
X0379081Y0297648D01*
X0379081Y0267148D01*
X0370981Y0267148D01*
X0370981Y0269148D01*
X0357181Y0269148D02*
X0357181Y0267148D01*
X0349081Y0267148D01*
X0349081Y0257648D02*
X0357181Y0257648D01*
X0357181Y0255148D01*
X0357192Y0254943D02*
X0370971Y0254943D01*
X0370971Y0229353D01*
X0357192Y0229353D01*
X0357192Y0254943D01*
X0349081Y0257648D02*
X0349081Y0227148D01*
X0357181Y0227148D01*
X0357181Y0229148D01*
X0370981Y0229148D02*
X0370981Y0227148D01*
X0379081Y0227148D01*
X0379081Y0257648D01*
X0370981Y0257648D01*
X0370981Y0255148D01*
X0330981Y0229148D02*
X0330981Y0227148D01*
X0317181Y0217648D02*
X0317181Y0215148D01*
X0299081Y0137648D02*
X0290981Y0137648D01*
X0290981Y0135148D01*
X0290971Y0134943D02*
X0290971Y0109353D01*
X0277192Y0109353D01*
X0277192Y0134943D01*
X0290971Y0134943D01*
X0299081Y0137648D02*
X0299081Y0107148D01*
X0290981Y0107148D01*
X0290981Y0109148D01*
X0277181Y0109148D02*
X0277181Y0107148D01*
X0269081Y0107148D01*
X0269081Y0137648D01*
X0277181Y0137648D01*
X0277181Y0135148D01*
X0259081Y0137648D02*
X0250981Y0137648D01*
X0250981Y0135148D01*
X0250971Y0134943D02*
X0250971Y0109353D01*
X0237192Y0109353D01*
X0237192Y0134943D01*
X0250971Y0134943D01*
X0259081Y0137648D02*
X0259081Y0107148D01*
X0250981Y0107148D01*
X0250981Y0109148D01*
X0237181Y0109148D02*
X0237181Y0107148D01*
X0229081Y0107148D01*
X0229081Y0137648D01*
X0237181Y0137648D01*
X0237181Y0135148D01*
X0210981Y0135148D02*
X0210981Y0137648D01*
X0197181Y0147148D02*
X0197181Y0149148D01*
X0179081Y0137648D02*
X0170981Y0137648D01*
X0170981Y0135148D01*
X0170971Y0134943D02*
X0170971Y0109353D01*
X0157192Y0109353D01*
X0157192Y0134943D01*
X0170971Y0134943D01*
X0179081Y0137648D02*
X0179081Y0107148D01*
X0170981Y0107148D01*
X0170981Y0109148D01*
X0157181Y0109148D02*
X0157181Y0107148D01*
X0149081Y0107148D01*
X0149081Y0137648D01*
X0157181Y0137648D01*
X0157181Y0135148D01*
X0139081Y0137648D02*
X0130981Y0137648D01*
X0130981Y0135148D01*
X0130971Y0134943D02*
X0130971Y0109353D01*
X0117192Y0109353D01*
X0117192Y0134943D01*
X0130971Y0134943D01*
X0139081Y0137648D02*
X0139081Y0107148D01*
X0130981Y0107148D01*
X0130981Y0109148D01*
X0117181Y0109148D02*
X0117181Y0107148D01*
X0109081Y0107148D01*
X0109081Y0137648D01*
X0117181Y0137648D01*
X0117181Y0135148D01*
X0197181Y0109148D02*
X0197181Y0107148D01*
X0210981Y0097648D02*
X0210981Y0095148D01*
D11*
X0007820Y0030887D02*
X0005852Y0026950D01*
X0003883Y0030887D01*
X0010329Y0029903D02*
X0011313Y0028918D01*
X0013281Y0028918D01*
X0014266Y0027934D01*
X0013281Y0026950D01*
X0010329Y0026950D01*
X0010329Y0029903D02*
X0011313Y0030887D01*
X0014266Y0030887D01*
X0016774Y0029903D02*
X0016774Y0027934D01*
X0017758Y0026950D01*
X0020711Y0026950D01*
X0023220Y0027934D02*
X0023220Y0029903D01*
X0024204Y0030887D01*
X0026172Y0030887D01*
X0027157Y0029903D01*
X0027157Y0027934D01*
X0026172Y0026950D01*
X0024204Y0026950D01*
X0023220Y0027934D01*
X0020711Y0030887D02*
X0017758Y0030887D01*
X0016774Y0029903D01*
X0029665Y0030887D02*
X0029665Y0026950D01*
X0029665Y0028918D02*
X0031634Y0030887D01*
X0032618Y0030887D01*
X0035037Y0029903D02*
X0035037Y0027934D01*
X0036021Y0026950D01*
X0037989Y0026950D01*
X0038973Y0028918D02*
X0035037Y0028918D01*
X0035037Y0029903D02*
X0036021Y0030887D01*
X0037989Y0030887D01*
X0038973Y0029903D01*
X0038973Y0028918D01*
X0037989Y0051950D02*
X0036021Y0051950D01*
X0035037Y0052934D01*
X0035037Y0054903D01*
X0036021Y0055887D01*
X0037989Y0055887D01*
X0038973Y0054903D01*
X0038973Y0053918D01*
X0035037Y0053918D01*
X0032618Y0055887D02*
X0031634Y0055887D01*
X0029665Y0053918D01*
X0029665Y0051950D02*
X0029665Y0055887D01*
X0027157Y0054903D02*
X0026172Y0055887D01*
X0024204Y0055887D01*
X0023220Y0054903D01*
X0023220Y0052934D01*
X0024204Y0051950D01*
X0026172Y0051950D01*
X0027157Y0052934D01*
X0027157Y0054903D01*
X0020711Y0055887D02*
X0017758Y0055887D01*
X0016774Y0054903D01*
X0016774Y0052934D01*
X0017758Y0051950D01*
X0020711Y0051950D01*
X0014266Y0052934D02*
X0013281Y0053918D01*
X0011313Y0053918D01*
X0010329Y0054903D01*
X0011313Y0055887D01*
X0014266Y0055887D01*
X0014266Y0052934D02*
X0013281Y0051950D01*
X0010329Y0051950D01*
X0005852Y0051950D02*
X0007820Y0055887D01*
X0003883Y0055887D02*
X0005852Y0051950D01*
X0005852Y0066950D02*
X0007820Y0070887D01*
X0010329Y0069903D02*
X0011313Y0070887D01*
X0014266Y0070887D01*
X0013281Y0068918D02*
X0011313Y0068918D01*
X0010329Y0069903D01*
X0010329Y0066950D02*
X0013281Y0066950D01*
X0014266Y0067934D01*
X0013281Y0068918D01*
X0016774Y0067934D02*
X0017758Y0066950D01*
X0020711Y0066950D01*
X0023220Y0067934D02*
X0024204Y0066950D01*
X0026172Y0066950D01*
X0027157Y0067934D01*
X0027157Y0069903D01*
X0026172Y0070887D01*
X0024204Y0070887D01*
X0023220Y0069903D01*
X0023220Y0067934D01*
X0020711Y0070887D02*
X0017758Y0070887D01*
X0016774Y0069903D01*
X0016774Y0067934D01*
X0005852Y0066950D02*
X0003883Y0070887D01*
X0029665Y0070887D02*
X0029665Y0066950D01*
X0029665Y0068918D02*
X0031634Y0070887D01*
X0032618Y0070887D01*
X0035037Y0069903D02*
X0036021Y0070887D01*
X0037989Y0070887D01*
X0038973Y0069903D01*
X0038973Y0068918D01*
X0035037Y0068918D01*
X0035037Y0067934D02*
X0035037Y0069903D01*
X0035037Y0067934D02*
X0036021Y0066950D01*
X0037989Y0066950D01*
X0037989Y0091950D02*
X0036021Y0091950D01*
X0035037Y0092934D01*
X0035037Y0094903D01*
X0036021Y0095887D01*
X0037989Y0095887D01*
X0038973Y0094903D01*
X0038973Y0093918D01*
X0035037Y0093918D01*
X0032618Y0095887D02*
X0031634Y0095887D01*
X0029665Y0093918D01*
X0029665Y0091950D02*
X0029665Y0095887D01*
X0027157Y0094903D02*
X0026172Y0095887D01*
X0024204Y0095887D01*
X0023220Y0094903D01*
X0023220Y0092934D01*
X0024204Y0091950D01*
X0026172Y0091950D01*
X0027157Y0092934D01*
X0027157Y0094903D01*
X0020711Y0095887D02*
X0017758Y0095887D01*
X0016774Y0094903D01*
X0016774Y0092934D01*
X0017758Y0091950D01*
X0020711Y0091950D01*
X0014266Y0092934D02*
X0013281Y0093918D01*
X0011313Y0093918D01*
X0010329Y0094903D01*
X0011313Y0095887D01*
X0014266Y0095887D01*
X0014266Y0092934D02*
X0013281Y0091950D01*
X0010329Y0091950D01*
X0005852Y0091950D02*
X0007820Y0095887D01*
X0003883Y0095887D02*
X0005852Y0091950D01*
X0005852Y0106950D02*
X0007820Y0110887D01*
X0010329Y0109903D02*
X0011313Y0108918D01*
X0013281Y0108918D01*
X0014266Y0107934D01*
X0013281Y0106950D01*
X0010329Y0106950D01*
X0010329Y0109903D02*
X0011313Y0110887D01*
X0014266Y0110887D01*
X0016774Y0109903D02*
X0016774Y0107934D01*
X0017758Y0106950D01*
X0020711Y0106950D01*
X0023220Y0107934D02*
X0023220Y0109903D01*
X0024204Y0110887D01*
X0026172Y0110887D01*
X0027157Y0109903D01*
X0027157Y0107934D01*
X0026172Y0106950D01*
X0024204Y0106950D01*
X0023220Y0107934D01*
X0020711Y0110887D02*
X0017758Y0110887D01*
X0016774Y0109903D01*
X0005852Y0106950D02*
X0003883Y0110887D01*
X0005852Y0131950D02*
X0007820Y0135887D01*
X0010329Y0134903D02*
X0011313Y0135887D01*
X0014266Y0135887D01*
X0013281Y0133918D02*
X0011313Y0133918D01*
X0010329Y0134903D01*
X0010329Y0131950D02*
X0013281Y0131950D01*
X0014266Y0132934D01*
X0013281Y0133918D01*
X0016774Y0132934D02*
X0017758Y0131950D01*
X0020711Y0131950D01*
X0023220Y0132934D02*
X0024204Y0131950D01*
X0026172Y0131950D01*
X0027157Y0132934D01*
X0027157Y0134903D01*
X0026172Y0135887D01*
X0024204Y0135887D01*
X0023220Y0134903D01*
X0023220Y0132934D01*
X0020711Y0135887D02*
X0017758Y0135887D01*
X0016774Y0134903D01*
X0016774Y0132934D01*
X0005852Y0131950D02*
X0003883Y0135887D01*
X0005852Y0146950D02*
X0007820Y0150887D01*
X0010329Y0149903D02*
X0011313Y0150887D01*
X0014266Y0150887D01*
X0013281Y0148918D02*
X0011313Y0148918D01*
X0010329Y0149903D01*
X0010329Y0146950D02*
X0013281Y0146950D01*
X0014266Y0147934D01*
X0013281Y0148918D01*
X0016774Y0147934D02*
X0016774Y0149903D01*
X0017758Y0150887D01*
X0020711Y0150887D01*
X0023220Y0149903D02*
X0023220Y0147934D01*
X0024204Y0146950D01*
X0026172Y0146950D01*
X0027157Y0147934D01*
X0027157Y0149903D01*
X0026172Y0150887D01*
X0024204Y0150887D01*
X0023220Y0149903D01*
X0020711Y0146950D02*
X0017758Y0146950D01*
X0016774Y0147934D01*
X0005852Y0146950D02*
X0003883Y0150887D01*
X0029665Y0150887D02*
X0029665Y0146950D01*
X0029665Y0148918D02*
X0031634Y0150887D01*
X0032618Y0150887D01*
X0035037Y0149903D02*
X0035037Y0147934D01*
X0036021Y0146950D01*
X0037989Y0146950D01*
X0038973Y0148918D02*
X0035037Y0148918D01*
X0035037Y0149903D02*
X0036021Y0150887D01*
X0037989Y0150887D01*
X0038973Y0149903D01*
X0038973Y0148918D01*
X0037989Y0135887D02*
X0038973Y0134903D01*
X0038973Y0133918D01*
X0035037Y0133918D01*
X0035037Y0132934D02*
X0035037Y0134903D01*
X0036021Y0135887D01*
X0037989Y0135887D01*
X0035037Y0132934D02*
X0036021Y0131950D01*
X0037989Y0131950D01*
X0032618Y0135887D02*
X0031634Y0135887D01*
X0029665Y0133918D01*
X0029665Y0131950D02*
X0029665Y0135887D01*
X0029665Y0110887D02*
X0029665Y0106950D01*
X0029665Y0108918D02*
X0031634Y0110887D01*
X0032618Y0110887D01*
X0035037Y0109903D02*
X0035037Y0107934D01*
X0036021Y0106950D01*
X0037989Y0106950D01*
X0038973Y0108918D02*
X0035037Y0108918D01*
X0035037Y0109903D02*
X0036021Y0110887D01*
X0037989Y0110887D01*
X0038973Y0109903D01*
X0038973Y0108918D01*
X0037989Y0171950D02*
X0036021Y0171950D01*
X0035037Y0172934D01*
X0035037Y0174903D01*
X0036021Y0175887D01*
X0037989Y0175887D01*
X0038973Y0174903D01*
X0038973Y0173918D01*
X0035037Y0173918D01*
X0032618Y0175887D02*
X0031634Y0175887D01*
X0029665Y0173918D01*
X0029665Y0171950D02*
X0029665Y0175887D01*
X0027157Y0174903D02*
X0026172Y0175887D01*
X0024204Y0175887D01*
X0023220Y0174903D01*
X0023220Y0172934D01*
X0024204Y0171950D01*
X0026172Y0171950D01*
X0027157Y0172934D01*
X0027157Y0174903D01*
X0020711Y0175887D02*
X0017758Y0175887D01*
X0016774Y0174903D01*
X0016774Y0172934D01*
X0017758Y0171950D01*
X0020711Y0171950D01*
X0014266Y0172934D02*
X0013281Y0173918D01*
X0011313Y0173918D01*
X0010329Y0174903D01*
X0011313Y0175887D01*
X0014266Y0175887D01*
X0014266Y0172934D02*
X0013281Y0171950D01*
X0010329Y0171950D01*
X0005852Y0171950D02*
X0007820Y0175887D01*
X0003883Y0175887D02*
X0005852Y0171950D01*
X0005852Y0186950D02*
X0007820Y0190887D01*
X0010329Y0189903D02*
X0011313Y0190887D01*
X0014266Y0190887D01*
X0013281Y0188918D02*
X0011313Y0188918D01*
X0010329Y0189903D01*
X0010329Y0186950D02*
X0013281Y0186950D01*
X0014266Y0187934D01*
X0013281Y0188918D01*
X0016774Y0187934D02*
X0017758Y0186950D01*
X0020711Y0186950D01*
X0023220Y0187934D02*
X0024204Y0186950D01*
X0026172Y0186950D01*
X0027157Y0187934D01*
X0027157Y0189903D01*
X0026172Y0190887D01*
X0024204Y0190887D01*
X0023220Y0189903D01*
X0023220Y0187934D01*
X0020711Y0190887D02*
X0017758Y0190887D01*
X0016774Y0189903D01*
X0016774Y0187934D01*
X0005852Y0186950D02*
X0003883Y0190887D01*
X0005852Y0211950D02*
X0007820Y0215887D01*
X0010329Y0214903D02*
X0011313Y0215887D01*
X0014266Y0215887D01*
X0013281Y0213918D02*
X0011313Y0213918D01*
X0010329Y0214903D01*
X0010329Y0211950D02*
X0013281Y0211950D01*
X0014266Y0212934D01*
X0013281Y0213918D01*
X0016774Y0212934D02*
X0016774Y0214903D01*
X0017758Y0215887D01*
X0020711Y0215887D01*
X0023220Y0214903D02*
X0023220Y0212934D01*
X0024204Y0211950D01*
X0026172Y0211950D01*
X0027157Y0212934D01*
X0027157Y0214903D01*
X0026172Y0215887D01*
X0024204Y0215887D01*
X0023220Y0214903D01*
X0020711Y0211950D02*
X0017758Y0211950D01*
X0016774Y0212934D01*
X0005852Y0211950D02*
X0003883Y0215887D01*
X0005852Y0226950D02*
X0007820Y0230887D01*
X0010329Y0229903D02*
X0011313Y0228918D01*
X0013281Y0228918D01*
X0014266Y0227934D01*
X0013281Y0226950D01*
X0010329Y0226950D01*
X0010329Y0229903D02*
X0011313Y0230887D01*
X0014266Y0230887D01*
X0016774Y0229903D02*
X0016774Y0227934D01*
X0017758Y0226950D01*
X0020711Y0226950D01*
X0023220Y0227934D02*
X0023220Y0229903D01*
X0024204Y0230887D01*
X0026172Y0230887D01*
X0027157Y0229903D01*
X0027157Y0227934D01*
X0026172Y0226950D01*
X0024204Y0226950D01*
X0023220Y0227934D01*
X0020711Y0230887D02*
X0017758Y0230887D01*
X0016774Y0229903D01*
X0005852Y0226950D02*
X0003883Y0230887D01*
X0029665Y0230887D02*
X0029665Y0226950D01*
X0029665Y0228918D02*
X0031634Y0230887D01*
X0032618Y0230887D01*
X0035037Y0229903D02*
X0035037Y0227934D01*
X0036021Y0226950D01*
X0037989Y0226950D01*
X0038973Y0228918D02*
X0035037Y0228918D01*
X0035037Y0229903D02*
X0036021Y0230887D01*
X0037989Y0230887D01*
X0038973Y0229903D01*
X0038973Y0228918D01*
X0037989Y0215887D02*
X0038973Y0214903D01*
X0038973Y0213918D01*
X0035037Y0213918D01*
X0035037Y0212934D02*
X0035037Y0214903D01*
X0036021Y0215887D01*
X0037989Y0215887D01*
X0037989Y0211950D02*
X0036021Y0211950D01*
X0035037Y0212934D01*
X0032618Y0215887D02*
X0031634Y0215887D01*
X0029665Y0213918D01*
X0029665Y0211950D02*
X0029665Y0215887D01*
X0029665Y0190887D02*
X0029665Y0186950D01*
X0029665Y0188918D02*
X0031634Y0190887D01*
X0032618Y0190887D01*
X0035037Y0189903D02*
X0036021Y0190887D01*
X0037989Y0190887D01*
X0038973Y0189903D01*
X0038973Y0188918D01*
X0035037Y0188918D01*
X0035037Y0187934D02*
X0035037Y0189903D01*
X0035037Y0187934D02*
X0036021Y0186950D01*
X0037989Y0186950D01*
X0037989Y0251950D02*
X0036021Y0251950D01*
X0035037Y0252934D01*
X0035037Y0254903D01*
X0036021Y0255887D01*
X0037989Y0255887D01*
X0038973Y0254903D01*
X0038973Y0253918D01*
X0035037Y0253918D01*
X0032618Y0255887D02*
X0031634Y0255887D01*
X0029665Y0253918D01*
X0029665Y0251950D02*
X0029665Y0255887D01*
X0027157Y0254903D02*
X0026172Y0255887D01*
X0024204Y0255887D01*
X0023220Y0254903D01*
X0023220Y0252934D01*
X0024204Y0251950D01*
X0026172Y0251950D01*
X0027157Y0252934D01*
X0027157Y0254903D01*
X0020711Y0255887D02*
X0017758Y0255887D01*
X0016774Y0254903D01*
X0016774Y0252934D01*
X0017758Y0251950D01*
X0020711Y0251950D01*
X0014266Y0252934D02*
X0013281Y0253918D01*
X0011313Y0253918D01*
X0010329Y0254903D01*
X0011313Y0255887D01*
X0014266Y0255887D01*
X0014266Y0252934D02*
X0013281Y0251950D01*
X0010329Y0251950D01*
X0005852Y0251950D02*
X0007820Y0255887D01*
X0003883Y0255887D02*
X0005852Y0251950D01*
X0005852Y0266950D02*
X0007820Y0270887D01*
X0010329Y0269903D02*
X0011313Y0270887D01*
X0014266Y0270887D01*
X0013281Y0268918D02*
X0011313Y0268918D01*
X0010329Y0269903D01*
X0010329Y0266950D02*
X0013281Y0266950D01*
X0014266Y0267934D01*
X0013281Y0268918D01*
X0016774Y0267934D02*
X0017758Y0266950D01*
X0020711Y0266950D01*
X0023220Y0267934D02*
X0024204Y0266950D01*
X0026172Y0266950D01*
X0027157Y0267934D01*
X0027157Y0269903D01*
X0026172Y0270887D01*
X0024204Y0270887D01*
X0023220Y0269903D01*
X0023220Y0267934D01*
X0020711Y0270887D02*
X0017758Y0270887D01*
X0016774Y0269903D01*
X0016774Y0267934D01*
X0005852Y0266950D02*
X0003883Y0270887D01*
X0029665Y0270887D02*
X0029665Y0266950D01*
X0029665Y0268918D02*
X0031634Y0270887D01*
X0032618Y0270887D01*
X0035037Y0269903D02*
X0036021Y0270887D01*
X0037989Y0270887D01*
X0038973Y0269903D01*
X0038973Y0268918D01*
X0035037Y0268918D01*
X0035037Y0267934D02*
X0035037Y0269903D01*
X0035037Y0267934D02*
X0036021Y0266950D01*
X0037989Y0266950D01*
X0037989Y0291950D02*
X0036021Y0291950D01*
X0035037Y0292934D01*
X0035037Y0294903D01*
X0036021Y0295887D01*
X0037989Y0295887D01*
X0038973Y0294903D01*
X0038973Y0293918D01*
X0035037Y0293918D01*
X0032618Y0295887D02*
X0031634Y0295887D01*
X0029665Y0293918D01*
X0029665Y0291950D02*
X0029665Y0295887D01*
X0027157Y0294903D02*
X0026172Y0295887D01*
X0024204Y0295887D01*
X0023220Y0294903D01*
X0023220Y0292934D01*
X0024204Y0291950D01*
X0026172Y0291950D01*
X0027157Y0292934D01*
X0027157Y0294903D01*
X0020711Y0295887D02*
X0017758Y0295887D01*
X0016774Y0294903D01*
X0016774Y0292934D01*
X0017758Y0291950D01*
X0020711Y0291950D01*
X0014266Y0292934D02*
X0013281Y0293918D01*
X0011313Y0293918D01*
X0010329Y0294903D01*
X0011313Y0295887D01*
X0014266Y0295887D01*
X0014266Y0292934D02*
X0013281Y0291950D01*
X0010329Y0291950D01*
X0005852Y0291950D02*
X0007820Y0295887D01*
X0003883Y0295887D02*
X0005852Y0291950D01*
D12*
X0111664Y0275829D02*
X0112081Y0275829D01*
X0112915Y0275829D02*
X0114583Y0275829D01*
X0114583Y0275412D02*
X0114583Y0276246D01*
X0114583Y0277254D02*
X0114583Y0278088D01*
X0114583Y0277671D02*
X0112081Y0277671D01*
X0112081Y0277254D01*
X0112915Y0275829D02*
X0112915Y0275412D01*
X0112081Y0274318D02*
X0114583Y0274318D01*
X0114583Y0272650D02*
X0112081Y0272650D01*
X0112915Y0273484D01*
X0112081Y0274318D01*
X0112081Y0279095D02*
X0112081Y0279513D01*
X0114583Y0279513D01*
X0114583Y0279930D02*
X0114583Y0279095D01*
X0114166Y0283699D02*
X0114583Y0284116D01*
X0114583Y0284950D01*
X0114166Y0285368D01*
X0112498Y0285368D01*
X0112081Y0284950D01*
X0112081Y0284116D01*
X0112498Y0283699D01*
X0114166Y0283699D01*
X0114166Y0286462D02*
X0114583Y0286879D01*
X0114583Y0288130D01*
X0112915Y0288130D01*
X0112915Y0289224D02*
X0112915Y0290058D01*
X0112498Y0289641D02*
X0114166Y0289641D01*
X0114583Y0290058D01*
X0114166Y0286462D02*
X0112915Y0286462D01*
X0133164Y0276329D02*
X0133581Y0276329D01*
X0134415Y0276329D02*
X0136083Y0276329D01*
X0136083Y0275912D02*
X0136083Y0276746D01*
X0136083Y0277754D02*
X0136083Y0278588D01*
X0136083Y0278171D02*
X0133581Y0278171D01*
X0133581Y0277754D01*
X0134415Y0276329D02*
X0134415Y0275912D01*
X0133581Y0274818D02*
X0136083Y0274818D01*
X0136083Y0273150D02*
X0133581Y0273150D01*
X0134415Y0273984D01*
X0133581Y0274818D01*
X0133581Y0279595D02*
X0133581Y0280013D01*
X0136083Y0280013D01*
X0136083Y0280430D02*
X0136083Y0279595D01*
X0135666Y0284199D02*
X0136083Y0284616D01*
X0136083Y0285450D01*
X0135666Y0285868D01*
X0133998Y0285868D01*
X0133581Y0285450D01*
X0133581Y0284616D01*
X0133998Y0284199D01*
X0135666Y0284199D01*
X0135666Y0286962D02*
X0136083Y0287379D01*
X0136083Y0288630D01*
X0134415Y0288630D01*
X0134415Y0289724D02*
X0134415Y0290558D01*
X0133998Y0290141D02*
X0135666Y0290141D01*
X0136083Y0290558D01*
X0135666Y0286962D02*
X0134415Y0286962D01*
X0152081Y0284950D02*
X0152498Y0285368D01*
X0154166Y0285368D01*
X0154583Y0284950D01*
X0154583Y0284116D01*
X0154166Y0283699D01*
X0152498Y0283699D01*
X0152081Y0284116D01*
X0152081Y0284950D01*
X0152915Y0286462D02*
X0154166Y0286462D01*
X0154583Y0286879D01*
X0154583Y0288130D01*
X0152915Y0288130D01*
X0152915Y0289224D02*
X0152915Y0290058D01*
X0152498Y0289641D02*
X0154166Y0289641D01*
X0154583Y0290058D01*
X0154583Y0279930D02*
X0154583Y0279095D01*
X0154583Y0279513D02*
X0152081Y0279513D01*
X0152081Y0279095D01*
X0152081Y0277671D02*
X0154583Y0277671D01*
X0154583Y0277254D02*
X0154583Y0278088D01*
X0154583Y0276246D02*
X0154583Y0275412D01*
X0154583Y0275829D02*
X0152915Y0275829D01*
X0152915Y0275412D01*
X0152081Y0275829D02*
X0151664Y0275829D01*
X0152081Y0277254D02*
X0152081Y0277671D01*
X0152081Y0274318D02*
X0154583Y0274318D01*
X0154583Y0272650D02*
X0152081Y0272650D01*
X0152915Y0273484D01*
X0152081Y0274318D01*
X0173164Y0276329D02*
X0173581Y0276329D01*
X0174415Y0276329D02*
X0176083Y0276329D01*
X0176083Y0275912D02*
X0176083Y0276746D01*
X0176083Y0277754D02*
X0176083Y0278588D01*
X0176083Y0278171D02*
X0173581Y0278171D01*
X0173581Y0277754D01*
X0174415Y0276329D02*
X0174415Y0275912D01*
X0173581Y0274818D02*
X0176083Y0274818D01*
X0176083Y0273150D02*
X0173581Y0273150D01*
X0174415Y0273984D01*
X0173581Y0274818D01*
X0173581Y0279595D02*
X0173581Y0280013D01*
X0176083Y0280013D01*
X0176083Y0280430D02*
X0176083Y0279595D01*
X0175666Y0284199D02*
X0176083Y0284616D01*
X0176083Y0285450D01*
X0175666Y0285868D01*
X0173998Y0285868D01*
X0173581Y0285450D01*
X0173581Y0284616D01*
X0173998Y0284199D01*
X0175666Y0284199D01*
X0175666Y0286962D02*
X0176083Y0287379D01*
X0176083Y0288630D01*
X0174415Y0288630D01*
X0174415Y0289724D02*
X0174415Y0290558D01*
X0173998Y0290141D02*
X0175666Y0290141D01*
X0176083Y0290558D01*
X0175666Y0286962D02*
X0174415Y0286962D01*
X0192081Y0284950D02*
X0192498Y0285368D01*
X0194166Y0285368D01*
X0194583Y0284950D01*
X0194583Y0284116D01*
X0194166Y0283699D01*
X0192498Y0283699D01*
X0192081Y0284116D01*
X0192081Y0284950D01*
X0192915Y0286462D02*
X0194166Y0286462D01*
X0194583Y0286879D01*
X0194583Y0288130D01*
X0192915Y0288130D01*
X0192915Y0289224D02*
X0192915Y0290058D01*
X0192498Y0289641D02*
X0194166Y0289641D01*
X0194583Y0290058D01*
X0194583Y0279930D02*
X0194583Y0279095D01*
X0194583Y0279513D02*
X0192081Y0279513D01*
X0192081Y0279095D01*
X0192081Y0277671D02*
X0194583Y0277671D01*
X0194583Y0277254D02*
X0194583Y0278088D01*
X0194583Y0276246D02*
X0194583Y0275412D01*
X0194583Y0275829D02*
X0192915Y0275829D01*
X0192915Y0275412D01*
X0192081Y0275829D02*
X0191664Y0275829D01*
X0192081Y0277254D02*
X0192081Y0277671D01*
X0192081Y0274318D02*
X0194583Y0274318D01*
X0194583Y0272650D02*
X0192081Y0272650D01*
X0192915Y0273484D01*
X0192081Y0274318D01*
X0213164Y0276329D02*
X0213581Y0276329D01*
X0214415Y0276329D02*
X0216083Y0276329D01*
X0216083Y0275912D02*
X0216083Y0276746D01*
X0216083Y0277754D02*
X0216083Y0278588D01*
X0216083Y0278171D02*
X0213581Y0278171D01*
X0213581Y0277754D01*
X0214415Y0276329D02*
X0214415Y0275912D01*
X0213581Y0274818D02*
X0216083Y0274818D01*
X0216083Y0273150D02*
X0213581Y0273150D01*
X0214415Y0273984D01*
X0213581Y0274818D01*
X0213581Y0279595D02*
X0213581Y0280013D01*
X0216083Y0280013D01*
X0216083Y0280430D02*
X0216083Y0279595D01*
X0215666Y0284199D02*
X0213998Y0284199D01*
X0213581Y0284616D01*
X0213581Y0285450D01*
X0213998Y0285868D01*
X0215666Y0285868D01*
X0216083Y0285450D01*
X0216083Y0284616D01*
X0215666Y0284199D01*
X0215666Y0286962D02*
X0216083Y0287379D01*
X0216083Y0288630D01*
X0214415Y0288630D01*
X0214415Y0289724D02*
X0214415Y0290558D01*
X0213998Y0290141D02*
X0215666Y0290141D01*
X0216083Y0290558D01*
X0215666Y0286962D02*
X0214415Y0286962D01*
X0231664Y0275829D02*
X0232081Y0275829D01*
X0232915Y0275829D02*
X0234583Y0275829D01*
X0234583Y0275412D02*
X0234583Y0276246D01*
X0234583Y0277254D02*
X0234583Y0278088D01*
X0234583Y0277671D02*
X0232081Y0277671D01*
X0232081Y0277254D01*
X0232915Y0275829D02*
X0232915Y0275412D01*
X0232081Y0274318D02*
X0234583Y0274318D01*
X0234583Y0272650D02*
X0232081Y0272650D01*
X0232915Y0273484D01*
X0232081Y0274318D01*
X0232081Y0279095D02*
X0232081Y0279513D01*
X0234583Y0279513D01*
X0234583Y0279930D02*
X0234583Y0279095D01*
X0234166Y0283699D02*
X0234583Y0284116D01*
X0234583Y0284950D01*
X0234166Y0285368D01*
X0232498Y0285368D01*
X0232081Y0284950D01*
X0232081Y0284116D01*
X0232498Y0283699D01*
X0234166Y0283699D01*
X0234166Y0286462D02*
X0234583Y0286879D01*
X0234583Y0288130D01*
X0232915Y0288130D01*
X0232915Y0289224D02*
X0232915Y0290058D01*
X0232498Y0289641D02*
X0234166Y0289641D01*
X0234583Y0290058D01*
X0234166Y0286462D02*
X0232915Y0286462D01*
X0253164Y0276329D02*
X0253581Y0276329D01*
X0254415Y0276329D02*
X0256083Y0276329D01*
X0256083Y0275912D02*
X0256083Y0276746D01*
X0256083Y0277754D02*
X0256083Y0278588D01*
X0256083Y0278171D02*
X0253581Y0278171D01*
X0253581Y0277754D01*
X0254415Y0276329D02*
X0254415Y0275912D01*
X0253581Y0274818D02*
X0256083Y0274818D01*
X0256083Y0273150D02*
X0253581Y0273150D01*
X0254415Y0273984D01*
X0253581Y0274818D01*
X0253581Y0279595D02*
X0253581Y0280013D01*
X0256083Y0280013D01*
X0256083Y0280430D02*
X0256083Y0279595D01*
X0255666Y0284199D02*
X0256083Y0284616D01*
X0256083Y0285450D01*
X0255666Y0285868D01*
X0253998Y0285868D01*
X0253581Y0285450D01*
X0253581Y0284616D01*
X0253998Y0284199D01*
X0255666Y0284199D01*
X0255666Y0286962D02*
X0256083Y0287379D01*
X0256083Y0288630D01*
X0254415Y0288630D01*
X0254415Y0289724D02*
X0254415Y0290558D01*
X0253998Y0290141D02*
X0255666Y0290141D01*
X0256083Y0290558D01*
X0255666Y0286962D02*
X0254415Y0286962D01*
X0272081Y0284950D02*
X0272498Y0285368D01*
X0274166Y0285368D01*
X0274583Y0284950D01*
X0274583Y0284116D01*
X0274166Y0283699D01*
X0272498Y0283699D01*
X0272081Y0284116D01*
X0272081Y0284950D01*
X0272915Y0286462D02*
X0274166Y0286462D01*
X0274583Y0286879D01*
X0274583Y0288130D01*
X0272915Y0288130D01*
X0272915Y0289224D02*
X0272915Y0290058D01*
X0272498Y0289641D02*
X0274166Y0289641D01*
X0274583Y0290058D01*
X0274583Y0279930D02*
X0274583Y0279095D01*
X0274583Y0279513D02*
X0272081Y0279513D01*
X0272081Y0279095D01*
X0272081Y0277671D02*
X0274583Y0277671D01*
X0274583Y0277254D02*
X0274583Y0278088D01*
X0274583Y0276246D02*
X0274583Y0275412D01*
X0274583Y0275829D02*
X0272915Y0275829D01*
X0272915Y0275412D01*
X0272081Y0275829D02*
X0271664Y0275829D01*
X0272081Y0277254D02*
X0272081Y0277671D01*
X0272081Y0274318D02*
X0274583Y0274318D01*
X0274583Y0272650D02*
X0272081Y0272650D01*
X0272915Y0273484D01*
X0272081Y0274318D01*
X0293164Y0276329D02*
X0293581Y0276329D01*
X0294415Y0276329D02*
X0296083Y0276329D01*
X0296083Y0275912D02*
X0296083Y0276746D01*
X0296083Y0277754D02*
X0296083Y0278588D01*
X0296083Y0278171D02*
X0293581Y0278171D01*
X0293581Y0277754D01*
X0294415Y0276329D02*
X0294415Y0275912D01*
X0293581Y0274818D02*
X0296083Y0274818D01*
X0296083Y0273150D02*
X0293581Y0273150D01*
X0294415Y0273984D01*
X0293581Y0274818D01*
X0293581Y0279595D02*
X0293581Y0280013D01*
X0296083Y0280013D01*
X0296083Y0280430D02*
X0296083Y0279595D01*
X0295666Y0284199D02*
X0296083Y0284616D01*
X0296083Y0285450D01*
X0295666Y0285868D01*
X0293998Y0285868D01*
X0293581Y0285450D01*
X0293581Y0284616D01*
X0293998Y0284199D01*
X0295666Y0284199D01*
X0295666Y0286962D02*
X0296083Y0287379D01*
X0296083Y0288630D01*
X0294415Y0288630D01*
X0294415Y0289724D02*
X0294415Y0290558D01*
X0293998Y0290141D02*
X0295666Y0290141D01*
X0296083Y0290558D01*
X0295666Y0286962D02*
X0294415Y0286962D01*
X0312081Y0284950D02*
X0312498Y0285368D01*
X0314166Y0285368D01*
X0314583Y0284950D01*
X0314583Y0284116D01*
X0314166Y0283699D01*
X0312498Y0283699D01*
X0312081Y0284116D01*
X0312081Y0284950D01*
X0312915Y0286462D02*
X0314166Y0286462D01*
X0314583Y0286879D01*
X0314583Y0288130D01*
X0312915Y0288130D01*
X0312915Y0289224D02*
X0312915Y0290058D01*
X0312498Y0289641D02*
X0314166Y0289641D01*
X0314583Y0290058D01*
X0314583Y0279930D02*
X0314583Y0279095D01*
X0314583Y0279513D02*
X0312081Y0279513D01*
X0312081Y0279095D01*
X0312081Y0277671D02*
X0314583Y0277671D01*
X0314583Y0277254D02*
X0314583Y0278088D01*
X0314583Y0276246D02*
X0314583Y0275412D01*
X0314583Y0275829D02*
X0312915Y0275829D01*
X0312915Y0275412D01*
X0312081Y0275829D02*
X0311664Y0275829D01*
X0312081Y0277254D02*
X0312081Y0277671D01*
X0312081Y0274318D02*
X0314583Y0274318D01*
X0314583Y0272650D02*
X0312081Y0272650D01*
X0312915Y0273484D01*
X0312081Y0274318D01*
X0333164Y0276329D02*
X0333581Y0276329D01*
X0334415Y0276329D02*
X0336083Y0276329D01*
X0336083Y0275912D02*
X0336083Y0276746D01*
X0336083Y0277754D02*
X0336083Y0278588D01*
X0336083Y0278171D02*
X0333581Y0278171D01*
X0333581Y0277754D01*
X0334415Y0276329D02*
X0334415Y0275912D01*
X0333581Y0274818D02*
X0336083Y0274818D01*
X0336083Y0273150D02*
X0333581Y0273150D01*
X0334415Y0273984D01*
X0333581Y0274818D01*
X0333581Y0279595D02*
X0333581Y0280013D01*
X0336083Y0280013D01*
X0336083Y0280430D02*
X0336083Y0279595D01*
X0335666Y0284199D02*
X0333998Y0284199D01*
X0333581Y0284616D01*
X0333581Y0285450D01*
X0333998Y0285868D01*
X0335666Y0285868D01*
X0336083Y0285450D01*
X0336083Y0284616D01*
X0335666Y0284199D01*
X0335666Y0286962D02*
X0336083Y0287379D01*
X0336083Y0288630D01*
X0334415Y0288630D01*
X0334415Y0289724D02*
X0334415Y0290558D01*
X0333998Y0290141D02*
X0335666Y0290141D01*
X0336083Y0290558D01*
X0335666Y0286962D02*
X0334415Y0286962D01*
X0352081Y0284950D02*
X0352498Y0285368D01*
X0354166Y0285368D01*
X0354583Y0284950D01*
X0354583Y0284116D01*
X0354166Y0283699D01*
X0352498Y0283699D01*
X0352081Y0284116D01*
X0352081Y0284950D01*
X0352915Y0286462D02*
X0354166Y0286462D01*
X0354583Y0286879D01*
X0354583Y0288130D01*
X0352915Y0288130D01*
X0352915Y0289224D02*
X0352915Y0290058D01*
X0352498Y0289641D02*
X0354166Y0289641D01*
X0354583Y0290058D01*
X0354583Y0279930D02*
X0354583Y0279095D01*
X0354583Y0279513D02*
X0352081Y0279513D01*
X0352081Y0279095D01*
X0352081Y0277671D02*
X0354583Y0277671D01*
X0354583Y0277254D02*
X0354583Y0278088D01*
X0354583Y0276246D02*
X0354583Y0275412D01*
X0354583Y0275829D02*
X0352915Y0275829D01*
X0352915Y0275412D01*
X0352081Y0275829D02*
X0351664Y0275829D01*
X0352081Y0277254D02*
X0352081Y0277671D01*
X0352081Y0274318D02*
X0354583Y0274318D01*
X0354583Y0272650D02*
X0352081Y0272650D01*
X0352915Y0273484D01*
X0352081Y0274318D01*
X0373164Y0276329D02*
X0373581Y0276329D01*
X0374415Y0276329D02*
X0376083Y0276329D01*
X0376083Y0275912D02*
X0376083Y0276746D01*
X0376083Y0277754D02*
X0376083Y0278588D01*
X0376083Y0278171D02*
X0373581Y0278171D01*
X0373581Y0277754D01*
X0374415Y0276329D02*
X0374415Y0275912D01*
X0373581Y0274818D02*
X0376083Y0274818D01*
X0376083Y0273150D02*
X0373581Y0273150D01*
X0374415Y0273984D01*
X0373581Y0274818D01*
X0373581Y0279595D02*
X0373581Y0280013D01*
X0376083Y0280013D01*
X0376083Y0280430D02*
X0376083Y0279595D01*
X0375666Y0284199D02*
X0376083Y0284616D01*
X0376083Y0285450D01*
X0375666Y0285868D01*
X0373998Y0285868D01*
X0373581Y0285450D01*
X0373581Y0284616D01*
X0373998Y0284199D01*
X0375666Y0284199D01*
X0375666Y0286962D02*
X0376083Y0287379D01*
X0376083Y0288630D01*
X0374415Y0288630D01*
X0374415Y0289724D02*
X0374415Y0290558D01*
X0373998Y0290141D02*
X0375666Y0290141D01*
X0376083Y0290558D01*
X0375666Y0286962D02*
X0374415Y0286962D01*
X0374415Y0250558D02*
X0374415Y0249724D01*
X0373998Y0250141D02*
X0375666Y0250141D01*
X0376083Y0250558D01*
X0376083Y0248630D02*
X0374415Y0248630D01*
X0374415Y0246962D02*
X0375666Y0246962D01*
X0376083Y0247379D01*
X0376083Y0248630D01*
X0375666Y0245868D02*
X0373998Y0245868D01*
X0373581Y0245450D01*
X0373581Y0244616D01*
X0373998Y0244199D01*
X0375666Y0244199D01*
X0376083Y0244616D01*
X0376083Y0245450D01*
X0375666Y0245868D01*
X0376083Y0240430D02*
X0376083Y0239595D01*
X0376083Y0240013D02*
X0373581Y0240013D01*
X0373581Y0239595D01*
X0373581Y0238171D02*
X0376083Y0238171D01*
X0376083Y0237754D02*
X0376083Y0238588D01*
X0376083Y0236746D02*
X0376083Y0235912D01*
X0376083Y0236329D02*
X0374415Y0236329D01*
X0374415Y0235912D01*
X0373581Y0236329D02*
X0373164Y0236329D01*
X0373581Y0237754D02*
X0373581Y0238171D01*
X0373581Y0234818D02*
X0376083Y0234818D01*
X0376083Y0233150D02*
X0373581Y0233150D01*
X0374415Y0233984D01*
X0373581Y0234818D01*
X0354583Y0234318D02*
X0352081Y0234318D01*
X0352915Y0233484D01*
X0352081Y0232650D01*
X0354583Y0232650D01*
X0354583Y0235412D02*
X0354583Y0236246D01*
X0354583Y0235829D02*
X0352915Y0235829D01*
X0352915Y0235412D01*
X0352081Y0235829D02*
X0351664Y0235829D01*
X0352081Y0237254D02*
X0352081Y0237671D01*
X0354583Y0237671D01*
X0354583Y0237254D02*
X0354583Y0238088D01*
X0354583Y0239095D02*
X0354583Y0239930D01*
X0354583Y0239513D02*
X0352081Y0239513D01*
X0352081Y0239095D01*
X0352498Y0243699D02*
X0352081Y0244116D01*
X0352081Y0244950D01*
X0352498Y0245368D01*
X0354166Y0245368D01*
X0354583Y0244950D01*
X0354583Y0244116D01*
X0354166Y0243699D01*
X0352498Y0243699D01*
X0352915Y0246462D02*
X0354166Y0246462D01*
X0354583Y0246879D01*
X0354583Y0248130D01*
X0352915Y0248130D01*
X0352915Y0249224D02*
X0352915Y0250058D01*
X0352498Y0249641D02*
X0354166Y0249641D01*
X0354583Y0250058D01*
X0336083Y0250558D02*
X0335666Y0250141D01*
X0333998Y0250141D01*
X0334415Y0249724D02*
X0334415Y0250558D01*
X0334415Y0248630D02*
X0336083Y0248630D01*
X0336083Y0247379D01*
X0335666Y0246962D01*
X0334415Y0246962D01*
X0333998Y0245868D02*
X0333581Y0245450D01*
X0333581Y0244616D01*
X0333998Y0244199D01*
X0335666Y0244199D01*
X0336083Y0244616D01*
X0336083Y0245450D01*
X0335666Y0245868D01*
X0333998Y0245868D01*
X0336083Y0240430D02*
X0336083Y0239595D01*
X0336083Y0240013D02*
X0333581Y0240013D01*
X0333581Y0239595D01*
X0333581Y0238171D02*
X0336083Y0238171D01*
X0336083Y0237754D02*
X0336083Y0238588D01*
X0336083Y0236746D02*
X0336083Y0235912D01*
X0336083Y0236329D02*
X0334415Y0236329D01*
X0334415Y0235912D01*
X0333581Y0236329D02*
X0333164Y0236329D01*
X0333581Y0237754D02*
X0333581Y0238171D01*
X0333581Y0234818D02*
X0336083Y0234818D01*
X0336083Y0233150D02*
X0333581Y0233150D01*
X0334415Y0233984D01*
X0333581Y0234818D01*
X0314583Y0234318D02*
X0312081Y0234318D01*
X0312915Y0233484D01*
X0312081Y0232650D01*
X0314583Y0232650D01*
X0314583Y0235412D02*
X0314583Y0236246D01*
X0314583Y0235829D02*
X0312915Y0235829D01*
X0312915Y0235412D01*
X0312081Y0235829D02*
X0311664Y0235829D01*
X0312081Y0237254D02*
X0312081Y0237671D01*
X0314583Y0237671D01*
X0314583Y0237254D02*
X0314583Y0238088D01*
X0314583Y0239095D02*
X0314583Y0239930D01*
X0314583Y0239513D02*
X0312081Y0239513D01*
X0312081Y0239095D01*
X0312498Y0243699D02*
X0314166Y0243699D01*
X0314583Y0244116D01*
X0314583Y0244950D01*
X0314166Y0245368D01*
X0312498Y0245368D01*
X0312081Y0244950D01*
X0312081Y0244116D01*
X0312498Y0243699D01*
X0312915Y0246462D02*
X0314166Y0246462D01*
X0314583Y0246879D01*
X0314583Y0248130D01*
X0312915Y0248130D01*
X0312915Y0249224D02*
X0312915Y0250058D01*
X0312498Y0249641D02*
X0314166Y0249641D01*
X0314583Y0250058D01*
X0296083Y0250558D02*
X0295666Y0250141D01*
X0293998Y0250141D01*
X0294415Y0249724D02*
X0294415Y0250558D01*
X0294415Y0248630D02*
X0296083Y0248630D01*
X0296083Y0247379D01*
X0295666Y0246962D01*
X0294415Y0246962D01*
X0293998Y0245868D02*
X0293581Y0245450D01*
X0293581Y0244616D01*
X0293998Y0244199D01*
X0295666Y0244199D01*
X0296083Y0244616D01*
X0296083Y0245450D01*
X0295666Y0245868D01*
X0293998Y0245868D01*
X0296083Y0240430D02*
X0296083Y0239595D01*
X0296083Y0240013D02*
X0293581Y0240013D01*
X0293581Y0239595D01*
X0293581Y0238171D02*
X0296083Y0238171D01*
X0296083Y0237754D02*
X0296083Y0238588D01*
X0296083Y0236746D02*
X0296083Y0235912D01*
X0296083Y0236329D02*
X0294415Y0236329D01*
X0294415Y0235912D01*
X0293581Y0236329D02*
X0293164Y0236329D01*
X0293581Y0237754D02*
X0293581Y0238171D01*
X0293581Y0234818D02*
X0296083Y0234818D01*
X0296083Y0233150D02*
X0293581Y0233150D01*
X0294415Y0233984D01*
X0293581Y0234818D01*
X0274583Y0234318D02*
X0272081Y0234318D01*
X0272915Y0233484D01*
X0272081Y0232650D01*
X0274583Y0232650D01*
X0274583Y0235412D02*
X0274583Y0236246D01*
X0274583Y0235829D02*
X0272915Y0235829D01*
X0272915Y0235412D01*
X0272081Y0235829D02*
X0271664Y0235829D01*
X0272081Y0237254D02*
X0272081Y0237671D01*
X0274583Y0237671D01*
X0274583Y0237254D02*
X0274583Y0238088D01*
X0274583Y0239095D02*
X0274583Y0239930D01*
X0274583Y0239513D02*
X0272081Y0239513D01*
X0272081Y0239095D01*
X0272498Y0243699D02*
X0274166Y0243699D01*
X0274583Y0244116D01*
X0274583Y0244950D01*
X0274166Y0245368D01*
X0272498Y0245368D01*
X0272081Y0244950D01*
X0272081Y0244116D01*
X0272498Y0243699D01*
X0272915Y0246462D02*
X0274166Y0246462D01*
X0274583Y0246879D01*
X0274583Y0248130D01*
X0272915Y0248130D01*
X0272915Y0249224D02*
X0272915Y0250058D01*
X0272498Y0249641D02*
X0274166Y0249641D01*
X0274583Y0250058D01*
X0256083Y0250558D02*
X0255666Y0250141D01*
X0253998Y0250141D01*
X0254415Y0249724D02*
X0254415Y0250558D01*
X0254415Y0248630D02*
X0256083Y0248630D01*
X0256083Y0247379D01*
X0255666Y0246962D01*
X0254415Y0246962D01*
X0253998Y0245868D02*
X0253581Y0245450D01*
X0253581Y0244616D01*
X0253998Y0244199D01*
X0255666Y0244199D01*
X0256083Y0244616D01*
X0256083Y0245450D01*
X0255666Y0245868D01*
X0253998Y0245868D01*
X0256083Y0240430D02*
X0256083Y0239595D01*
X0256083Y0240013D02*
X0253581Y0240013D01*
X0253581Y0239595D01*
X0253581Y0238171D02*
X0256083Y0238171D01*
X0256083Y0237754D02*
X0256083Y0238588D01*
X0256083Y0236746D02*
X0256083Y0235912D01*
X0256083Y0236329D02*
X0254415Y0236329D01*
X0254415Y0235912D01*
X0253581Y0236329D02*
X0253164Y0236329D01*
X0253581Y0237754D02*
X0253581Y0238171D01*
X0253581Y0234818D02*
X0256083Y0234818D01*
X0256083Y0233150D02*
X0253581Y0233150D01*
X0254415Y0233984D01*
X0253581Y0234818D01*
X0234583Y0234318D02*
X0232081Y0234318D01*
X0232915Y0233484D01*
X0232081Y0232650D01*
X0234583Y0232650D01*
X0234583Y0235412D02*
X0234583Y0236246D01*
X0234583Y0235829D02*
X0232915Y0235829D01*
X0232915Y0235412D01*
X0232081Y0235829D02*
X0231664Y0235829D01*
X0232081Y0237254D02*
X0232081Y0237671D01*
X0234583Y0237671D01*
X0234583Y0237254D02*
X0234583Y0238088D01*
X0234583Y0239095D02*
X0234583Y0239930D01*
X0234583Y0239513D02*
X0232081Y0239513D01*
X0232081Y0239095D01*
X0232498Y0243699D02*
X0234166Y0243699D01*
X0234583Y0244116D01*
X0234583Y0244950D01*
X0234166Y0245368D01*
X0232498Y0245368D01*
X0232081Y0244950D01*
X0232081Y0244116D01*
X0232498Y0243699D01*
X0232915Y0246462D02*
X0234166Y0246462D01*
X0234583Y0246879D01*
X0234583Y0248130D01*
X0232915Y0248130D01*
X0232915Y0249224D02*
X0232915Y0250058D01*
X0232498Y0249641D02*
X0234166Y0249641D01*
X0234583Y0250058D01*
X0216083Y0250558D02*
X0215666Y0250141D01*
X0213998Y0250141D01*
X0214415Y0249724D02*
X0214415Y0250558D01*
X0214415Y0248630D02*
X0216083Y0248630D01*
X0216083Y0247379D01*
X0215666Y0246962D01*
X0214415Y0246962D01*
X0213998Y0245868D02*
X0213581Y0245450D01*
X0213581Y0244616D01*
X0213998Y0244199D01*
X0215666Y0244199D01*
X0216083Y0244616D01*
X0216083Y0245450D01*
X0215666Y0245868D01*
X0213998Y0245868D01*
X0216083Y0240430D02*
X0216083Y0239595D01*
X0216083Y0240013D02*
X0213581Y0240013D01*
X0213581Y0239595D01*
X0213581Y0238171D02*
X0216083Y0238171D01*
X0216083Y0237754D02*
X0216083Y0238588D01*
X0216083Y0236746D02*
X0216083Y0235912D01*
X0216083Y0236329D02*
X0214415Y0236329D01*
X0214415Y0235912D01*
X0213581Y0236329D02*
X0213164Y0236329D01*
X0213581Y0237754D02*
X0213581Y0238171D01*
X0213581Y0234818D02*
X0216083Y0234818D01*
X0216083Y0233150D02*
X0213581Y0233150D01*
X0214415Y0233984D01*
X0213581Y0234818D01*
X0194583Y0234318D02*
X0192081Y0234318D01*
X0192915Y0233484D01*
X0192081Y0232650D01*
X0194583Y0232650D01*
X0194583Y0235412D02*
X0194583Y0236246D01*
X0194583Y0235829D02*
X0192915Y0235829D01*
X0192915Y0235412D01*
X0192081Y0235829D02*
X0191664Y0235829D01*
X0192081Y0237254D02*
X0192081Y0237671D01*
X0194583Y0237671D01*
X0194583Y0237254D02*
X0194583Y0238088D01*
X0194583Y0239095D02*
X0194583Y0239930D01*
X0194583Y0239513D02*
X0192081Y0239513D01*
X0192081Y0239095D01*
X0192498Y0243699D02*
X0194166Y0243699D01*
X0194583Y0244116D01*
X0194583Y0244950D01*
X0194166Y0245368D01*
X0192498Y0245368D01*
X0192081Y0244950D01*
X0192081Y0244116D01*
X0192498Y0243699D01*
X0192915Y0246462D02*
X0194166Y0246462D01*
X0194583Y0246879D01*
X0194583Y0248130D01*
X0192915Y0248130D01*
X0192915Y0249224D02*
X0192915Y0250058D01*
X0192498Y0249641D02*
X0194166Y0249641D01*
X0194583Y0250058D01*
X0176083Y0250558D02*
X0175666Y0250141D01*
X0173998Y0250141D01*
X0174415Y0249724D02*
X0174415Y0250558D01*
X0174415Y0248630D02*
X0176083Y0248630D01*
X0176083Y0247379D01*
X0175666Y0246962D01*
X0174415Y0246962D01*
X0173998Y0245868D02*
X0173581Y0245450D01*
X0173581Y0244616D01*
X0173998Y0244199D01*
X0175666Y0244199D01*
X0176083Y0244616D01*
X0176083Y0245450D01*
X0175666Y0245868D01*
X0173998Y0245868D01*
X0176083Y0240430D02*
X0176083Y0239595D01*
X0176083Y0240013D02*
X0173581Y0240013D01*
X0173581Y0239595D01*
X0173581Y0238171D02*
X0176083Y0238171D01*
X0176083Y0237754D02*
X0176083Y0238588D01*
X0176083Y0236746D02*
X0176083Y0235912D01*
X0176083Y0236329D02*
X0174415Y0236329D01*
X0174415Y0235912D01*
X0173581Y0236329D02*
X0173164Y0236329D01*
X0173581Y0237754D02*
X0173581Y0238171D01*
X0173581Y0234818D02*
X0176083Y0234818D01*
X0176083Y0233150D02*
X0173581Y0233150D01*
X0174415Y0233984D01*
X0173581Y0234818D01*
X0154583Y0234318D02*
X0152081Y0234318D01*
X0152915Y0233484D01*
X0152081Y0232650D01*
X0154583Y0232650D01*
X0154583Y0235412D02*
X0154583Y0236246D01*
X0154583Y0235829D02*
X0152915Y0235829D01*
X0152915Y0235412D01*
X0152081Y0235829D02*
X0151664Y0235829D01*
X0152081Y0237254D02*
X0152081Y0237671D01*
X0154583Y0237671D01*
X0154583Y0237254D02*
X0154583Y0238088D01*
X0154583Y0239095D02*
X0154583Y0239930D01*
X0154583Y0239513D02*
X0152081Y0239513D01*
X0152081Y0239095D01*
X0152498Y0243699D02*
X0154166Y0243699D01*
X0154583Y0244116D01*
X0154583Y0244950D01*
X0154166Y0245368D01*
X0152498Y0245368D01*
X0152081Y0244950D01*
X0152081Y0244116D01*
X0152498Y0243699D01*
X0152915Y0246462D02*
X0154166Y0246462D01*
X0154583Y0246879D01*
X0154583Y0248130D01*
X0152915Y0248130D01*
X0152915Y0249224D02*
X0152915Y0250058D01*
X0152498Y0249641D02*
X0154166Y0249641D01*
X0154583Y0250058D01*
X0136083Y0250558D02*
X0135666Y0250141D01*
X0133998Y0250141D01*
X0134415Y0249724D02*
X0134415Y0250558D01*
X0134415Y0248630D02*
X0136083Y0248630D01*
X0136083Y0247379D01*
X0135666Y0246962D01*
X0134415Y0246962D01*
X0133998Y0245868D02*
X0133581Y0245450D01*
X0133581Y0244616D01*
X0133998Y0244199D01*
X0135666Y0244199D01*
X0136083Y0244616D01*
X0136083Y0245450D01*
X0135666Y0245868D01*
X0133998Y0245868D01*
X0136083Y0240430D02*
X0136083Y0239595D01*
X0136083Y0240013D02*
X0133581Y0240013D01*
X0133581Y0239595D01*
X0133581Y0238171D02*
X0136083Y0238171D01*
X0136083Y0237754D02*
X0136083Y0238588D01*
X0136083Y0236746D02*
X0136083Y0235912D01*
X0136083Y0236329D02*
X0134415Y0236329D01*
X0134415Y0235912D01*
X0133581Y0236329D02*
X0133164Y0236329D01*
X0133581Y0237754D02*
X0133581Y0238171D01*
X0133581Y0234818D02*
X0136083Y0234818D01*
X0136083Y0233150D02*
X0133581Y0233150D01*
X0134415Y0233984D01*
X0133581Y0234818D01*
X0114583Y0234318D02*
X0112081Y0234318D01*
X0112915Y0233484D01*
X0112081Y0232650D01*
X0114583Y0232650D01*
X0114583Y0235412D02*
X0114583Y0236246D01*
X0114583Y0235829D02*
X0112915Y0235829D01*
X0112915Y0235412D01*
X0112081Y0235829D02*
X0111664Y0235829D01*
X0112081Y0237254D02*
X0112081Y0237671D01*
X0114583Y0237671D01*
X0114583Y0237254D02*
X0114583Y0238088D01*
X0114583Y0239095D02*
X0114583Y0239930D01*
X0114583Y0239513D02*
X0112081Y0239513D01*
X0112081Y0239095D01*
X0112498Y0243699D02*
X0114166Y0243699D01*
X0114583Y0244116D01*
X0114583Y0244950D01*
X0114166Y0245368D01*
X0112498Y0245368D01*
X0112081Y0244950D01*
X0112081Y0244116D01*
X0112498Y0243699D01*
X0112915Y0246462D02*
X0114166Y0246462D01*
X0114583Y0246879D01*
X0114583Y0248130D01*
X0112915Y0248130D01*
X0112915Y0249224D02*
X0112915Y0250058D01*
X0112498Y0249641D02*
X0114166Y0249641D01*
X0114583Y0250058D01*
X0114583Y0210058D02*
X0114166Y0209641D01*
X0112498Y0209641D01*
X0112915Y0209224D02*
X0112915Y0210058D01*
X0112915Y0208130D02*
X0114583Y0208130D01*
X0114583Y0206879D01*
X0114166Y0206462D01*
X0112915Y0206462D01*
X0112498Y0205368D02*
X0112081Y0204950D01*
X0112081Y0204116D01*
X0112498Y0203699D01*
X0114166Y0203699D01*
X0114583Y0204116D01*
X0114583Y0204950D01*
X0114166Y0205368D01*
X0112498Y0205368D01*
X0114583Y0199930D02*
X0114583Y0199095D01*
X0114583Y0199513D02*
X0112081Y0199513D01*
X0112081Y0199095D01*
X0112081Y0197671D02*
X0114583Y0197671D01*
X0114583Y0197254D02*
X0114583Y0198088D01*
X0114583Y0196246D02*
X0114583Y0195412D01*
X0114583Y0195829D02*
X0112915Y0195829D01*
X0112915Y0195412D01*
X0112081Y0195829D02*
X0111664Y0195829D01*
X0112081Y0197254D02*
X0112081Y0197671D01*
X0112081Y0194318D02*
X0114583Y0194318D01*
X0114583Y0192650D02*
X0112081Y0192650D01*
X0112915Y0193484D01*
X0112081Y0194318D01*
X0133164Y0196329D02*
X0133581Y0196329D01*
X0134415Y0196329D02*
X0136083Y0196329D01*
X0136083Y0195912D02*
X0136083Y0196746D01*
X0136083Y0197754D02*
X0136083Y0198588D01*
X0136083Y0198171D02*
X0133581Y0198171D01*
X0133581Y0197754D01*
X0134415Y0196329D02*
X0134415Y0195912D01*
X0133581Y0194818D02*
X0136083Y0194818D01*
X0136083Y0193150D02*
X0133581Y0193150D01*
X0134415Y0193984D01*
X0133581Y0194818D01*
X0133581Y0199595D02*
X0133581Y0200013D01*
X0136083Y0200013D01*
X0136083Y0200430D02*
X0136083Y0199595D01*
X0135666Y0204199D02*
X0136083Y0204616D01*
X0136083Y0205450D01*
X0135666Y0205868D01*
X0133998Y0205868D01*
X0133581Y0205450D01*
X0133581Y0204616D01*
X0133998Y0204199D01*
X0135666Y0204199D01*
X0135666Y0206962D02*
X0136083Y0207379D01*
X0136083Y0208630D01*
X0134415Y0208630D01*
X0134415Y0209724D02*
X0134415Y0210558D01*
X0133998Y0210141D02*
X0135666Y0210141D01*
X0136083Y0210558D01*
X0135666Y0206962D02*
X0134415Y0206962D01*
X0152081Y0204950D02*
X0152498Y0205368D01*
X0154166Y0205368D01*
X0154583Y0204950D01*
X0154583Y0204116D01*
X0154166Y0203699D01*
X0152498Y0203699D01*
X0152081Y0204116D01*
X0152081Y0204950D01*
X0152915Y0206462D02*
X0154166Y0206462D01*
X0154583Y0206879D01*
X0154583Y0208130D01*
X0152915Y0208130D01*
X0152915Y0209224D02*
X0152915Y0210058D01*
X0152498Y0209641D02*
X0154166Y0209641D01*
X0154583Y0210058D01*
X0154583Y0199930D02*
X0154583Y0199095D01*
X0154583Y0199513D02*
X0152081Y0199513D01*
X0152081Y0199095D01*
X0152081Y0197671D02*
X0154583Y0197671D01*
X0154583Y0197254D02*
X0154583Y0198088D01*
X0154583Y0196246D02*
X0154583Y0195412D01*
X0154583Y0195829D02*
X0152915Y0195829D01*
X0152915Y0195412D01*
X0152081Y0195829D02*
X0151664Y0195829D01*
X0152081Y0197254D02*
X0152081Y0197671D01*
X0152081Y0194318D02*
X0154583Y0194318D01*
X0154583Y0192650D02*
X0152081Y0192650D01*
X0152915Y0193484D01*
X0152081Y0194318D01*
X0173164Y0196329D02*
X0173581Y0196329D01*
X0174415Y0196329D02*
X0176083Y0196329D01*
X0176083Y0195912D02*
X0176083Y0196746D01*
X0176083Y0197754D02*
X0176083Y0198588D01*
X0176083Y0198171D02*
X0173581Y0198171D01*
X0173581Y0197754D01*
X0174415Y0196329D02*
X0174415Y0195912D01*
X0173581Y0194818D02*
X0176083Y0194818D01*
X0176083Y0193150D02*
X0173581Y0193150D01*
X0174415Y0193984D01*
X0173581Y0194818D01*
X0173581Y0199595D02*
X0173581Y0200013D01*
X0176083Y0200013D01*
X0176083Y0200430D02*
X0176083Y0199595D01*
X0175666Y0204199D02*
X0176083Y0204616D01*
X0176083Y0205450D01*
X0175666Y0205868D01*
X0173998Y0205868D01*
X0173581Y0205450D01*
X0173581Y0204616D01*
X0173998Y0204199D01*
X0175666Y0204199D01*
X0175666Y0206962D02*
X0176083Y0207379D01*
X0176083Y0208630D01*
X0174415Y0208630D01*
X0174415Y0209724D02*
X0174415Y0210558D01*
X0173998Y0210141D02*
X0175666Y0210141D01*
X0176083Y0210558D01*
X0175666Y0206962D02*
X0174415Y0206962D01*
X0192081Y0204950D02*
X0192498Y0205368D01*
X0194166Y0205368D01*
X0194583Y0204950D01*
X0194583Y0204116D01*
X0194166Y0203699D01*
X0192498Y0203699D01*
X0192081Y0204116D01*
X0192081Y0204950D01*
X0192915Y0206462D02*
X0194166Y0206462D01*
X0194583Y0206879D01*
X0194583Y0208130D01*
X0192915Y0208130D01*
X0192915Y0209224D02*
X0192915Y0210058D01*
X0192498Y0209641D02*
X0194166Y0209641D01*
X0194583Y0210058D01*
X0194583Y0199930D02*
X0194583Y0199095D01*
X0194583Y0199513D02*
X0192081Y0199513D01*
X0192081Y0199095D01*
X0192081Y0197671D02*
X0194583Y0197671D01*
X0194583Y0197254D02*
X0194583Y0198088D01*
X0194583Y0196246D02*
X0194583Y0195412D01*
X0194583Y0195829D02*
X0192915Y0195829D01*
X0192915Y0195412D01*
X0192081Y0195829D02*
X0191664Y0195829D01*
X0192081Y0197254D02*
X0192081Y0197671D01*
X0192081Y0194318D02*
X0194583Y0194318D01*
X0194583Y0192650D02*
X0192081Y0192650D01*
X0192915Y0193484D01*
X0192081Y0194318D01*
X0213164Y0196329D02*
X0213581Y0196329D01*
X0214415Y0196329D02*
X0216083Y0196329D01*
X0216083Y0195912D02*
X0216083Y0196746D01*
X0216083Y0197754D02*
X0216083Y0198588D01*
X0216083Y0198171D02*
X0213581Y0198171D01*
X0213581Y0197754D01*
X0214415Y0196329D02*
X0214415Y0195912D01*
X0213581Y0194818D02*
X0216083Y0194818D01*
X0216083Y0193150D02*
X0213581Y0193150D01*
X0214415Y0193984D01*
X0213581Y0194818D01*
X0213581Y0199595D02*
X0213581Y0200013D01*
X0216083Y0200013D01*
X0216083Y0200430D02*
X0216083Y0199595D01*
X0215666Y0204199D02*
X0213998Y0204199D01*
X0213581Y0204616D01*
X0213581Y0205450D01*
X0213998Y0205868D01*
X0215666Y0205868D01*
X0216083Y0205450D01*
X0216083Y0204616D01*
X0215666Y0204199D01*
X0215666Y0206962D02*
X0214415Y0206962D01*
X0215666Y0206962D02*
X0216083Y0207379D01*
X0216083Y0208630D01*
X0214415Y0208630D01*
X0214415Y0209724D02*
X0214415Y0210558D01*
X0213998Y0210141D02*
X0215666Y0210141D01*
X0216083Y0210558D01*
X0232498Y0209641D02*
X0234166Y0209641D01*
X0234583Y0210058D01*
X0232915Y0210058D02*
X0232915Y0209224D01*
X0232915Y0208130D02*
X0234583Y0208130D01*
X0234583Y0206879D01*
X0234166Y0206462D01*
X0232915Y0206462D01*
X0232498Y0205368D02*
X0232081Y0204950D01*
X0232081Y0204116D01*
X0232498Y0203699D01*
X0234166Y0203699D01*
X0234583Y0204116D01*
X0234583Y0204950D01*
X0234166Y0205368D01*
X0232498Y0205368D01*
X0234583Y0199930D02*
X0234583Y0199095D01*
X0234583Y0199513D02*
X0232081Y0199513D01*
X0232081Y0199095D01*
X0232081Y0197671D02*
X0234583Y0197671D01*
X0234583Y0197254D02*
X0234583Y0198088D01*
X0234583Y0196246D02*
X0234583Y0195412D01*
X0234583Y0195829D02*
X0232915Y0195829D01*
X0232915Y0195412D01*
X0232081Y0195829D02*
X0231664Y0195829D01*
X0232081Y0197254D02*
X0232081Y0197671D01*
X0232081Y0194318D02*
X0234583Y0194318D01*
X0234583Y0192650D02*
X0232081Y0192650D01*
X0232915Y0193484D01*
X0232081Y0194318D01*
X0253164Y0196329D02*
X0253581Y0196329D01*
X0254415Y0196329D02*
X0256083Y0196329D01*
X0256083Y0195912D02*
X0256083Y0196746D01*
X0256083Y0197754D02*
X0256083Y0198588D01*
X0256083Y0198171D02*
X0253581Y0198171D01*
X0253581Y0197754D01*
X0254415Y0196329D02*
X0254415Y0195912D01*
X0253581Y0194818D02*
X0256083Y0194818D01*
X0256083Y0193150D02*
X0253581Y0193150D01*
X0254415Y0193984D01*
X0253581Y0194818D01*
X0253581Y0199595D02*
X0253581Y0200013D01*
X0256083Y0200013D01*
X0256083Y0200430D02*
X0256083Y0199595D01*
X0255666Y0204199D02*
X0256083Y0204616D01*
X0256083Y0205450D01*
X0255666Y0205868D01*
X0253998Y0205868D01*
X0253581Y0205450D01*
X0253581Y0204616D01*
X0253998Y0204199D01*
X0255666Y0204199D01*
X0255666Y0206962D02*
X0256083Y0207379D01*
X0256083Y0208630D01*
X0254415Y0208630D01*
X0254415Y0209724D02*
X0254415Y0210558D01*
X0253998Y0210141D02*
X0255666Y0210141D01*
X0256083Y0210558D01*
X0255666Y0206962D02*
X0254415Y0206962D01*
X0272081Y0204950D02*
X0272498Y0205368D01*
X0274166Y0205368D01*
X0274583Y0204950D01*
X0274583Y0204116D01*
X0274166Y0203699D01*
X0272498Y0203699D01*
X0272081Y0204116D01*
X0272081Y0204950D01*
X0272915Y0206462D02*
X0274166Y0206462D01*
X0274583Y0206879D01*
X0274583Y0208130D01*
X0272915Y0208130D01*
X0272915Y0209224D02*
X0272915Y0210058D01*
X0272498Y0209641D02*
X0274166Y0209641D01*
X0274583Y0210058D01*
X0274583Y0199930D02*
X0274583Y0199095D01*
X0274583Y0199513D02*
X0272081Y0199513D01*
X0272081Y0199095D01*
X0272081Y0197671D02*
X0274583Y0197671D01*
X0274583Y0197254D02*
X0274583Y0198088D01*
X0274583Y0196246D02*
X0274583Y0195412D01*
X0274583Y0195829D02*
X0272915Y0195829D01*
X0272915Y0195412D01*
X0272081Y0195829D02*
X0271664Y0195829D01*
X0272081Y0197254D02*
X0272081Y0197671D01*
X0272081Y0194318D02*
X0274583Y0194318D01*
X0274583Y0192650D02*
X0272081Y0192650D01*
X0272915Y0193484D01*
X0272081Y0194318D01*
X0293164Y0196329D02*
X0293581Y0196329D01*
X0294415Y0196329D02*
X0296083Y0196329D01*
X0296083Y0195912D02*
X0296083Y0196746D01*
X0296083Y0197754D02*
X0296083Y0198588D01*
X0296083Y0198171D02*
X0293581Y0198171D01*
X0293581Y0197754D01*
X0294415Y0196329D02*
X0294415Y0195912D01*
X0293581Y0194818D02*
X0296083Y0194818D01*
X0296083Y0193150D02*
X0293581Y0193150D01*
X0294415Y0193984D01*
X0293581Y0194818D01*
X0293581Y0199595D02*
X0293581Y0200013D01*
X0296083Y0200013D01*
X0296083Y0200430D02*
X0296083Y0199595D01*
X0295666Y0204199D02*
X0296083Y0204616D01*
X0296083Y0205450D01*
X0295666Y0205868D01*
X0293998Y0205868D01*
X0293581Y0205450D01*
X0293581Y0204616D01*
X0293998Y0204199D01*
X0295666Y0204199D01*
X0295666Y0206962D02*
X0296083Y0207379D01*
X0296083Y0208630D01*
X0294415Y0208630D01*
X0294415Y0209724D02*
X0294415Y0210558D01*
X0293998Y0210141D02*
X0295666Y0210141D01*
X0296083Y0210558D01*
X0295666Y0206962D02*
X0294415Y0206962D01*
X0312081Y0204950D02*
X0312498Y0205368D01*
X0314166Y0205368D01*
X0314583Y0204950D01*
X0314583Y0204116D01*
X0314166Y0203699D01*
X0312498Y0203699D01*
X0312081Y0204116D01*
X0312081Y0204950D01*
X0312915Y0206462D02*
X0314166Y0206462D01*
X0314583Y0206879D01*
X0314583Y0208130D01*
X0312915Y0208130D01*
X0312915Y0209224D02*
X0312915Y0210058D01*
X0312498Y0209641D02*
X0314166Y0209641D01*
X0314583Y0210058D01*
X0314583Y0199930D02*
X0314583Y0199095D01*
X0314583Y0199513D02*
X0312081Y0199513D01*
X0312081Y0199095D01*
X0312081Y0197671D02*
X0314583Y0197671D01*
X0314583Y0197254D02*
X0314583Y0198088D01*
X0314583Y0196246D02*
X0314583Y0195412D01*
X0314583Y0195829D02*
X0312915Y0195829D01*
X0312915Y0195412D01*
X0312081Y0195829D02*
X0311664Y0195829D01*
X0312081Y0197254D02*
X0312081Y0197671D01*
X0312081Y0194318D02*
X0314583Y0194318D01*
X0314583Y0192650D02*
X0312081Y0192650D01*
X0312915Y0193484D01*
X0312081Y0194318D01*
X0333164Y0196329D02*
X0333581Y0196329D01*
X0334415Y0196329D02*
X0336083Y0196329D01*
X0336083Y0195912D02*
X0336083Y0196746D01*
X0336083Y0197754D02*
X0336083Y0198588D01*
X0336083Y0198171D02*
X0333581Y0198171D01*
X0333581Y0197754D01*
X0334415Y0196329D02*
X0334415Y0195912D01*
X0333581Y0194818D02*
X0336083Y0194818D01*
X0336083Y0193150D02*
X0333581Y0193150D01*
X0334415Y0193984D01*
X0333581Y0194818D01*
X0333581Y0199595D02*
X0333581Y0200013D01*
X0336083Y0200013D01*
X0336083Y0200430D02*
X0336083Y0199595D01*
X0335666Y0204199D02*
X0333998Y0204199D01*
X0333581Y0204616D01*
X0333581Y0205450D01*
X0333998Y0205868D01*
X0335666Y0205868D01*
X0336083Y0205450D01*
X0336083Y0204616D01*
X0335666Y0204199D01*
X0335666Y0206962D02*
X0334415Y0206962D01*
X0335666Y0206962D02*
X0336083Y0207379D01*
X0336083Y0208630D01*
X0334415Y0208630D01*
X0334415Y0209724D02*
X0334415Y0210558D01*
X0333998Y0210141D02*
X0335666Y0210141D01*
X0336083Y0210558D01*
X0352081Y0204950D02*
X0352498Y0205368D01*
X0354166Y0205368D01*
X0354583Y0204950D01*
X0354583Y0204116D01*
X0354166Y0203699D01*
X0352498Y0203699D01*
X0352081Y0204116D01*
X0352081Y0204950D01*
X0352915Y0206462D02*
X0354166Y0206462D01*
X0354583Y0206879D01*
X0354583Y0208130D01*
X0352915Y0208130D01*
X0352915Y0209224D02*
X0352915Y0210058D01*
X0352498Y0209641D02*
X0354166Y0209641D01*
X0354583Y0210058D01*
X0354583Y0199930D02*
X0354583Y0199095D01*
X0354583Y0199513D02*
X0352081Y0199513D01*
X0352081Y0199095D01*
X0352081Y0197671D02*
X0354583Y0197671D01*
X0354583Y0197254D02*
X0354583Y0198088D01*
X0354583Y0196246D02*
X0354583Y0195412D01*
X0354583Y0195829D02*
X0352915Y0195829D01*
X0352915Y0195412D01*
X0352081Y0195829D02*
X0351664Y0195829D01*
X0352081Y0197254D02*
X0352081Y0197671D01*
X0352081Y0194318D02*
X0354583Y0194318D01*
X0354583Y0192650D02*
X0352081Y0192650D01*
X0352915Y0193484D01*
X0352081Y0194318D01*
X0373164Y0196329D02*
X0373581Y0196329D01*
X0374415Y0196329D02*
X0376083Y0196329D01*
X0376083Y0195912D02*
X0376083Y0196746D01*
X0376083Y0197754D02*
X0376083Y0198588D01*
X0376083Y0198171D02*
X0373581Y0198171D01*
X0373581Y0197754D01*
X0374415Y0196329D02*
X0374415Y0195912D01*
X0373581Y0194818D02*
X0376083Y0194818D01*
X0376083Y0193150D02*
X0373581Y0193150D01*
X0374415Y0193984D01*
X0373581Y0194818D01*
X0373581Y0199595D02*
X0373581Y0200013D01*
X0376083Y0200013D01*
X0376083Y0200430D02*
X0376083Y0199595D01*
X0375666Y0204199D02*
X0376083Y0204616D01*
X0376083Y0205450D01*
X0375666Y0205868D01*
X0373998Y0205868D01*
X0373581Y0205450D01*
X0373581Y0204616D01*
X0373998Y0204199D01*
X0375666Y0204199D01*
X0375666Y0206962D02*
X0376083Y0207379D01*
X0376083Y0208630D01*
X0374415Y0208630D01*
X0374415Y0209724D02*
X0374415Y0210558D01*
X0373998Y0210141D02*
X0375666Y0210141D01*
X0376083Y0210558D01*
X0375666Y0206962D02*
X0374415Y0206962D01*
X0374415Y0170558D02*
X0374415Y0169724D01*
X0373998Y0170141D02*
X0375666Y0170141D01*
X0376083Y0170558D01*
X0376083Y0168630D02*
X0374415Y0168630D01*
X0374415Y0166962D02*
X0375666Y0166962D01*
X0376083Y0167379D01*
X0376083Y0168630D01*
X0375666Y0165868D02*
X0373998Y0165868D01*
X0373581Y0165450D01*
X0373581Y0164616D01*
X0373998Y0164199D01*
X0375666Y0164199D01*
X0376083Y0164616D01*
X0376083Y0165450D01*
X0375666Y0165868D01*
X0376083Y0160430D02*
X0376083Y0159595D01*
X0376083Y0160013D02*
X0373581Y0160013D01*
X0373581Y0159595D01*
X0373581Y0158171D02*
X0376083Y0158171D01*
X0376083Y0157754D02*
X0376083Y0158588D01*
X0376083Y0156746D02*
X0376083Y0155912D01*
X0376083Y0156329D02*
X0374415Y0156329D01*
X0374415Y0155912D01*
X0373581Y0156329D02*
X0373164Y0156329D01*
X0373581Y0157754D02*
X0373581Y0158171D01*
X0373581Y0154818D02*
X0376083Y0154818D01*
X0376083Y0153150D02*
X0373581Y0153150D01*
X0374415Y0153984D01*
X0373581Y0154818D01*
X0354583Y0154318D02*
X0352081Y0154318D01*
X0352915Y0153484D01*
X0352081Y0152650D01*
X0354583Y0152650D01*
X0354583Y0155412D02*
X0354583Y0156246D01*
X0354583Y0155829D02*
X0352915Y0155829D01*
X0352915Y0155412D01*
X0352081Y0155829D02*
X0351664Y0155829D01*
X0352081Y0157254D02*
X0352081Y0157671D01*
X0354583Y0157671D01*
X0354583Y0157254D02*
X0354583Y0158088D01*
X0354583Y0159095D02*
X0354583Y0159930D01*
X0354583Y0159513D02*
X0352081Y0159513D01*
X0352081Y0159095D01*
X0352498Y0163699D02*
X0352081Y0164116D01*
X0352081Y0164950D01*
X0352498Y0165368D01*
X0354166Y0165368D01*
X0354583Y0164950D01*
X0354583Y0164116D01*
X0354166Y0163699D01*
X0352498Y0163699D01*
X0352915Y0166462D02*
X0354166Y0166462D01*
X0354583Y0166879D01*
X0354583Y0168130D01*
X0352915Y0168130D01*
X0352915Y0169224D02*
X0352915Y0170058D01*
X0352498Y0169641D02*
X0354166Y0169641D01*
X0354583Y0170058D01*
X0336083Y0170558D02*
X0335666Y0170141D01*
X0333998Y0170141D01*
X0334415Y0169724D02*
X0334415Y0170558D01*
X0334415Y0168630D02*
X0336083Y0168630D01*
X0336083Y0167379D01*
X0335666Y0166962D01*
X0334415Y0166962D01*
X0333998Y0165868D02*
X0333581Y0165450D01*
X0333581Y0164616D01*
X0333998Y0164199D01*
X0335666Y0164199D01*
X0336083Y0164616D01*
X0336083Y0165450D01*
X0335666Y0165868D01*
X0333998Y0165868D01*
X0336083Y0160430D02*
X0336083Y0159595D01*
X0336083Y0160013D02*
X0333581Y0160013D01*
X0333581Y0159595D01*
X0333581Y0158171D02*
X0336083Y0158171D01*
X0336083Y0157754D02*
X0336083Y0158588D01*
X0336083Y0156746D02*
X0336083Y0155912D01*
X0336083Y0156329D02*
X0334415Y0156329D01*
X0334415Y0155912D01*
X0333581Y0156329D02*
X0333164Y0156329D01*
X0333581Y0157754D02*
X0333581Y0158171D01*
X0333581Y0154818D02*
X0336083Y0154818D01*
X0336083Y0153150D02*
X0333581Y0153150D01*
X0334415Y0153984D01*
X0333581Y0154818D01*
X0314583Y0154318D02*
X0312081Y0154318D01*
X0312915Y0153484D01*
X0312081Y0152650D01*
X0314583Y0152650D01*
X0314583Y0155412D02*
X0314583Y0156246D01*
X0314583Y0155829D02*
X0312915Y0155829D01*
X0312915Y0155412D01*
X0312081Y0155829D02*
X0311664Y0155829D01*
X0312081Y0157254D02*
X0312081Y0157671D01*
X0314583Y0157671D01*
X0314583Y0157254D02*
X0314583Y0158088D01*
X0314583Y0159095D02*
X0314583Y0159930D01*
X0314583Y0159513D02*
X0312081Y0159513D01*
X0312081Y0159095D01*
X0312498Y0163699D02*
X0314166Y0163699D01*
X0314583Y0164116D01*
X0314583Y0164950D01*
X0314166Y0165368D01*
X0312498Y0165368D01*
X0312081Y0164950D01*
X0312081Y0164116D01*
X0312498Y0163699D01*
X0312915Y0166462D02*
X0314166Y0166462D01*
X0314583Y0166879D01*
X0314583Y0168130D01*
X0312915Y0168130D01*
X0312915Y0169224D02*
X0312915Y0170058D01*
X0312498Y0169641D02*
X0314166Y0169641D01*
X0314583Y0170058D01*
X0296083Y0170558D02*
X0295666Y0170141D01*
X0293998Y0170141D01*
X0294415Y0169724D02*
X0294415Y0170558D01*
X0294415Y0168630D02*
X0296083Y0168630D01*
X0296083Y0167379D01*
X0295666Y0166962D01*
X0294415Y0166962D01*
X0293998Y0165868D02*
X0293581Y0165450D01*
X0293581Y0164616D01*
X0293998Y0164199D01*
X0295666Y0164199D01*
X0296083Y0164616D01*
X0296083Y0165450D01*
X0295666Y0165868D01*
X0293998Y0165868D01*
X0296083Y0160430D02*
X0296083Y0159595D01*
X0296083Y0160013D02*
X0293581Y0160013D01*
X0293581Y0159595D01*
X0293581Y0158171D02*
X0296083Y0158171D01*
X0296083Y0157754D02*
X0296083Y0158588D01*
X0296083Y0156746D02*
X0296083Y0155912D01*
X0296083Y0156329D02*
X0294415Y0156329D01*
X0294415Y0155912D01*
X0293581Y0156329D02*
X0293164Y0156329D01*
X0293581Y0157754D02*
X0293581Y0158171D01*
X0293581Y0154818D02*
X0296083Y0154818D01*
X0296083Y0153150D02*
X0293581Y0153150D01*
X0294415Y0153984D01*
X0293581Y0154818D01*
X0274583Y0154318D02*
X0272081Y0154318D01*
X0272915Y0153484D01*
X0272081Y0152650D01*
X0274583Y0152650D01*
X0274583Y0155412D02*
X0274583Y0156246D01*
X0274583Y0155829D02*
X0272915Y0155829D01*
X0272915Y0155412D01*
X0272081Y0155829D02*
X0271664Y0155829D01*
X0272081Y0157254D02*
X0272081Y0157671D01*
X0274583Y0157671D01*
X0274583Y0157254D02*
X0274583Y0158088D01*
X0274583Y0159095D02*
X0274583Y0159930D01*
X0274583Y0159513D02*
X0272081Y0159513D01*
X0272081Y0159095D01*
X0272498Y0163699D02*
X0274166Y0163699D01*
X0274583Y0164116D01*
X0274583Y0164950D01*
X0274166Y0165368D01*
X0272498Y0165368D01*
X0272081Y0164950D01*
X0272081Y0164116D01*
X0272498Y0163699D01*
X0272915Y0166462D02*
X0274166Y0166462D01*
X0274583Y0166879D01*
X0274583Y0168130D01*
X0272915Y0168130D01*
X0272915Y0169224D02*
X0272915Y0170058D01*
X0272498Y0169641D02*
X0274166Y0169641D01*
X0274583Y0170058D01*
X0256083Y0170558D02*
X0255666Y0170141D01*
X0253998Y0170141D01*
X0254415Y0169724D02*
X0254415Y0170558D01*
X0254415Y0168630D02*
X0256083Y0168630D01*
X0256083Y0167379D01*
X0255666Y0166962D01*
X0254415Y0166962D01*
X0253998Y0165868D02*
X0253581Y0165450D01*
X0253581Y0164616D01*
X0253998Y0164199D01*
X0255666Y0164199D01*
X0256083Y0164616D01*
X0256083Y0165450D01*
X0255666Y0165868D01*
X0253998Y0165868D01*
X0256083Y0160430D02*
X0256083Y0159595D01*
X0256083Y0160013D02*
X0253581Y0160013D01*
X0253581Y0159595D01*
X0253581Y0158171D02*
X0256083Y0158171D01*
X0256083Y0157754D02*
X0256083Y0158588D01*
X0256083Y0156746D02*
X0256083Y0155912D01*
X0256083Y0156329D02*
X0254415Y0156329D01*
X0254415Y0155912D01*
X0253581Y0156329D02*
X0253164Y0156329D01*
X0253581Y0157754D02*
X0253581Y0158171D01*
X0253581Y0154818D02*
X0256083Y0154818D01*
X0256083Y0153150D02*
X0253581Y0153150D01*
X0254415Y0153984D01*
X0253581Y0154818D01*
X0234583Y0154318D02*
X0232081Y0154318D01*
X0232915Y0153484D01*
X0232081Y0152650D01*
X0234583Y0152650D01*
X0234583Y0155412D02*
X0234583Y0156246D01*
X0234583Y0155829D02*
X0232915Y0155829D01*
X0232915Y0155412D01*
X0232081Y0155829D02*
X0231664Y0155829D01*
X0232081Y0157254D02*
X0232081Y0157671D01*
X0234583Y0157671D01*
X0234583Y0157254D02*
X0234583Y0158088D01*
X0234583Y0159095D02*
X0234583Y0159930D01*
X0234583Y0159513D02*
X0232081Y0159513D01*
X0232081Y0159095D01*
X0232498Y0163699D02*
X0234166Y0163699D01*
X0234583Y0164116D01*
X0234583Y0164950D01*
X0234166Y0165368D01*
X0232498Y0165368D01*
X0232081Y0164950D01*
X0232081Y0164116D01*
X0232498Y0163699D01*
X0232915Y0166462D02*
X0234166Y0166462D01*
X0234583Y0166879D01*
X0234583Y0168130D01*
X0232915Y0168130D01*
X0232915Y0169224D02*
X0232915Y0170058D01*
X0232498Y0169641D02*
X0234166Y0169641D01*
X0234583Y0170058D01*
X0216083Y0170558D02*
X0215666Y0170141D01*
X0213998Y0170141D01*
X0214415Y0169724D02*
X0214415Y0170558D01*
X0214415Y0168630D02*
X0216083Y0168630D01*
X0216083Y0167379D01*
X0215666Y0166962D01*
X0214415Y0166962D01*
X0213998Y0165868D02*
X0213581Y0165450D01*
X0213581Y0164616D01*
X0213998Y0164199D01*
X0215666Y0164199D01*
X0216083Y0164616D01*
X0216083Y0165450D01*
X0215666Y0165868D01*
X0213998Y0165868D01*
X0216083Y0160430D02*
X0216083Y0159595D01*
X0216083Y0160013D02*
X0213581Y0160013D01*
X0213581Y0159595D01*
X0213581Y0158171D02*
X0216083Y0158171D01*
X0216083Y0157754D02*
X0216083Y0158588D01*
X0216083Y0156746D02*
X0216083Y0155912D01*
X0216083Y0156329D02*
X0214415Y0156329D01*
X0214415Y0155912D01*
X0213581Y0156329D02*
X0213164Y0156329D01*
X0213581Y0157754D02*
X0213581Y0158171D01*
X0213581Y0154818D02*
X0216083Y0154818D01*
X0216083Y0153150D02*
X0213581Y0153150D01*
X0214415Y0153984D01*
X0213581Y0154818D01*
X0194583Y0154318D02*
X0192081Y0154318D01*
X0192915Y0153484D01*
X0192081Y0152650D01*
X0194583Y0152650D01*
X0194583Y0155412D02*
X0194583Y0156246D01*
X0194583Y0155829D02*
X0192915Y0155829D01*
X0192915Y0155412D01*
X0192081Y0155829D02*
X0191664Y0155829D01*
X0192081Y0157254D02*
X0192081Y0157671D01*
X0194583Y0157671D01*
X0194583Y0157254D02*
X0194583Y0158088D01*
X0194583Y0159095D02*
X0194583Y0159930D01*
X0194583Y0159513D02*
X0192081Y0159513D01*
X0192081Y0159095D01*
X0192498Y0163699D02*
X0194166Y0163699D01*
X0194583Y0164116D01*
X0194583Y0164950D01*
X0194166Y0165368D01*
X0192498Y0165368D01*
X0192081Y0164950D01*
X0192081Y0164116D01*
X0192498Y0163699D01*
X0192915Y0166462D02*
X0194166Y0166462D01*
X0194583Y0166879D01*
X0194583Y0168130D01*
X0192915Y0168130D01*
X0192915Y0169224D02*
X0192915Y0170058D01*
X0192498Y0169641D02*
X0194166Y0169641D01*
X0194583Y0170058D01*
X0176083Y0170558D02*
X0175666Y0170141D01*
X0173998Y0170141D01*
X0174415Y0169724D02*
X0174415Y0170558D01*
X0174415Y0168630D02*
X0176083Y0168630D01*
X0176083Y0167379D01*
X0175666Y0166962D01*
X0174415Y0166962D01*
X0173998Y0165868D02*
X0173581Y0165450D01*
X0173581Y0164616D01*
X0173998Y0164199D01*
X0175666Y0164199D01*
X0176083Y0164616D01*
X0176083Y0165450D01*
X0175666Y0165868D01*
X0173998Y0165868D01*
X0176083Y0160430D02*
X0176083Y0159595D01*
X0176083Y0160013D02*
X0173581Y0160013D01*
X0173581Y0159595D01*
X0173581Y0158171D02*
X0176083Y0158171D01*
X0176083Y0157754D02*
X0176083Y0158588D01*
X0176083Y0156746D02*
X0176083Y0155912D01*
X0176083Y0156329D02*
X0174415Y0156329D01*
X0174415Y0155912D01*
X0173581Y0156329D02*
X0173164Y0156329D01*
X0173581Y0157754D02*
X0173581Y0158171D01*
X0173581Y0154818D02*
X0176083Y0154818D01*
X0176083Y0153150D02*
X0173581Y0153150D01*
X0174415Y0153984D01*
X0173581Y0154818D01*
X0154583Y0154318D02*
X0152081Y0154318D01*
X0152915Y0153484D01*
X0152081Y0152650D01*
X0154583Y0152650D01*
X0154583Y0155412D02*
X0154583Y0156246D01*
X0154583Y0155829D02*
X0152915Y0155829D01*
X0152915Y0155412D01*
X0152081Y0155829D02*
X0151664Y0155829D01*
X0152081Y0157254D02*
X0152081Y0157671D01*
X0154583Y0157671D01*
X0154583Y0157254D02*
X0154583Y0158088D01*
X0154583Y0159095D02*
X0154583Y0159930D01*
X0154583Y0159513D02*
X0152081Y0159513D01*
X0152081Y0159095D01*
X0152498Y0163699D02*
X0154166Y0163699D01*
X0154583Y0164116D01*
X0154583Y0164950D01*
X0154166Y0165368D01*
X0152498Y0165368D01*
X0152081Y0164950D01*
X0152081Y0164116D01*
X0152498Y0163699D01*
X0152915Y0166462D02*
X0154166Y0166462D01*
X0154583Y0166879D01*
X0154583Y0168130D01*
X0152915Y0168130D01*
X0152915Y0169224D02*
X0152915Y0170058D01*
X0152498Y0169641D02*
X0154166Y0169641D01*
X0154583Y0170058D01*
X0136083Y0170558D02*
X0135666Y0170141D01*
X0133998Y0170141D01*
X0134415Y0169724D02*
X0134415Y0170558D01*
X0134415Y0168630D02*
X0136083Y0168630D01*
X0136083Y0167379D01*
X0135666Y0166962D01*
X0134415Y0166962D01*
X0133998Y0165868D02*
X0133581Y0165450D01*
X0133581Y0164616D01*
X0133998Y0164199D01*
X0135666Y0164199D01*
X0136083Y0164616D01*
X0136083Y0165450D01*
X0135666Y0165868D01*
X0133998Y0165868D01*
X0136083Y0160430D02*
X0136083Y0159595D01*
X0136083Y0160013D02*
X0133581Y0160013D01*
X0133581Y0159595D01*
X0133581Y0158171D02*
X0136083Y0158171D01*
X0136083Y0157754D02*
X0136083Y0158588D01*
X0136083Y0156746D02*
X0136083Y0155912D01*
X0136083Y0156329D02*
X0134415Y0156329D01*
X0134415Y0155912D01*
X0133581Y0156329D02*
X0133164Y0156329D01*
X0133581Y0157754D02*
X0133581Y0158171D01*
X0133581Y0154818D02*
X0136083Y0154818D01*
X0136083Y0153150D02*
X0133581Y0153150D01*
X0134415Y0153984D01*
X0133581Y0154818D01*
X0114583Y0154318D02*
X0112081Y0154318D01*
X0112915Y0153484D01*
X0112081Y0152650D01*
X0114583Y0152650D01*
X0114583Y0155412D02*
X0114583Y0156246D01*
X0114583Y0155829D02*
X0112915Y0155829D01*
X0112915Y0155412D01*
X0112081Y0155829D02*
X0111664Y0155829D01*
X0112081Y0157254D02*
X0112081Y0157671D01*
X0114583Y0157671D01*
X0114583Y0157254D02*
X0114583Y0158088D01*
X0114583Y0159095D02*
X0114583Y0159930D01*
X0114583Y0159513D02*
X0112081Y0159513D01*
X0112081Y0159095D01*
X0112498Y0163699D02*
X0114166Y0163699D01*
X0114583Y0164116D01*
X0114583Y0164950D01*
X0114166Y0165368D01*
X0112498Y0165368D01*
X0112081Y0164950D01*
X0112081Y0164116D01*
X0112498Y0163699D01*
X0112915Y0166462D02*
X0114166Y0166462D01*
X0114583Y0166879D01*
X0114583Y0168130D01*
X0112915Y0168130D01*
X0112915Y0169224D02*
X0112915Y0170058D01*
X0112498Y0169641D02*
X0114166Y0169641D01*
X0114583Y0170058D01*
X0114583Y0130058D02*
X0114166Y0129641D01*
X0112498Y0129641D01*
X0112915Y0129224D02*
X0112915Y0130058D01*
X0112915Y0128130D02*
X0114583Y0128130D01*
X0114583Y0126879D01*
X0114166Y0126462D01*
X0112915Y0126462D01*
X0112498Y0125368D02*
X0112081Y0124950D01*
X0112081Y0124116D01*
X0112498Y0123699D01*
X0114166Y0123699D01*
X0114583Y0124116D01*
X0114583Y0124950D01*
X0114166Y0125368D01*
X0112498Y0125368D01*
X0114583Y0119930D02*
X0114583Y0119095D01*
X0114583Y0119513D02*
X0112081Y0119513D01*
X0112081Y0119095D01*
X0112081Y0117671D02*
X0114583Y0117671D01*
X0114583Y0117254D02*
X0114583Y0118088D01*
X0114583Y0116246D02*
X0114583Y0115412D01*
X0114583Y0115829D02*
X0112915Y0115829D01*
X0112915Y0115412D01*
X0112081Y0115829D02*
X0111664Y0115829D01*
X0112081Y0117254D02*
X0112081Y0117671D01*
X0112081Y0114318D02*
X0114583Y0114318D01*
X0114583Y0112650D02*
X0112081Y0112650D01*
X0112915Y0113484D01*
X0112081Y0114318D01*
X0133164Y0116329D02*
X0133581Y0116329D01*
X0134415Y0116329D02*
X0136083Y0116329D01*
X0136083Y0115912D02*
X0136083Y0116746D01*
X0136083Y0117754D02*
X0136083Y0118588D01*
X0136083Y0118171D02*
X0133581Y0118171D01*
X0133581Y0117754D01*
X0134415Y0116329D02*
X0134415Y0115912D01*
X0133581Y0114818D02*
X0136083Y0114818D01*
X0136083Y0113150D02*
X0133581Y0113150D01*
X0134415Y0113984D01*
X0133581Y0114818D01*
X0133581Y0119595D02*
X0133581Y0120013D01*
X0136083Y0120013D01*
X0136083Y0120430D02*
X0136083Y0119595D01*
X0135666Y0124199D02*
X0136083Y0124616D01*
X0136083Y0125450D01*
X0135666Y0125868D01*
X0133998Y0125868D01*
X0133581Y0125450D01*
X0133581Y0124616D01*
X0133998Y0124199D01*
X0135666Y0124199D01*
X0135666Y0126962D02*
X0136083Y0127379D01*
X0136083Y0128630D01*
X0134415Y0128630D01*
X0134415Y0129724D02*
X0134415Y0130558D01*
X0133998Y0130141D02*
X0135666Y0130141D01*
X0136083Y0130558D01*
X0135666Y0126962D02*
X0134415Y0126962D01*
X0152081Y0124950D02*
X0152498Y0125368D01*
X0154166Y0125368D01*
X0154583Y0124950D01*
X0154583Y0124116D01*
X0154166Y0123699D01*
X0152498Y0123699D01*
X0152081Y0124116D01*
X0152081Y0124950D01*
X0152915Y0126462D02*
X0154166Y0126462D01*
X0154583Y0126879D01*
X0154583Y0128130D01*
X0152915Y0128130D01*
X0152915Y0129224D02*
X0152915Y0130058D01*
X0152498Y0129641D02*
X0154166Y0129641D01*
X0154583Y0130058D01*
X0154583Y0119930D02*
X0154583Y0119095D01*
X0154583Y0119513D02*
X0152081Y0119513D01*
X0152081Y0119095D01*
X0152081Y0117671D02*
X0154583Y0117671D01*
X0154583Y0117254D02*
X0154583Y0118088D01*
X0154583Y0116246D02*
X0154583Y0115412D01*
X0154583Y0115829D02*
X0152915Y0115829D01*
X0152915Y0115412D01*
X0152081Y0115829D02*
X0151664Y0115829D01*
X0152081Y0117254D02*
X0152081Y0117671D01*
X0152081Y0114318D02*
X0154583Y0114318D01*
X0154583Y0112650D02*
X0152081Y0112650D01*
X0152915Y0113484D01*
X0152081Y0114318D01*
X0173164Y0116329D02*
X0173581Y0116329D01*
X0174415Y0116329D02*
X0176083Y0116329D01*
X0176083Y0115912D02*
X0176083Y0116746D01*
X0176083Y0117754D02*
X0176083Y0118588D01*
X0176083Y0118171D02*
X0173581Y0118171D01*
X0173581Y0117754D01*
X0174415Y0116329D02*
X0174415Y0115912D01*
X0173581Y0114818D02*
X0176083Y0114818D01*
X0176083Y0113150D02*
X0173581Y0113150D01*
X0174415Y0113984D01*
X0173581Y0114818D01*
X0173581Y0119595D02*
X0173581Y0120013D01*
X0176083Y0120013D01*
X0176083Y0120430D02*
X0176083Y0119595D01*
X0175666Y0124199D02*
X0176083Y0124616D01*
X0176083Y0125450D01*
X0175666Y0125868D01*
X0173998Y0125868D01*
X0173581Y0125450D01*
X0173581Y0124616D01*
X0173998Y0124199D01*
X0175666Y0124199D01*
X0175666Y0126962D02*
X0176083Y0127379D01*
X0176083Y0128630D01*
X0174415Y0128630D01*
X0174415Y0129724D02*
X0174415Y0130558D01*
X0173998Y0130141D02*
X0175666Y0130141D01*
X0176083Y0130558D01*
X0175666Y0126962D02*
X0174415Y0126962D01*
X0192081Y0124950D02*
X0192498Y0125368D01*
X0194166Y0125368D01*
X0194583Y0124950D01*
X0194583Y0124116D01*
X0194166Y0123699D01*
X0192498Y0123699D01*
X0192081Y0124116D01*
X0192081Y0124950D01*
X0192915Y0126462D02*
X0194166Y0126462D01*
X0194583Y0126879D01*
X0194583Y0128130D01*
X0192915Y0128130D01*
X0192915Y0129224D02*
X0192915Y0130058D01*
X0192498Y0129641D02*
X0194166Y0129641D01*
X0194583Y0130058D01*
X0194583Y0119930D02*
X0194583Y0119095D01*
X0194583Y0119513D02*
X0192081Y0119513D01*
X0192081Y0119095D01*
X0192081Y0117671D02*
X0194583Y0117671D01*
X0194583Y0117254D02*
X0194583Y0118088D01*
X0194583Y0116246D02*
X0194583Y0115412D01*
X0194583Y0115829D02*
X0192915Y0115829D01*
X0192915Y0115412D01*
X0192081Y0115829D02*
X0191664Y0115829D01*
X0192081Y0117254D02*
X0192081Y0117671D01*
X0192081Y0114318D02*
X0194583Y0114318D01*
X0194583Y0112650D02*
X0192081Y0112650D01*
X0192915Y0113484D01*
X0192081Y0114318D01*
X0213164Y0116329D02*
X0213581Y0116329D01*
X0214415Y0116329D02*
X0216083Y0116329D01*
X0216083Y0115912D02*
X0216083Y0116746D01*
X0216083Y0117754D02*
X0216083Y0118588D01*
X0216083Y0118171D02*
X0213581Y0118171D01*
X0213581Y0117754D01*
X0214415Y0116329D02*
X0214415Y0115912D01*
X0213581Y0114818D02*
X0216083Y0114818D01*
X0216083Y0113150D02*
X0213581Y0113150D01*
X0214415Y0113984D01*
X0213581Y0114818D01*
X0213581Y0119595D02*
X0213581Y0120013D01*
X0216083Y0120013D01*
X0216083Y0120430D02*
X0216083Y0119595D01*
X0215666Y0124199D02*
X0213998Y0124199D01*
X0213581Y0124616D01*
X0213581Y0125450D01*
X0213998Y0125868D01*
X0215666Y0125868D01*
X0216083Y0125450D01*
X0216083Y0124616D01*
X0215666Y0124199D01*
X0215666Y0126962D02*
X0214415Y0126962D01*
X0215666Y0126962D02*
X0216083Y0127379D01*
X0216083Y0128630D01*
X0214415Y0128630D01*
X0214415Y0129724D02*
X0214415Y0130558D01*
X0213998Y0130141D02*
X0215666Y0130141D01*
X0216083Y0130558D01*
X0232498Y0129641D02*
X0234166Y0129641D01*
X0234583Y0130058D01*
X0232915Y0130058D02*
X0232915Y0129224D01*
X0232915Y0128130D02*
X0234583Y0128130D01*
X0234583Y0126879D01*
X0234166Y0126462D01*
X0232915Y0126462D01*
X0232498Y0125368D02*
X0232081Y0124950D01*
X0232081Y0124116D01*
X0232498Y0123699D01*
X0234166Y0123699D01*
X0234583Y0124116D01*
X0234583Y0124950D01*
X0234166Y0125368D01*
X0232498Y0125368D01*
X0234583Y0119930D02*
X0234583Y0119095D01*
X0234583Y0119513D02*
X0232081Y0119513D01*
X0232081Y0119095D01*
X0232081Y0117671D02*
X0234583Y0117671D01*
X0234583Y0117254D02*
X0234583Y0118088D01*
X0234583Y0116246D02*
X0234583Y0115412D01*
X0234583Y0115829D02*
X0232915Y0115829D01*
X0232915Y0115412D01*
X0232081Y0115829D02*
X0231664Y0115829D01*
X0232081Y0117254D02*
X0232081Y0117671D01*
X0232081Y0114318D02*
X0234583Y0114318D01*
X0234583Y0112650D02*
X0232081Y0112650D01*
X0232915Y0113484D01*
X0232081Y0114318D01*
X0253164Y0116329D02*
X0253581Y0116329D01*
X0254415Y0116329D02*
X0256083Y0116329D01*
X0256083Y0115912D02*
X0256083Y0116746D01*
X0256083Y0117754D02*
X0256083Y0118588D01*
X0256083Y0118171D02*
X0253581Y0118171D01*
X0253581Y0117754D01*
X0254415Y0116329D02*
X0254415Y0115912D01*
X0253581Y0114818D02*
X0256083Y0114818D01*
X0256083Y0113150D02*
X0253581Y0113150D01*
X0254415Y0113984D01*
X0253581Y0114818D01*
X0253581Y0119595D02*
X0253581Y0120013D01*
X0256083Y0120013D01*
X0256083Y0120430D02*
X0256083Y0119595D01*
X0255666Y0124199D02*
X0256083Y0124616D01*
X0256083Y0125450D01*
X0255666Y0125868D01*
X0253998Y0125868D01*
X0253581Y0125450D01*
X0253581Y0124616D01*
X0253998Y0124199D01*
X0255666Y0124199D01*
X0255666Y0126962D02*
X0256083Y0127379D01*
X0256083Y0128630D01*
X0254415Y0128630D01*
X0254415Y0129724D02*
X0254415Y0130558D01*
X0253998Y0130141D02*
X0255666Y0130141D01*
X0256083Y0130558D01*
X0255666Y0126962D02*
X0254415Y0126962D01*
X0272081Y0124950D02*
X0272498Y0125368D01*
X0274166Y0125368D01*
X0274583Y0124950D01*
X0274583Y0124116D01*
X0274166Y0123699D01*
X0272498Y0123699D01*
X0272081Y0124116D01*
X0272081Y0124950D01*
X0272915Y0126462D02*
X0274166Y0126462D01*
X0274583Y0126879D01*
X0274583Y0128130D01*
X0272915Y0128130D01*
X0272915Y0129224D02*
X0272915Y0130058D01*
X0272498Y0129641D02*
X0274166Y0129641D01*
X0274583Y0130058D01*
X0274583Y0119930D02*
X0274583Y0119095D01*
X0274583Y0119513D02*
X0272081Y0119513D01*
X0272081Y0119095D01*
X0272081Y0117671D02*
X0274583Y0117671D01*
X0274583Y0117254D02*
X0274583Y0118088D01*
X0274583Y0116246D02*
X0274583Y0115412D01*
X0274583Y0115829D02*
X0272915Y0115829D01*
X0272915Y0115412D01*
X0272081Y0115829D02*
X0271664Y0115829D01*
X0272081Y0117254D02*
X0272081Y0117671D01*
X0272081Y0114318D02*
X0274583Y0114318D01*
X0274583Y0112650D02*
X0272081Y0112650D01*
X0272915Y0113484D01*
X0272081Y0114318D01*
X0293164Y0116329D02*
X0293581Y0116329D01*
X0294415Y0116329D02*
X0296083Y0116329D01*
X0296083Y0115912D02*
X0296083Y0116746D01*
X0296083Y0117754D02*
X0296083Y0118588D01*
X0296083Y0118171D02*
X0293581Y0118171D01*
X0293581Y0117754D01*
X0294415Y0116329D02*
X0294415Y0115912D01*
X0293581Y0114818D02*
X0296083Y0114818D01*
X0296083Y0113150D02*
X0293581Y0113150D01*
X0294415Y0113984D01*
X0293581Y0114818D01*
X0293581Y0119595D02*
X0293581Y0120013D01*
X0296083Y0120013D01*
X0296083Y0120430D02*
X0296083Y0119595D01*
X0295666Y0124199D02*
X0296083Y0124616D01*
X0296083Y0125450D01*
X0295666Y0125868D01*
X0293998Y0125868D01*
X0293581Y0125450D01*
X0293581Y0124616D01*
X0293998Y0124199D01*
X0295666Y0124199D01*
X0295666Y0126962D02*
X0296083Y0127379D01*
X0296083Y0128630D01*
X0294415Y0128630D01*
X0294415Y0129724D02*
X0294415Y0130558D01*
X0293998Y0130141D02*
X0295666Y0130141D01*
X0296083Y0130558D01*
X0295666Y0126962D02*
X0294415Y0126962D01*
X0312081Y0124950D02*
X0312498Y0125368D01*
X0314166Y0125368D01*
X0314583Y0124950D01*
X0314583Y0124116D01*
X0314166Y0123699D01*
X0312498Y0123699D01*
X0312081Y0124116D01*
X0312081Y0124950D01*
X0312915Y0126462D02*
X0314166Y0126462D01*
X0314583Y0126879D01*
X0314583Y0128130D01*
X0312915Y0128130D01*
X0312915Y0129224D02*
X0312915Y0130058D01*
X0312498Y0129641D02*
X0314166Y0129641D01*
X0314583Y0130058D01*
X0314583Y0119930D02*
X0314583Y0119095D01*
X0314583Y0119513D02*
X0312081Y0119513D01*
X0312081Y0119095D01*
X0312081Y0117671D02*
X0314583Y0117671D01*
X0314583Y0117254D02*
X0314583Y0118088D01*
X0314583Y0116246D02*
X0314583Y0115412D01*
X0314583Y0115829D02*
X0312915Y0115829D01*
X0312915Y0115412D01*
X0312081Y0115829D02*
X0311664Y0115829D01*
X0312081Y0117254D02*
X0312081Y0117671D01*
X0312081Y0114318D02*
X0314583Y0114318D01*
X0314583Y0112650D02*
X0312081Y0112650D01*
X0312915Y0113484D01*
X0312081Y0114318D01*
X0333164Y0116329D02*
X0333581Y0116329D01*
X0334415Y0116329D02*
X0336083Y0116329D01*
X0336083Y0115912D02*
X0336083Y0116746D01*
X0336083Y0117754D02*
X0336083Y0118588D01*
X0336083Y0118171D02*
X0333581Y0118171D01*
X0333581Y0117754D01*
X0334415Y0116329D02*
X0334415Y0115912D01*
X0333581Y0114818D02*
X0336083Y0114818D01*
X0336083Y0113150D02*
X0333581Y0113150D01*
X0334415Y0113984D01*
X0333581Y0114818D01*
X0333581Y0119595D02*
X0333581Y0120013D01*
X0336083Y0120013D01*
X0336083Y0120430D02*
X0336083Y0119595D01*
X0335666Y0124199D02*
X0333998Y0124199D01*
X0333581Y0124616D01*
X0333581Y0125450D01*
X0333998Y0125868D01*
X0335666Y0125868D01*
X0336083Y0125450D01*
X0336083Y0124616D01*
X0335666Y0124199D01*
X0335666Y0126962D02*
X0334415Y0126962D01*
X0335666Y0126962D02*
X0336083Y0127379D01*
X0336083Y0128630D01*
X0334415Y0128630D01*
X0334415Y0129724D02*
X0334415Y0130558D01*
X0333998Y0130141D02*
X0335666Y0130141D01*
X0336083Y0130558D01*
X0352081Y0124950D02*
X0352498Y0125368D01*
X0354166Y0125368D01*
X0354583Y0124950D01*
X0354583Y0124116D01*
X0354166Y0123699D01*
X0352498Y0123699D01*
X0352081Y0124116D01*
X0352081Y0124950D01*
X0352915Y0126462D02*
X0354166Y0126462D01*
X0354583Y0126879D01*
X0354583Y0128130D01*
X0352915Y0128130D01*
X0352915Y0129224D02*
X0352915Y0130058D01*
X0352498Y0129641D02*
X0354166Y0129641D01*
X0354583Y0130058D01*
X0354583Y0119930D02*
X0354583Y0119095D01*
X0354583Y0119513D02*
X0352081Y0119513D01*
X0352081Y0119095D01*
X0352081Y0117671D02*
X0354583Y0117671D01*
X0354583Y0117254D02*
X0354583Y0118088D01*
X0354583Y0116246D02*
X0354583Y0115412D01*
X0354583Y0115829D02*
X0352915Y0115829D01*
X0352915Y0115412D01*
X0352081Y0115829D02*
X0351664Y0115829D01*
X0352081Y0117254D02*
X0352081Y0117671D01*
X0352081Y0114318D02*
X0354583Y0114318D01*
X0354583Y0112650D02*
X0352081Y0112650D01*
X0352915Y0113484D01*
X0352081Y0114318D01*
X0373164Y0116329D02*
X0373581Y0116329D01*
X0374415Y0116329D02*
X0374415Y0115912D01*
X0374415Y0116329D02*
X0376083Y0116329D01*
X0376083Y0115912D02*
X0376083Y0116746D01*
X0376083Y0117754D02*
X0376083Y0118588D01*
X0376083Y0118171D02*
X0373581Y0118171D01*
X0373581Y0117754D01*
X0373581Y0119595D02*
X0373581Y0120013D01*
X0376083Y0120013D01*
X0376083Y0120430D02*
X0376083Y0119595D01*
X0375666Y0124199D02*
X0376083Y0124616D01*
X0376083Y0125450D01*
X0375666Y0125868D01*
X0373998Y0125868D01*
X0373581Y0125450D01*
X0373581Y0124616D01*
X0373998Y0124199D01*
X0375666Y0124199D01*
X0375666Y0126962D02*
X0376083Y0127379D01*
X0376083Y0128630D01*
X0374415Y0128630D01*
X0374415Y0129724D02*
X0374415Y0130558D01*
X0373998Y0130141D02*
X0375666Y0130141D01*
X0376083Y0130558D01*
X0375666Y0126962D02*
X0374415Y0126962D01*
X0373581Y0114818D02*
X0376083Y0114818D01*
X0376083Y0113150D02*
X0373581Y0113150D01*
X0374415Y0113984D01*
X0373581Y0114818D01*
X0374415Y0090558D02*
X0374415Y0089724D01*
X0373998Y0090141D02*
X0375666Y0090141D01*
X0376083Y0090558D01*
X0376083Y0088630D02*
X0374415Y0088630D01*
X0374415Y0086962D02*
X0375666Y0086962D01*
X0376083Y0087379D01*
X0376083Y0088630D01*
X0375666Y0085868D02*
X0373998Y0085868D01*
X0373581Y0085450D01*
X0373581Y0084616D01*
X0373998Y0084199D01*
X0375666Y0084199D01*
X0376083Y0084616D01*
X0376083Y0085450D01*
X0375666Y0085868D01*
X0376083Y0080430D02*
X0376083Y0079595D01*
X0376083Y0080013D02*
X0373581Y0080013D01*
X0373581Y0079595D01*
X0373581Y0078171D02*
X0376083Y0078171D01*
X0376083Y0077754D02*
X0376083Y0078588D01*
X0376083Y0076746D02*
X0376083Y0075912D01*
X0376083Y0076329D02*
X0374415Y0076329D01*
X0374415Y0075912D01*
X0373581Y0076329D02*
X0373164Y0076329D01*
X0373581Y0077754D02*
X0373581Y0078171D01*
X0373581Y0074818D02*
X0376083Y0074818D01*
X0376083Y0073150D02*
X0373581Y0073150D01*
X0374415Y0073984D01*
X0373581Y0074818D01*
X0354583Y0074318D02*
X0352081Y0074318D01*
X0352915Y0073484D01*
X0352081Y0072650D01*
X0354583Y0072650D01*
X0354583Y0075412D02*
X0354583Y0076246D01*
X0354583Y0075829D02*
X0352915Y0075829D01*
X0352915Y0075412D01*
X0352081Y0075829D02*
X0351664Y0075829D01*
X0352081Y0077254D02*
X0352081Y0077671D01*
X0354583Y0077671D01*
X0354583Y0077254D02*
X0354583Y0078088D01*
X0354583Y0079095D02*
X0354583Y0079930D01*
X0354583Y0079513D02*
X0352081Y0079513D01*
X0352081Y0079095D01*
X0352498Y0083699D02*
X0354166Y0083699D01*
X0354583Y0084116D01*
X0354583Y0084950D01*
X0354166Y0085368D01*
X0352498Y0085368D01*
X0352081Y0084950D01*
X0352081Y0084116D01*
X0352498Y0083699D01*
X0352915Y0086462D02*
X0354166Y0086462D01*
X0354583Y0086879D01*
X0354583Y0088130D01*
X0352915Y0088130D01*
X0352915Y0089224D02*
X0352915Y0090058D01*
X0352498Y0089641D02*
X0354166Y0089641D01*
X0354583Y0090058D01*
X0336083Y0090558D02*
X0335666Y0090141D01*
X0333998Y0090141D01*
X0334415Y0089724D02*
X0334415Y0090558D01*
X0334415Y0088630D02*
X0336083Y0088630D01*
X0336083Y0087379D01*
X0335666Y0086962D01*
X0334415Y0086962D01*
X0333998Y0085868D02*
X0333581Y0085450D01*
X0333581Y0084616D01*
X0333998Y0084199D01*
X0335666Y0084199D01*
X0336083Y0084616D01*
X0336083Y0085450D01*
X0335666Y0085868D01*
X0333998Y0085868D01*
X0336083Y0080430D02*
X0336083Y0079595D01*
X0336083Y0080013D02*
X0333581Y0080013D01*
X0333581Y0079595D01*
X0333581Y0078171D02*
X0336083Y0078171D01*
X0336083Y0077754D02*
X0336083Y0078588D01*
X0336083Y0076746D02*
X0336083Y0075912D01*
X0336083Y0076329D02*
X0334415Y0076329D01*
X0334415Y0075912D01*
X0333581Y0076329D02*
X0333164Y0076329D01*
X0333581Y0077754D02*
X0333581Y0078171D01*
X0333581Y0074818D02*
X0336083Y0074818D01*
X0336083Y0073150D02*
X0333581Y0073150D01*
X0334415Y0073984D01*
X0333581Y0074818D01*
X0314583Y0074318D02*
X0312081Y0074318D01*
X0312915Y0073484D01*
X0312081Y0072650D01*
X0314583Y0072650D01*
X0314583Y0075412D02*
X0314583Y0076246D01*
X0314583Y0075829D02*
X0312915Y0075829D01*
X0312915Y0075412D01*
X0312081Y0075829D02*
X0311664Y0075829D01*
X0312081Y0077254D02*
X0312081Y0077671D01*
X0314583Y0077671D01*
X0314583Y0077254D02*
X0314583Y0078088D01*
X0314583Y0079095D02*
X0314583Y0079930D01*
X0314583Y0079513D02*
X0312081Y0079513D01*
X0312081Y0079095D01*
X0312498Y0083699D02*
X0314166Y0083699D01*
X0314583Y0084116D01*
X0314583Y0084950D01*
X0314166Y0085368D01*
X0312498Y0085368D01*
X0312081Y0084950D01*
X0312081Y0084116D01*
X0312498Y0083699D01*
X0312915Y0086462D02*
X0314166Y0086462D01*
X0314583Y0086879D01*
X0314583Y0088130D01*
X0312915Y0088130D01*
X0312915Y0089224D02*
X0312915Y0090058D01*
X0312498Y0089641D02*
X0314166Y0089641D01*
X0314583Y0090058D01*
X0296083Y0090558D02*
X0295666Y0090141D01*
X0293998Y0090141D01*
X0294415Y0089724D02*
X0294415Y0090558D01*
X0294415Y0088630D02*
X0296083Y0088630D01*
X0296083Y0087379D01*
X0295666Y0086962D01*
X0294415Y0086962D01*
X0293998Y0085868D02*
X0293581Y0085450D01*
X0293581Y0084616D01*
X0293998Y0084199D01*
X0295666Y0084199D01*
X0296083Y0084616D01*
X0296083Y0085450D01*
X0295666Y0085868D01*
X0293998Y0085868D01*
X0296083Y0080430D02*
X0296083Y0079595D01*
X0296083Y0080013D02*
X0293581Y0080013D01*
X0293581Y0079595D01*
X0293581Y0078171D02*
X0296083Y0078171D01*
X0296083Y0077754D02*
X0296083Y0078588D01*
X0296083Y0076746D02*
X0296083Y0075912D01*
X0296083Y0076329D02*
X0294415Y0076329D01*
X0294415Y0075912D01*
X0293581Y0076329D02*
X0293164Y0076329D01*
X0293581Y0077754D02*
X0293581Y0078171D01*
X0293581Y0074818D02*
X0296083Y0074818D01*
X0296083Y0073150D02*
X0293581Y0073150D01*
X0294415Y0073984D01*
X0293581Y0074818D01*
X0274583Y0074318D02*
X0272081Y0074318D01*
X0272915Y0073484D01*
X0272081Y0072650D01*
X0274583Y0072650D01*
X0274583Y0075412D02*
X0274583Y0076246D01*
X0274583Y0075829D02*
X0272915Y0075829D01*
X0272915Y0075412D01*
X0272081Y0075829D02*
X0271664Y0075829D01*
X0272081Y0077254D02*
X0272081Y0077671D01*
X0274583Y0077671D01*
X0274583Y0077254D02*
X0274583Y0078088D01*
X0274583Y0079095D02*
X0274583Y0079930D01*
X0274583Y0079513D02*
X0272081Y0079513D01*
X0272081Y0079095D01*
X0272498Y0083699D02*
X0274166Y0083699D01*
X0274583Y0084116D01*
X0274583Y0084950D01*
X0274166Y0085368D01*
X0272498Y0085368D01*
X0272081Y0084950D01*
X0272081Y0084116D01*
X0272498Y0083699D01*
X0272915Y0086462D02*
X0274166Y0086462D01*
X0274583Y0086879D01*
X0274583Y0088130D01*
X0272915Y0088130D01*
X0272915Y0089224D02*
X0272915Y0090058D01*
X0272498Y0089641D02*
X0274166Y0089641D01*
X0274583Y0090058D01*
X0256083Y0090558D02*
X0255666Y0090141D01*
X0253998Y0090141D01*
X0254415Y0089724D02*
X0254415Y0090558D01*
X0254415Y0088630D02*
X0256083Y0088630D01*
X0256083Y0087379D01*
X0255666Y0086962D01*
X0254415Y0086962D01*
X0253998Y0085868D02*
X0253581Y0085450D01*
X0253581Y0084616D01*
X0253998Y0084199D01*
X0255666Y0084199D01*
X0256083Y0084616D01*
X0256083Y0085450D01*
X0255666Y0085868D01*
X0253998Y0085868D01*
X0256083Y0080430D02*
X0256083Y0079595D01*
X0256083Y0080013D02*
X0253581Y0080013D01*
X0253581Y0079595D01*
X0253581Y0078171D02*
X0256083Y0078171D01*
X0256083Y0077754D02*
X0256083Y0078588D01*
X0256083Y0076746D02*
X0256083Y0075912D01*
X0256083Y0076329D02*
X0254415Y0076329D01*
X0254415Y0075912D01*
X0253581Y0076329D02*
X0253164Y0076329D01*
X0253581Y0077754D02*
X0253581Y0078171D01*
X0253581Y0074818D02*
X0256083Y0074818D01*
X0256083Y0073150D02*
X0253581Y0073150D01*
X0254415Y0073984D01*
X0253581Y0074818D01*
X0234583Y0074318D02*
X0232081Y0074318D01*
X0232915Y0073484D01*
X0232081Y0072650D01*
X0234583Y0072650D01*
X0234583Y0075412D02*
X0234583Y0076246D01*
X0234583Y0075829D02*
X0232915Y0075829D01*
X0232915Y0075412D01*
X0232081Y0075829D02*
X0231664Y0075829D01*
X0232081Y0077254D02*
X0232081Y0077671D01*
X0234583Y0077671D01*
X0234583Y0077254D02*
X0234583Y0078088D01*
X0234583Y0079095D02*
X0234583Y0079930D01*
X0234583Y0079513D02*
X0232081Y0079513D01*
X0232081Y0079095D01*
X0232498Y0083699D02*
X0234166Y0083699D01*
X0234583Y0084116D01*
X0234583Y0084950D01*
X0234166Y0085368D01*
X0232498Y0085368D01*
X0232081Y0084950D01*
X0232081Y0084116D01*
X0232498Y0083699D01*
X0232915Y0086462D02*
X0234166Y0086462D01*
X0234583Y0086879D01*
X0234583Y0088130D01*
X0232915Y0088130D01*
X0232915Y0089224D02*
X0232915Y0090058D01*
X0232498Y0089641D02*
X0234166Y0089641D01*
X0234583Y0090058D01*
X0216083Y0090558D02*
X0215666Y0090141D01*
X0213998Y0090141D01*
X0214415Y0089724D02*
X0214415Y0090558D01*
X0214415Y0088630D02*
X0216083Y0088630D01*
X0216083Y0087379D01*
X0215666Y0086962D01*
X0214415Y0086962D01*
X0213998Y0085868D02*
X0213581Y0085450D01*
X0213581Y0084616D01*
X0213998Y0084199D01*
X0215666Y0084199D01*
X0216083Y0084616D01*
X0216083Y0085450D01*
X0215666Y0085868D01*
X0213998Y0085868D01*
X0216083Y0080430D02*
X0216083Y0079595D01*
X0216083Y0080013D02*
X0213581Y0080013D01*
X0213581Y0079595D01*
X0213581Y0078171D02*
X0216083Y0078171D01*
X0216083Y0077754D02*
X0216083Y0078588D01*
X0216083Y0076746D02*
X0216083Y0075912D01*
X0216083Y0076329D02*
X0214415Y0076329D01*
X0214415Y0075912D01*
X0213581Y0076329D02*
X0213164Y0076329D01*
X0213581Y0077754D02*
X0213581Y0078171D01*
X0213581Y0074818D02*
X0216083Y0074818D01*
X0216083Y0073150D02*
X0213581Y0073150D01*
X0214415Y0073984D01*
X0213581Y0074818D01*
X0194583Y0074318D02*
X0192081Y0074318D01*
X0192915Y0073484D01*
X0192081Y0072650D01*
X0194583Y0072650D01*
X0194583Y0075412D02*
X0194583Y0076246D01*
X0194583Y0075829D02*
X0192915Y0075829D01*
X0192915Y0075412D01*
X0192081Y0075829D02*
X0191664Y0075829D01*
X0192081Y0077254D02*
X0192081Y0077671D01*
X0194583Y0077671D01*
X0194583Y0077254D02*
X0194583Y0078088D01*
X0194583Y0079095D02*
X0194583Y0079930D01*
X0194583Y0079513D02*
X0192081Y0079513D01*
X0192081Y0079095D01*
X0192498Y0083699D02*
X0194166Y0083699D01*
X0194583Y0084116D01*
X0194583Y0084950D01*
X0194166Y0085368D01*
X0192498Y0085368D01*
X0192081Y0084950D01*
X0192081Y0084116D01*
X0192498Y0083699D01*
X0192915Y0086462D02*
X0194166Y0086462D01*
X0194583Y0086879D01*
X0194583Y0088130D01*
X0192915Y0088130D01*
X0192915Y0089224D02*
X0192915Y0090058D01*
X0192498Y0089641D02*
X0194166Y0089641D01*
X0194583Y0090058D01*
X0176083Y0090558D02*
X0175666Y0090141D01*
X0173998Y0090141D01*
X0174415Y0089724D02*
X0174415Y0090558D01*
X0174415Y0088630D02*
X0176083Y0088630D01*
X0176083Y0087379D01*
X0175666Y0086962D01*
X0174415Y0086962D01*
X0173998Y0085868D02*
X0173581Y0085450D01*
X0173581Y0084616D01*
X0173998Y0084199D01*
X0175666Y0084199D01*
X0176083Y0084616D01*
X0176083Y0085450D01*
X0175666Y0085868D01*
X0173998Y0085868D01*
X0176083Y0080430D02*
X0176083Y0079595D01*
X0176083Y0080013D02*
X0173581Y0080013D01*
X0173581Y0079595D01*
X0173581Y0078171D02*
X0176083Y0078171D01*
X0176083Y0077754D02*
X0176083Y0078588D01*
X0176083Y0076746D02*
X0176083Y0075912D01*
X0176083Y0076329D02*
X0174415Y0076329D01*
X0174415Y0075912D01*
X0173581Y0076329D02*
X0173164Y0076329D01*
X0173581Y0077754D02*
X0173581Y0078171D01*
X0173581Y0074818D02*
X0176083Y0074818D01*
X0176083Y0073150D02*
X0173581Y0073150D01*
X0174415Y0073984D01*
X0173581Y0074818D01*
X0154583Y0074318D02*
X0152081Y0074318D01*
X0152915Y0073484D01*
X0152081Y0072650D01*
X0154583Y0072650D01*
X0154583Y0075412D02*
X0154583Y0076246D01*
X0154583Y0075829D02*
X0152915Y0075829D01*
X0152915Y0075412D01*
X0152081Y0075829D02*
X0151664Y0075829D01*
X0152081Y0077254D02*
X0152081Y0077671D01*
X0154583Y0077671D01*
X0154583Y0077254D02*
X0154583Y0078088D01*
X0154583Y0079095D02*
X0154583Y0079930D01*
X0154583Y0079513D02*
X0152081Y0079513D01*
X0152081Y0079095D01*
X0152498Y0083699D02*
X0154166Y0083699D01*
X0154583Y0084116D01*
X0154583Y0084950D01*
X0154166Y0085368D01*
X0152498Y0085368D01*
X0152081Y0084950D01*
X0152081Y0084116D01*
X0152498Y0083699D01*
X0152915Y0086462D02*
X0154166Y0086462D01*
X0154583Y0086879D01*
X0154583Y0088130D01*
X0152915Y0088130D01*
X0152915Y0089224D02*
X0152915Y0090058D01*
X0152498Y0089641D02*
X0154166Y0089641D01*
X0154583Y0090058D01*
X0136083Y0090558D02*
X0135666Y0090141D01*
X0133998Y0090141D01*
X0134415Y0089724D02*
X0134415Y0090558D01*
X0134415Y0088630D02*
X0136083Y0088630D01*
X0136083Y0087379D01*
X0135666Y0086962D01*
X0134415Y0086962D01*
X0133998Y0085868D02*
X0133581Y0085450D01*
X0133581Y0084616D01*
X0133998Y0084199D01*
X0135666Y0084199D01*
X0136083Y0084616D01*
X0136083Y0085450D01*
X0135666Y0085868D01*
X0133998Y0085868D01*
X0136083Y0080430D02*
X0136083Y0079595D01*
X0136083Y0080013D02*
X0133581Y0080013D01*
X0133581Y0079595D01*
X0133581Y0078171D02*
X0136083Y0078171D01*
X0136083Y0077754D02*
X0136083Y0078588D01*
X0136083Y0076746D02*
X0136083Y0075912D01*
X0136083Y0076329D02*
X0134415Y0076329D01*
X0134415Y0075912D01*
X0133581Y0076329D02*
X0133164Y0076329D01*
X0133581Y0077754D02*
X0133581Y0078171D01*
X0133581Y0074818D02*
X0136083Y0074818D01*
X0136083Y0073150D02*
X0133581Y0073150D01*
X0134415Y0073984D01*
X0133581Y0074818D01*
X0114583Y0074318D02*
X0112081Y0074318D01*
X0112915Y0073484D01*
X0112081Y0072650D01*
X0114583Y0072650D01*
X0114583Y0075412D02*
X0114583Y0076246D01*
X0114583Y0075829D02*
X0112915Y0075829D01*
X0112915Y0075412D01*
X0112081Y0075829D02*
X0111664Y0075829D01*
X0112081Y0077254D02*
X0112081Y0077671D01*
X0114583Y0077671D01*
X0114583Y0077254D02*
X0114583Y0078088D01*
X0114583Y0079095D02*
X0114583Y0079930D01*
X0114583Y0079513D02*
X0112081Y0079513D01*
X0112081Y0079095D01*
X0112498Y0083699D02*
X0114166Y0083699D01*
X0114583Y0084116D01*
X0114583Y0084950D01*
X0114166Y0085368D01*
X0112498Y0085368D01*
X0112081Y0084950D01*
X0112081Y0084116D01*
X0112498Y0083699D01*
X0112915Y0086462D02*
X0114166Y0086462D01*
X0114583Y0086879D01*
X0114583Y0088130D01*
X0112915Y0088130D01*
X0112915Y0089224D02*
X0112915Y0090058D01*
X0112498Y0089641D02*
X0114166Y0089641D01*
X0114583Y0090058D01*
X0114583Y0050058D02*
X0114166Y0049641D01*
X0112498Y0049641D01*
X0112915Y0049224D02*
X0112915Y0050058D01*
X0112915Y0048130D02*
X0114583Y0048130D01*
X0114583Y0046879D01*
X0114166Y0046462D01*
X0112915Y0046462D01*
X0112498Y0045368D02*
X0112081Y0044950D01*
X0112081Y0044116D01*
X0112498Y0043699D01*
X0114166Y0043699D01*
X0114583Y0044116D01*
X0114583Y0044950D01*
X0114166Y0045368D01*
X0112498Y0045368D01*
X0114583Y0039930D02*
X0114583Y0039095D01*
X0114583Y0039513D02*
X0112081Y0039513D01*
X0112081Y0039095D01*
X0112081Y0037671D02*
X0114583Y0037671D01*
X0114583Y0037254D02*
X0114583Y0038088D01*
X0114583Y0036246D02*
X0114583Y0035412D01*
X0114583Y0035829D02*
X0112915Y0035829D01*
X0112915Y0035412D01*
X0112081Y0035829D02*
X0111664Y0035829D01*
X0112081Y0037254D02*
X0112081Y0037671D01*
X0112081Y0034318D02*
X0114583Y0034318D01*
X0114583Y0032650D02*
X0112081Y0032650D01*
X0112915Y0033484D01*
X0112081Y0034318D01*
X0133164Y0036329D02*
X0133581Y0036329D01*
X0134415Y0036329D02*
X0136083Y0036329D01*
X0136083Y0035912D02*
X0136083Y0036746D01*
X0136083Y0037754D02*
X0136083Y0038588D01*
X0136083Y0038171D02*
X0133581Y0038171D01*
X0133581Y0037754D01*
X0134415Y0036329D02*
X0134415Y0035912D01*
X0133581Y0034818D02*
X0136083Y0034818D01*
X0136083Y0033150D02*
X0133581Y0033150D01*
X0134415Y0033984D01*
X0133581Y0034818D01*
X0133581Y0039595D02*
X0133581Y0040013D01*
X0136083Y0040013D01*
X0136083Y0040430D02*
X0136083Y0039595D01*
X0135666Y0044199D02*
X0136083Y0044616D01*
X0136083Y0045450D01*
X0135666Y0045868D01*
X0133998Y0045868D01*
X0133581Y0045450D01*
X0133581Y0044616D01*
X0133998Y0044199D01*
X0135666Y0044199D01*
X0135666Y0046962D02*
X0136083Y0047379D01*
X0136083Y0048630D01*
X0134415Y0048630D01*
X0134415Y0049724D02*
X0134415Y0050558D01*
X0133998Y0050141D02*
X0135666Y0050141D01*
X0136083Y0050558D01*
X0135666Y0046962D02*
X0134415Y0046962D01*
X0152081Y0044950D02*
X0152498Y0045368D01*
X0154166Y0045368D01*
X0154583Y0044950D01*
X0154583Y0044116D01*
X0154166Y0043699D01*
X0152498Y0043699D01*
X0152081Y0044116D01*
X0152081Y0044950D01*
X0152915Y0046462D02*
X0154166Y0046462D01*
X0154583Y0046879D01*
X0154583Y0048130D01*
X0152915Y0048130D01*
X0152915Y0049224D02*
X0152915Y0050058D01*
X0152498Y0049641D02*
X0154166Y0049641D01*
X0154583Y0050058D01*
X0154583Y0039930D02*
X0154583Y0039095D01*
X0154583Y0039513D02*
X0152081Y0039513D01*
X0152081Y0039095D01*
X0152081Y0037671D02*
X0154583Y0037671D01*
X0154583Y0037254D02*
X0154583Y0038088D01*
X0154583Y0036246D02*
X0154583Y0035412D01*
X0154583Y0035829D02*
X0152915Y0035829D01*
X0152915Y0035412D01*
X0152081Y0035829D02*
X0151664Y0035829D01*
X0152081Y0037254D02*
X0152081Y0037671D01*
X0152081Y0034318D02*
X0154583Y0034318D01*
X0154583Y0032650D02*
X0152081Y0032650D01*
X0152915Y0033484D01*
X0152081Y0034318D01*
X0173164Y0036329D02*
X0173581Y0036329D01*
X0174415Y0036329D02*
X0176083Y0036329D01*
X0176083Y0035912D02*
X0176083Y0036746D01*
X0176083Y0037754D02*
X0176083Y0038588D01*
X0176083Y0038171D02*
X0173581Y0038171D01*
X0173581Y0037754D01*
X0174415Y0036329D02*
X0174415Y0035912D01*
X0173581Y0034818D02*
X0176083Y0034818D01*
X0176083Y0033150D02*
X0173581Y0033150D01*
X0174415Y0033984D01*
X0173581Y0034818D01*
X0173581Y0039595D02*
X0173581Y0040013D01*
X0176083Y0040013D01*
X0176083Y0040430D02*
X0176083Y0039595D01*
X0175666Y0044199D02*
X0176083Y0044616D01*
X0176083Y0045450D01*
X0175666Y0045868D01*
X0173998Y0045868D01*
X0173581Y0045450D01*
X0173581Y0044616D01*
X0173998Y0044199D01*
X0175666Y0044199D01*
X0175666Y0046962D02*
X0176083Y0047379D01*
X0176083Y0048630D01*
X0174415Y0048630D01*
X0174415Y0049724D02*
X0174415Y0050558D01*
X0173998Y0050141D02*
X0175666Y0050141D01*
X0176083Y0050558D01*
X0175666Y0046962D02*
X0174415Y0046962D01*
X0192081Y0044950D02*
X0192498Y0045368D01*
X0194166Y0045368D01*
X0194583Y0044950D01*
X0194583Y0044116D01*
X0194166Y0043699D01*
X0192498Y0043699D01*
X0192081Y0044116D01*
X0192081Y0044950D01*
X0192915Y0046462D02*
X0194166Y0046462D01*
X0194583Y0046879D01*
X0194583Y0048130D01*
X0192915Y0048130D01*
X0192915Y0049224D02*
X0192915Y0050058D01*
X0192498Y0049641D02*
X0194166Y0049641D01*
X0194583Y0050058D01*
X0194583Y0039930D02*
X0194583Y0039095D01*
X0194583Y0039513D02*
X0192081Y0039513D01*
X0192081Y0039095D01*
X0192081Y0037671D02*
X0194583Y0037671D01*
X0194583Y0037254D02*
X0194583Y0038088D01*
X0194583Y0036246D02*
X0194583Y0035412D01*
X0194583Y0035829D02*
X0192915Y0035829D01*
X0192915Y0035412D01*
X0192081Y0035829D02*
X0191664Y0035829D01*
X0192081Y0037254D02*
X0192081Y0037671D01*
X0192081Y0034318D02*
X0194583Y0034318D01*
X0194583Y0032650D02*
X0192081Y0032650D01*
X0192915Y0033484D01*
X0192081Y0034318D01*
X0213164Y0036329D02*
X0213581Y0036329D01*
X0214415Y0036329D02*
X0216083Y0036329D01*
X0216083Y0035912D02*
X0216083Y0036746D01*
X0216083Y0037754D02*
X0216083Y0038588D01*
X0216083Y0038171D02*
X0213581Y0038171D01*
X0213581Y0037754D01*
X0214415Y0036329D02*
X0214415Y0035912D01*
X0213581Y0034818D02*
X0216083Y0034818D01*
X0216083Y0033150D02*
X0213581Y0033150D01*
X0214415Y0033984D01*
X0213581Y0034818D01*
X0213581Y0039595D02*
X0213581Y0040013D01*
X0216083Y0040013D01*
X0216083Y0040430D02*
X0216083Y0039595D01*
X0215666Y0044199D02*
X0213998Y0044199D01*
X0213581Y0044616D01*
X0213581Y0045450D01*
X0213998Y0045868D01*
X0215666Y0045868D01*
X0216083Y0045450D01*
X0216083Y0044616D01*
X0215666Y0044199D01*
X0215666Y0046962D02*
X0214415Y0046962D01*
X0215666Y0046962D02*
X0216083Y0047379D01*
X0216083Y0048630D01*
X0214415Y0048630D01*
X0214415Y0049724D02*
X0214415Y0050558D01*
X0213998Y0050141D02*
X0215666Y0050141D01*
X0216083Y0050558D01*
X0232498Y0049641D02*
X0234166Y0049641D01*
X0234583Y0050058D01*
X0232915Y0050058D02*
X0232915Y0049224D01*
X0232915Y0048130D02*
X0234583Y0048130D01*
X0234583Y0046879D01*
X0234166Y0046462D01*
X0232915Y0046462D01*
X0232498Y0045368D02*
X0232081Y0044950D01*
X0232081Y0044116D01*
X0232498Y0043699D01*
X0234166Y0043699D01*
X0234583Y0044116D01*
X0234583Y0044950D01*
X0234166Y0045368D01*
X0232498Y0045368D01*
X0234583Y0039930D02*
X0234583Y0039095D01*
X0234583Y0039513D02*
X0232081Y0039513D01*
X0232081Y0039095D01*
X0232081Y0037671D02*
X0234583Y0037671D01*
X0234583Y0037254D02*
X0234583Y0038088D01*
X0234583Y0036246D02*
X0234583Y0035412D01*
X0234583Y0035829D02*
X0232915Y0035829D01*
X0232915Y0035412D01*
X0232081Y0035829D02*
X0231664Y0035829D01*
X0232081Y0037254D02*
X0232081Y0037671D01*
X0232081Y0034318D02*
X0234583Y0034318D01*
X0234583Y0032650D02*
X0232081Y0032650D01*
X0232915Y0033484D01*
X0232081Y0034318D01*
X0253164Y0036329D02*
X0253581Y0036329D01*
X0254415Y0036329D02*
X0256083Y0036329D01*
X0256083Y0035912D02*
X0256083Y0036746D01*
X0256083Y0037754D02*
X0256083Y0038588D01*
X0256083Y0038171D02*
X0253581Y0038171D01*
X0253581Y0037754D01*
X0254415Y0036329D02*
X0254415Y0035912D01*
X0253581Y0034818D02*
X0256083Y0034818D01*
X0256083Y0033150D02*
X0253581Y0033150D01*
X0254415Y0033984D01*
X0253581Y0034818D01*
X0253581Y0039595D02*
X0253581Y0040013D01*
X0256083Y0040013D01*
X0256083Y0040430D02*
X0256083Y0039595D01*
X0255666Y0044199D02*
X0256083Y0044616D01*
X0256083Y0045450D01*
X0255666Y0045868D01*
X0253998Y0045868D01*
X0253581Y0045450D01*
X0253581Y0044616D01*
X0253998Y0044199D01*
X0255666Y0044199D01*
X0255666Y0046962D02*
X0256083Y0047379D01*
X0256083Y0048630D01*
X0254415Y0048630D01*
X0254415Y0049724D02*
X0254415Y0050558D01*
X0253998Y0050141D02*
X0255666Y0050141D01*
X0256083Y0050558D01*
X0255666Y0046962D02*
X0254415Y0046962D01*
X0272081Y0044950D02*
X0272498Y0045368D01*
X0274166Y0045368D01*
X0274583Y0044950D01*
X0274583Y0044116D01*
X0274166Y0043699D01*
X0272498Y0043699D01*
X0272081Y0044116D01*
X0272081Y0044950D01*
X0272915Y0046462D02*
X0274166Y0046462D01*
X0274583Y0046879D01*
X0274583Y0048130D01*
X0272915Y0048130D01*
X0272915Y0049224D02*
X0272915Y0050058D01*
X0272498Y0049641D02*
X0274166Y0049641D01*
X0274583Y0050058D01*
X0274583Y0039930D02*
X0274583Y0039095D01*
X0274583Y0039513D02*
X0272081Y0039513D01*
X0272081Y0039095D01*
X0272081Y0037671D02*
X0274583Y0037671D01*
X0274583Y0037254D02*
X0274583Y0038088D01*
X0274583Y0036246D02*
X0274583Y0035412D01*
X0274583Y0035829D02*
X0272915Y0035829D01*
X0272915Y0035412D01*
X0272081Y0035829D02*
X0271664Y0035829D01*
X0272081Y0037254D02*
X0272081Y0037671D01*
X0272081Y0034318D02*
X0274583Y0034318D01*
X0274583Y0032650D02*
X0272081Y0032650D01*
X0272915Y0033484D01*
X0272081Y0034318D01*
X0293164Y0036329D02*
X0293581Y0036329D01*
X0294415Y0036329D02*
X0296083Y0036329D01*
X0296083Y0035912D02*
X0296083Y0036746D01*
X0296083Y0037754D02*
X0296083Y0038588D01*
X0296083Y0038171D02*
X0293581Y0038171D01*
X0293581Y0037754D01*
X0294415Y0036329D02*
X0294415Y0035912D01*
X0293581Y0034818D02*
X0296083Y0034818D01*
X0296083Y0033150D02*
X0293581Y0033150D01*
X0294415Y0033984D01*
X0293581Y0034818D01*
X0293581Y0039595D02*
X0293581Y0040013D01*
X0296083Y0040013D01*
X0296083Y0040430D02*
X0296083Y0039595D01*
X0295666Y0044199D02*
X0296083Y0044616D01*
X0296083Y0045450D01*
X0295666Y0045868D01*
X0293998Y0045868D01*
X0293581Y0045450D01*
X0293581Y0044616D01*
X0293998Y0044199D01*
X0295666Y0044199D01*
X0295666Y0046962D02*
X0296083Y0047379D01*
X0296083Y0048630D01*
X0294415Y0048630D01*
X0294415Y0049724D02*
X0294415Y0050558D01*
X0293998Y0050141D02*
X0295666Y0050141D01*
X0296083Y0050558D01*
X0295666Y0046962D02*
X0294415Y0046962D01*
X0312081Y0044950D02*
X0312498Y0045368D01*
X0314166Y0045368D01*
X0314583Y0044950D01*
X0314583Y0044116D01*
X0314166Y0043699D01*
X0312498Y0043699D01*
X0312081Y0044116D01*
X0312081Y0044950D01*
X0312915Y0046462D02*
X0314166Y0046462D01*
X0314583Y0046879D01*
X0314583Y0048130D01*
X0312915Y0048130D01*
X0312915Y0049224D02*
X0312915Y0050058D01*
X0312498Y0049641D02*
X0314166Y0049641D01*
X0314583Y0050058D01*
X0314583Y0039930D02*
X0314583Y0039095D01*
X0314583Y0039513D02*
X0312081Y0039513D01*
X0312081Y0039095D01*
X0312081Y0037671D02*
X0314583Y0037671D01*
X0314583Y0037254D02*
X0314583Y0038088D01*
X0314583Y0036246D02*
X0314583Y0035412D01*
X0314583Y0035829D02*
X0312915Y0035829D01*
X0312915Y0035412D01*
X0312081Y0035829D02*
X0311664Y0035829D01*
X0312081Y0037254D02*
X0312081Y0037671D01*
X0312081Y0034318D02*
X0314583Y0034318D01*
X0314583Y0032650D02*
X0312081Y0032650D01*
X0312915Y0033484D01*
X0312081Y0034318D01*
X0333164Y0036329D02*
X0333581Y0036329D01*
X0334415Y0036329D02*
X0336083Y0036329D01*
X0336083Y0035912D02*
X0336083Y0036746D01*
X0336083Y0037754D02*
X0336083Y0038588D01*
X0336083Y0038171D02*
X0333581Y0038171D01*
X0333581Y0037754D01*
X0334415Y0036329D02*
X0334415Y0035912D01*
X0333581Y0034818D02*
X0336083Y0034818D01*
X0336083Y0033150D02*
X0333581Y0033150D01*
X0334415Y0033984D01*
X0333581Y0034818D01*
X0333581Y0039595D02*
X0333581Y0040013D01*
X0336083Y0040013D01*
X0336083Y0040430D02*
X0336083Y0039595D01*
X0335666Y0044199D02*
X0333998Y0044199D01*
X0333581Y0044616D01*
X0333581Y0045450D01*
X0333998Y0045868D01*
X0335666Y0045868D01*
X0336083Y0045450D01*
X0336083Y0044616D01*
X0335666Y0044199D01*
X0335666Y0046962D02*
X0334415Y0046962D01*
X0335666Y0046962D02*
X0336083Y0047379D01*
X0336083Y0048630D01*
X0334415Y0048630D01*
X0334415Y0049724D02*
X0334415Y0050558D01*
X0333998Y0050141D02*
X0335666Y0050141D01*
X0336083Y0050558D01*
X0352081Y0044950D02*
X0352498Y0045368D01*
X0354166Y0045368D01*
X0354583Y0044950D01*
X0354583Y0044116D01*
X0354166Y0043699D01*
X0352498Y0043699D01*
X0352081Y0044116D01*
X0352081Y0044950D01*
X0352915Y0046462D02*
X0354166Y0046462D01*
X0354583Y0046879D01*
X0354583Y0048130D01*
X0352915Y0048130D01*
X0352915Y0049224D02*
X0352915Y0050058D01*
X0352498Y0049641D02*
X0354166Y0049641D01*
X0354583Y0050058D01*
X0354583Y0039930D02*
X0354583Y0039095D01*
X0354583Y0039513D02*
X0352081Y0039513D01*
X0352081Y0039095D01*
X0352081Y0037671D02*
X0354583Y0037671D01*
X0354583Y0037254D02*
X0354583Y0038088D01*
X0354583Y0036246D02*
X0354583Y0035412D01*
X0354583Y0035829D02*
X0352915Y0035829D01*
X0352915Y0035412D01*
X0352081Y0035829D02*
X0351664Y0035829D01*
X0352081Y0037254D02*
X0352081Y0037671D01*
X0352081Y0034318D02*
X0354583Y0034318D01*
X0354583Y0032650D02*
X0352081Y0032650D01*
X0352915Y0033484D01*
X0352081Y0034318D01*
X0373164Y0036329D02*
X0373581Y0036329D01*
X0374415Y0036329D02*
X0376083Y0036329D01*
X0376083Y0035912D02*
X0376083Y0036746D01*
X0376083Y0037754D02*
X0376083Y0038588D01*
X0376083Y0038171D02*
X0373581Y0038171D01*
X0373581Y0037754D01*
X0374415Y0036329D02*
X0374415Y0035912D01*
X0373581Y0034818D02*
X0376083Y0034818D01*
X0376083Y0033150D02*
X0373581Y0033150D01*
X0374415Y0033984D01*
X0373581Y0034818D01*
X0373581Y0039595D02*
X0373581Y0040013D01*
X0376083Y0040013D01*
X0376083Y0040430D02*
X0376083Y0039595D01*
X0375666Y0044199D02*
X0376083Y0044616D01*
X0376083Y0045450D01*
X0375666Y0045868D01*
X0373998Y0045868D01*
X0373581Y0045450D01*
X0373581Y0044616D01*
X0373998Y0044199D01*
X0375666Y0044199D01*
X0375666Y0046962D02*
X0376083Y0047379D01*
X0376083Y0048630D01*
X0374415Y0048630D01*
X0374415Y0049724D02*
X0374415Y0050558D01*
X0373998Y0050141D02*
X0375666Y0050141D01*
X0376083Y0050558D01*
X0375666Y0046962D02*
X0374415Y0046962D01*
D13*
X0428333Y0054900D02*
X0043333Y0054900D01*
X0043333Y0069400D02*
X0428333Y0069400D01*
X0428333Y0094900D02*
X0043333Y0094900D01*
X0043333Y0109400D02*
X0428333Y0109400D01*
X0428333Y0134900D02*
X0043333Y0134900D01*
X0043333Y0149400D02*
X0428333Y0149400D01*
X0428333Y0174900D02*
X0043333Y0174900D01*
X0043333Y0189400D02*
X0428333Y0189400D01*
X0428333Y0214900D02*
X0043333Y0214900D01*
X0043333Y0229400D02*
X0428333Y0229400D01*
X0428333Y0254900D02*
X0043333Y0254900D01*
X0043333Y0269400D02*
X0428333Y0269400D01*
X0428333Y0294900D02*
X0043333Y0294900D01*
X0088333Y0321361D02*
X0399357Y0321361D01*
X0399357Y0001400D01*
X0088333Y0001400D01*
X0088333Y0321361D01*
X0043333Y0029400D02*
X0428333Y0029400D01*
M02*
